<?xml version="1.0" encoding="iso-8859-1"?>
<!-- Uploaded to: SVG Repo, www.svgrepo.com, Generator: SVG Repo Mixer Tools -->
<svg fill="#000000" height="800px" width="800px" version="1.1" id="Layer_1" xmlns="http://www.w3.org/2000/svg" xmlns:xlink="http://www.w3.org/1999/xlink" 
	 viewBox="0 0 512 512" xml:space="preserve">
<g>
	<g>
		<path d="M443.733,273.067h-9.361c0.606-11.349,0.546-22.758-0.179-34.133h1.007c14.123,0,25.6-11.486,25.6-25.6
			c0-14.114-11.477-25.6-25.6-25.6h-8.747c-2.782-11.656-6.221-23.296-10.342-34.79c15.718-3.055,27.622-16.887,27.622-33.476
			c0-18.825-15.309-34.133-34.133-34.133h-26.146c-10.743-17.451-20.736-30.626-27.46-38.801c6.596-4.634,10.94-12.271,10.94-20.932
			c0-14.114-11.477-25.6-25.6-25.6H170.667c-14.114,0-25.6,11.486-25.6,25.6c0,8.661,4.352,16.299,10.948,20.932
			c-6.733,8.175-16.717,21.35-27.46,38.801H102.4c-18.825,0-34.133,15.309-34.133,34.133c0,16.589,11.913,30.421,27.631,33.476
			c-4.13,11.494-7.561,23.134-10.342,34.79H76.8c-14.114,0-25.6,11.486-25.6,25.6c0,14.114,11.486,25.6,25.6,25.6h1.007
			c-0.717,11.375-0.777,22.784-0.179,34.133h-9.361c-18.825,0-34.133,15.309-34.133,34.133s15.309,34.133,34.133,34.133h21.282
			c3.558,11.964,7.876,23.893,12.962,35.669c-9.967,3.507-17.178,12.919-17.178,24.064c0,14.114,11.486,25.6,25.6,25.6h17.937
			c8.201,12.988,17.382,25.89,27.46,38.536c-6.793,4.608-11.264,12.39-11.264,21.197c0,14.114,11.486,25.6,25.6,25.6h170.667
			c14.123,0,25.6-11.486,25.6-25.6c0-8.806-4.471-16.589-11.264-21.197c10.078-12.646,19.268-25.549,27.46-38.536h17.937
			c14.123,0,25.6-11.486,25.6-25.6c0-11.145-7.202-20.557-17.169-24.064c5.086-11.776,9.404-23.706,12.962-35.669h21.274
			c18.825,0,34.133-15.309,34.133-34.133S462.558,273.067,443.733,273.067z M174.447,51.2h163.115
			c4.395,4.966,14.345,16.802,25.737,34.133H148.71C160.102,68.002,170.052,56.166,174.447,51.2z M113.792,153.6h284.416
			c4.25,11.255,7.842,22.69,10.743,34.133H103.049C105.95,176.29,109.542,164.855,113.792,153.6z M120.439,375.467
			c-5.103-11.247-9.498-22.673-13.124-34.133h82.654c0.017,0.051,0.043,0.102,0.051,0.162c3.499,13.355,10.914,25.105,20.983,33.971
			H120.439z M204.8,324.267c0-1.758,0.094-3.499,0.265-5.214c0.009-0.102,0.034-0.205,0.051-0.307
			c1.041-9.702,4.838-18.577,10.547-25.899c0.307-0.393,0.58-0.811,0.905-1.195c0.469-0.563,0.981-1.075,1.468-1.621
			c0.657-0.717,1.289-1.451,1.988-2.142c0.486-0.478,1.015-0.922,1.519-1.382c0.725-0.657,1.434-1.323,2.185-1.937
			c0.631-0.521,1.314-0.99,1.98-1.485c0.648-0.478,1.28-0.973,1.954-1.425c0.811-0.546,1.664-1.032,2.517-1.527
			c0.555-0.333,1.101-0.683,1.673-0.99c0.947-0.503,1.929-0.956,2.91-1.408c0.521-0.23,1.024-0.495,1.544-0.717
			c1.024-0.427,2.074-0.785,3.132-1.143c0.521-0.179,1.024-0.393,1.553-0.555c1.058-0.324,2.15-0.572,3.243-0.836
			c0.546-0.128,1.075-0.29,1.63-0.401c1.126-0.23,2.287-0.375,3.439-0.529c0.529-0.068,1.05-0.171,1.579-0.23
			c1.69-0.162,3.396-0.256,5.12-0.256c1.732,0,3.439,0.094,5.129,0.256c0.529,0.06,1.05,0.162,1.57,0.23
			c1.161,0.154,2.313,0.299,3.447,0.529c0.546,0.111,1.075,0.273,1.621,0.401c1.092,0.256,2.185,0.512,3.251,0.836
			c0.529,0.162,1.033,0.375,1.553,0.555c1.05,0.358,2.108,0.717,3.132,1.143c0.521,0.222,1.024,0.486,1.536,0.717
			c0.99,0.452,1.971,0.905,2.918,1.408c0.563,0.307,1.109,0.657,1.664,0.981c0.853,0.504,1.707,0.99,2.526,1.545
			c0.666,0.444,1.297,0.939,1.946,1.417c0.666,0.486,1.348,0.964,1.988,1.485c0.751,0.614,1.459,1.28,2.176,1.937
			c0.512,0.461,1.041,0.904,1.527,1.382c0.7,0.691,1.331,1.425,1.98,2.142c0.495,0.546,1.007,1.058,1.468,1.621
			c0.324,0.384,0.606,0.802,0.913,1.195c5.709,7.322,9.506,16.196,10.547,25.899c0.009,0.102,0.034,0.205,0.043,0.307
			c0.179,1.715,0.265,3.456,0.265,5.214c0,1.323-0.094,2.611-0.196,3.908c-0.094,1.067-0.213,2.176-0.393,3.396v0.017
			c-2.688,18.722-15.556,33.988-32.444,40.491c-0.085,0.034-0.171,0.06-0.256,0.094c-2.714,1.024-5.538,1.826-8.431,2.381
			c-0.205,0.034-0.418,0.06-0.623,0.094c-2.884,0.512-5.845,0.819-8.858,0.819c-3.012,0-5.965-0.307-8.858-0.819
			c-0.205-0.034-0.41-0.06-0.614-0.094c-2.901-0.555-5.717-1.357-8.44-2.381c-0.077-0.034-0.162-0.06-0.247-0.094
			c-16.887-6.502-29.756-21.769-32.444-40.491l-0.009-0.017c-0.179-1.22-0.29-2.33-0.393-3.396
			C204.902,326.878,204.8,325.589,204.8,324.267z M337.34,460.8H174.669c-9.25-11.196-17.784-22.622-25.506-34.133h213.683
			C355.123,438.178,346.59,449.604,337.34,460.8z M391.569,375.467h-90.564c10.069-8.866,17.485-20.617,20.975-33.971
			c0.017-0.06,0.043-0.111,0.06-0.162h82.645C401.058,352.794,396.672,364.22,391.569,375.467z M417.348,273.067H301.116
			c-0.324-0.29-0.674-0.529-1.007-0.811c-0.64-0.546-1.306-1.067-1.963-1.587c-1.05-0.828-2.108-1.63-3.2-2.389
			c-0.623-0.444-1.263-0.862-1.911-1.28c-1.178-0.768-2.372-1.493-3.601-2.185c-0.623-0.358-1.254-0.7-1.894-1.033
			c-1.28-0.674-2.577-1.297-3.9-1.877c-0.648-0.29-1.289-0.58-1.954-0.845c-1.34-0.546-2.705-1.041-4.079-1.502
			c-0.691-0.23-1.365-0.469-2.065-0.674c-1.391-0.418-2.799-0.759-4.224-1.084c-0.717-0.171-1.425-0.358-2.15-0.495
			c-1.493-0.299-3.004-0.503-4.523-0.7c-0.674-0.085-1.323-0.205-1.997-0.273C260.446,256.128,258.236,256,256,256
			c-2.227,0-4.446,0.128-6.639,0.333c-0.674,0.068-1.331,0.188-1.997,0.273c-1.519,0.196-3.038,0.401-4.531,0.7
			c-0.725,0.137-1.434,0.324-2.15,0.495c-1.417,0.324-2.825,0.666-4.224,1.084c-0.691,0.205-1.374,0.444-2.057,0.674
			c-1.382,0.461-2.739,0.956-4.088,1.502c-0.657,0.265-1.306,0.555-1.954,0.845c-1.314,0.58-2.611,1.203-3.891,1.877
			c-0.64,0.333-1.271,0.674-1.903,1.033c-1.22,0.691-2.415,1.417-3.601,2.185c-0.64,0.418-1.28,0.836-1.911,1.28
			c-1.084,0.759-2.142,1.562-3.191,2.389c-0.666,0.521-1.323,1.041-1.971,1.587c-0.324,0.282-0.683,0.521-1.007,0.811H94.66
			c-0.64-11.341-0.572-22.767,0.196-34.133h322.296C417.92,250.3,417.988,261.726,417.348,273.067z"/>
	</g>
</g>
</svg>