<?xml version="1.0" encoding="iso-8859-1"?>
<!-- Uploaded to: SVG Repo, www.svgrepo.com, Generator: SVG Repo Mixer Tools -->
<svg height="800px" width="800px" version="1.1" id="Layer_1" xmlns="http://www.w3.org/2000/svg" xmlns:xlink="http://www.w3.org/1999/xlink" 
	 viewBox="0 0 512 512" xml:space="preserve">
<g transform="translate(1 1)">
	<g>
		<polygon style="fill:#FFE100;" points="314.733,348.884 348.867,348.884 348.867,297.684 314.733,297.684 		"/>
		<polygon style="fill:#FFE100;" points="434.2,348.884 468.333,348.884 468.333,297.684 434.2,297.684 		"/>
		<polygon style="fill:#FFE100;" points="297.667,297.684 485.4,297.684 485.4,118.484 297.667,118.484 		"/>
	</g>
	<g>
		<polygon style="fill:#FFA800;" points="459.8,297.684 485.4,297.684 485.4,118.484 459.8,118.484 		"/>
		<polygon style="fill:#FFA800;" points="451.267,348.884 468.333,348.884 468.333,297.684 451.267,297.684 		"/>
	</g>
	<polygon style="fill:#FFE100;" points="280.6,118.484 502.467,118.484 502.467,75.817 280.6,75.817 	"/>
	<polygon style="fill:#FFA800;" points="476.867,118.484 502.467,118.484 502.467,75.817 476.867,75.817 	"/>
	<polygon style="fill:#63D3FD;" points="348.867,195.284 434.2,195.284 434.2,161.15 348.867,161.15 	"/>
	<polygon style="fill:#3DB9F9;" points="408.6,195.284 434.2,195.284 434.2,161.15 408.6,161.15 	"/>
	<g>
		<polygon style="fill:#FFE100;" points="41.667,468.35 75.8,468.35 75.8,417.15 41.667,417.15 		"/>
		<polygon style="fill:#FFE100;" points="178.2,468.35 212.333,468.35 212.333,417.15 178.2,417.15 		"/>
		<polygon style="fill:#FFE100;" points="33.133,417.15 220.867,417.15 220.867,237.95 33.133,237.95 		"/>
	</g>
	<g>
		<polygon style="fill:#FFA800;" points="203.8,417.15 229.4,417.15 229.4,237.95 203.8,237.95 		"/>
		<polygon style="fill:#FFA800;" points="195.267,468.35 212.333,468.35 212.333,417.15 195.267,417.15 		"/>
	</g>
	<polygon style="fill:#FFE100;" points="7.533,237.95 237.933,237.95 237.933,186.75 7.533,186.75 	"/>
	<polygon style="fill:#FFA800;" points="220.867,237.95 246.467,237.95 246.467,186.75 220.867,186.75 	"/>
	<g>
		<polygon style="fill:#FFFFFF;" points="24.6,417.15 50.2,417.15 50.2,237.95 24.6,237.95 		"/>
		<polygon style="fill:#FFFFFF;" points="41.667,468.35 58.733,468.35 58.733,417.15 41.667,417.15 		"/>
		<polygon style="fill:#FFFFFF;" points="7.533,237.95 33.133,237.95 33.133,186.75 7.533,186.75 		"/>
	</g>
	<polygon style="fill:#63D3FD;" points="84.333,314.75 169.667,314.75 169.667,280.617 84.333,280.617 	"/>
	<polygon style="fill:#3DB9F9;" points="144.067,314.75 169.667,314.75 169.667,280.617 144.067,280.617 	"/>
	<g>
		<path style="fill:#FFE100;" d="M133.827,91.177c-10.24,10.24-23.893,12.8-29.867,5.973c-6.827-6.827-4.267-20.48,5.973-29.867
			c10.24-10.24,23.893-12.8,29.867-5.973C146.627,67.284,144.067,80.937,133.827,91.177"/>
		<path style="fill:#FFE100;" d="M109.933,67.284c-10.24,10.24-23.893,12.8-29.867,5.973c-7.68-6.827-4.267-20.48,5.12-30.72
			c10.24-10.24,23.893-12.8,29.867-5.973C122.733,43.39,119.32,57.044,109.933,67.284"/>
		<path style="fill:#FFE100;" d="M359.107,467.497c10.24,10.24,23.893,12.8,29.867,5.973c6.827-6.827,4.267-20.48-5.973-29.867
			c-10.24-10.24-23.893-12.8-29.867-5.973C346.307,443.604,348.867,457.257,359.107,467.497"/>
		<path style="fill:#FFE100;" d="M383,442.75c10.24,10.24,23.893,12.8,29.867,5.973c6.827-6.827,4.267-20.48-5.973-29.867
			c-10.24-10.24-23.893-12.8-29.867-5.973C370.2,419.71,373.613,433.364,383,442.75"/>
	</g>
	<path d="M75.8,476.884H41.667c-5.12,0-8.533-3.413-8.533-8.533v-51.2c0-5.12,3.413-8.533,8.533-8.533H75.8
		c5.12,0,8.533,3.413,8.533,8.533v51.2C84.333,473.47,80.92,476.884,75.8,476.884z M50.2,459.817h17.067v-34.133H50.2V459.817z"/>
	<path d="M212.333,476.884H178.2c-5.12,0-8.533-3.413-8.533-8.533v-51.2c0-5.12,3.413-8.533,8.533-8.533h34.133
		c5.12,0,8.533,3.413,8.533,8.533v51.2C220.867,473.47,217.453,476.884,212.333,476.884z M186.733,459.817H203.8v-34.133h-17.067
		V459.817z"/>
	<path d="M229.4,425.684H24.6c-5.12,0-8.533-3.413-8.533-8.533v-179.2c0-5.12,3.413-8.533,8.533-8.533h204.8
		c5.12,0,8.533,3.413,8.533,8.533v179.2C237.933,422.27,234.52,425.684,229.4,425.684z M33.133,408.617h187.733V246.484H33.133
		V408.617z"/>
	<path d="M246.467,246.484H7.533c-5.12,0-8.533-3.413-8.533-8.533v-51.2c0-5.12,3.413-8.533,8.533-8.533h238.933
		c5.12,0,8.533,3.413,8.533,8.533v51.2C255,243.07,251.587,246.484,246.467,246.484z M16.067,229.417h221.867v-34.133H16.067
		V229.417z"/>
	<path d="M348.867,357.417h-34.133c-5.12,0-8.533-3.413-8.533-8.533v-51.2c0-5.12,3.413-8.533,8.533-8.533h34.133
		c5.12,0,8.533,3.413,8.533,8.533v51.2C357.4,354.004,353.987,357.417,348.867,357.417z M323.267,340.35h17.067v-34.133h-17.067
		V340.35z"/>
	<path d="M468.333,357.417H434.2c-5.12,0-8.533-3.413-8.533-8.533v-51.2c0-5.12,3.413-8.533,8.533-8.533h34.133
		c5.12,0,8.533,3.413,8.533,8.533v51.2C476.867,354.004,473.453,357.417,468.333,357.417z M442.733,340.35H459.8v-34.133h-17.067
		V340.35z"/>
	<path d="M485.4,306.217H297.667c-5.12,0-8.533-3.413-8.533-8.533v-179.2c0-5.12,3.413-8.533,8.533-8.533H485.4
		c5.12,0,8.533,3.413,8.533,8.533v179.2C493.933,302.804,490.52,306.217,485.4,306.217z M306.2,289.15h170.667V127.017H306.2V289.15
		z"/>
	<path d="M502.467,127.017H280.6c-5.12,0-8.533-3.413-8.533-8.533V75.817c0-5.12,3.413-8.533,8.533-8.533h221.867
		c5.12,0,8.533,3.413,8.533,8.533v42.667C511,123.604,507.587,127.017,502.467,127.017z M289.133,109.95h204.8v-25.6h-204.8V109.95z
		"/>
	<path d="M169.667,323.284H84.333c-5.12,0-8.533-3.413-8.533-8.533v-34.133c0-5.12,3.413-8.533,8.533-8.533h85.333
		c5.12,0,8.533,3.413,8.533,8.533v34.133C178.2,319.87,174.787,323.284,169.667,323.284z M92.867,306.217h68.267V289.15H92.867
		V306.217z"/>
	<path d="M434.2,203.817h-85.333c-5.12,0-8.533-3.413-8.533-8.533V161.15c0-5.12,3.413-8.533,8.533-8.533H434.2
		c5.12,0,8.533,3.413,8.533,8.533v34.133C442.733,200.404,439.32,203.817,434.2,203.817z M357.4,186.75h68.267v-17.067H357.4V186.75
		z"/>
	<path d="M79.213,105.684c-2.56,0-4.267-0.853-5.973-2.56c-3.413-3.413-3.413-8.533,0-11.947l60.587-60.587
		c3.413-3.413,8.533-3.413,11.947,0s3.413,8.533,0,11.947l-60.587,60.587C83.48,104.83,81.773,105.684,79.213,105.684z"/>
	<path d="M113.347,109.097c-5.973,0-11.947-1.707-15.36-5.973c-5.973-5.12-7.68-12.8-5.973-21.333
		c1.707-7.68,5.973-14.507,11.947-20.48c12.8-12.8,32.427-16.213,41.813-5.973c10.24,10.24,7.68,29.013-5.973,42.667
		C132.12,104.83,122.733,109.097,113.347,109.097z M130.413,65.577c-3.413,0-9.387,1.707-14.507,6.827
		c-3.413,3.413-5.973,7.68-6.827,11.947c-0.853,2.56,0,5.12,0.853,5.973c0.853,0.853,2.56,0.853,3.413,0.853
		c3.413,0,9.387-1.707,14.507-6.827c7.68-7.68,8.533-15.36,5.973-17.92C132.973,66.43,131.267,65.577,130.413,65.577z"/>
	<path d="M89.453,85.204c-5.973,0-11.947-1.707-15.36-5.973c-5.973-5.12-7.68-13.653-5.973-21.333
		c0.853-7.68,5.12-15.36,11.093-21.333c12.8-12.8,32.427-16.213,41.813-5.973c10.24,10.24,7.68,29.013-5.973,41.813
		C108.227,80.937,97.987,85.204,89.453,85.204z M105.667,41.684c-3.413,0-9.387,1.707-14.507,6.827
		c-3.413,4.267-5.973,8.533-6.827,11.947c0,3.413,0,5.12,0.853,6.827c0.853,0.853,2.56,0.853,3.413,0.853
		c3.413,0,9.387-1.707,14.507-6.827c7.68-7.68,8.533-15.36,5.973-17.92C109.08,41.684,107.373,41.684,105.667,41.684z"/>
	<path d="M413.72,482.004c-2.56,0-4.267-0.853-5.973-2.56l-60.587-60.587c-3.413-3.413-3.413-8.533,0-11.947
		c3.413-3.413,8.533-3.413,11.947,0l60.587,60.587c3.413,3.413,3.413,8.533,0,11.947C417.987,481.15,415.427,482.004,413.72,482.004
		z"/>
	<path d="M379.587,485.417L379.587,485.417c-9.387,0-18.773-4.267-26.453-11.947c-13.653-13.653-16.213-32.427-5.973-42.667
		c10.24-10.24,29.013-6.827,41.813,5.973c5.973,5.973,10.24,13.653,11.947,20.48c1.707,8.533,0,16.213-5.973,21.333
		C391.533,483.71,385.56,485.417,379.587,485.417z M362.52,441.897c-0.853,0-2.56,0-3.413,0.853
		c-2.56,2.56-1.707,11.093,5.973,17.92c5.12,5.12,11.093,6.827,14.507,6.827l0,0c0.853,0,2.56,0,3.413-0.853
		c0.853-0.853,1.707-3.413,0.853-5.973c-0.853-4.267-3.413-8.533-6.827-11.947C371.907,443.604,365.933,441.897,362.52,441.897z"/>
	<path d="M403.48,461.524L403.48,461.524c-9.387,0-18.773-4.267-26.453-11.947c-13.653-13.653-16.213-32.427-5.973-42.667
		c10.24-10.24,29.013-6.827,42.667,5.973c13.653,13.653,16.213,32.427,5.973,41.813C415.427,458.964,410.307,461.524,403.48,461.524
		z M387.267,418.004c-0.853,0-2.56,0-3.413,0.853c-2.56,2.56-1.707,11.093,5.973,17.92c5.12,5.12,11.093,6.827,14.507,6.827l0,0
		c0.853,0,2.56,0,3.413-0.853c2.56-2.56,1.707-11.093-5.973-17.92C395.8,419.71,390.68,418.004,387.267,418.004z"/>
</g>
</svg>