<?xml version="1.0" encoding="iso-8859-1"?>
<!-- Uploaded to: SVG Repo, www.svgrepo.com, Generator: SVG Repo Mixer Tools -->
<svg fill="#000000" height="800px" width="800px" version="1.1" id="Layer_1" xmlns="http://www.w3.org/2000/svg" xmlns:xlink="http://www.w3.org/1999/xlink" 
	 viewBox="0 0 512 512" xml:space="preserve">
<g>
	<g>
		<g>
			<path d="M409.908,273.067c0-18.381-11.75-33.937-28.075-39.927c6.767-7.561,11.008-17.425,11.008-28.339
				c0-23.526-19.14-42.667-42.667-42.667h-6.502c4.096-6.11,6.502-13.44,6.502-21.333c0-21.171-17.229-38.4-38.4-38.4h-46.933V8.533
				c0-4.71-3.823-8.533-8.533-8.533c-4.71,0-8.533,3.823-8.533,8.533V102.4h-46.933c-21.171,0-38.4,17.229-38.4,38.4
				c0,7.893,2.406,15.224,6.502,21.333h-6.502c-23.526,0-42.667,19.14-42.667,42.667c0,10.914,4.241,20.779,11.008,28.339
				c-16.324,5.99-28.075,21.547-28.075,39.927c0,14.003,6.878,26.351,17.331,34.133c-10.453,7.782-17.331,20.13-17.331,34.133
				c0,18.381,11.75,33.937,28.075,39.927c-6.767,7.561-11.008,17.425-11.008,28.339c0,23.526,19.14,42.667,42.667,42.667h6.502
				c-4.096,6.11-6.502,13.44-6.502,21.333c0,21.171,17.229,38.4,38.4,38.4h110.933c21.171,0,38.4-17.229,38.4-38.4
				c0-7.893-2.406-15.224-6.502-21.333h6.502c23.526,0,42.667-19.14,42.667-42.667c0-10.914-4.241-20.779-11.008-28.339
				c16.324-5.99,28.075-21.547,28.075-39.927c0-14.003-6.878-26.351-17.331-34.133C403.03,299.418,409.908,287.07,409.908,273.067z
				 M162.441,179.2h38.4h110.933h38.4c14.114,0,25.6,11.486,25.6,25.6s-11.486,25.6-25.6,25.6H162.441
				c-14.114,0-25.6-11.486-25.6-25.6S148.327,179.2,162.441,179.2z M290.441,315.733v51.2h-68.267v-51.2
				c0-2.287,0.23-4.582,0.691-6.827v-0.009c0.043-0.205,0.128-0.384,0.179-0.589c0.418-1.894,0.981-3.746,1.707-5.513
				c0.265-0.623,0.606-1.186,0.905-1.792c0.614-1.28,1.263-2.552,2.031-3.738c0.427-0.666,0.922-1.28,1.399-1.903
				c0.759-1.015,1.544-2.005,2.415-2.927c0.597-0.632,1.229-1.229,1.877-1.809c0.862-0.794,1.766-1.545,2.714-2.244
				c0.734-0.546,1.485-1.075,2.27-1.553c0.981-0.614,2.014-1.152,3.055-1.664c0.819-0.401,1.63-0.811,2.483-1.152
				c1.203-0.469,2.458-0.819,3.721-1.152c0.759-0.205,1.502-0.461,2.278-0.614c2.082-0.401,4.215-0.648,6.409-0.648
				c2.193,0,4.326,0.247,6.409,0.648c0.777,0.154,1.519,0.41,2.278,0.614c1.263,0.333,2.517,0.683,3.721,1.152
				c0.853,0.341,1.655,0.751,2.475,1.143c1.05,0.521,2.091,1.058,3.072,1.673c0.776,0.486,1.519,1.007,2.253,1.545
				c0.956,0.708,1.869,1.459,2.739,2.261c0.632,0.58,1.263,1.161,1.852,1.784c0.879,0.939,1.681,1.946,2.449,2.978
				c0.461,0.614,0.947,1.203,1.365,1.852c0.794,1.22,1.459,2.526,2.091,3.84c0.273,0.572,0.606,1.101,0.845,1.69
				c0.768,1.86,1.382,3.806,1.809,5.828c0.017,0.094,0.068,0.179,0.085,0.273C290.202,311.1,290.441,313.387,290.441,315.733z
				 M162.441,366.933h-17.067c-14.114,0-25.6-11.486-25.6-25.6s11.486-25.6,25.6-25.6h59.733v51.2H162.441z M311.775,494.933
				H200.841c-11.759,0-21.333-9.574-21.333-21.333s9.574-21.333,21.333-21.333h110.933c11.759,0,21.333,9.574,21.333,21.333
				S323.534,494.933,311.775,494.933z M392.841,341.333c0,14.114-11.486,25.6-25.6,25.6h-17.067h-42.667v-51.2h59.733
				C381.356,315.733,392.841,327.219,392.841,341.333z"/>
			<path d="M79.935,179.286l7.467-7.467c3.337-3.328,3.337-8.73,0-12.066c-3.328-3.337-8.73-3.337-12.066,0l-7.509,7.509
				c-1.033-2.807-2.466-5.41-4.557-7.509c-5.231-5.231-13.056-7.27-21.547-5.564c-7.33,1.468-14.677,5.589-20.693,11.605
				C15.022,171.802,10.9,179.15,9.433,186.48c-1.698,8.465,0.333,16.316,5.564,21.547c2.082,2.082,4.608,3.635,7.398,4.668
				l-7.398,7.398c-3.337,3.337-3.337,8.738,0,12.066c1.664,1.672,3.849,2.5,6.033,2.5c2.185,0,4.369-0.828,6.033-2.5l7.467-7.467
				c1.024,2.765,2.466,5.333,4.608,7.467c4.147,4.156,9.702,6.17,15.744,6.17c8.738,0,18.492-4.207,26.487-12.203
				c13.534-13.534,16.188-32.085,6.033-42.24C85.269,181.752,82.691,180.31,79.935,179.286z M33.19,196.856
				c-2.714,0.546-5.018,0.213-6.127-0.896c-1.109-1.109-1.442-3.396-0.896-6.127c0.802-4.011,3.328-8.371,6.929-11.972
				c3.61-3.61,7.97-6.135,11.981-6.938c0.862-0.171,1.681-0.256,2.423-0.256c1.63,0,2.944,0.393,3.703,1.152
				c1.101,1.109,1.442,3.405,0.896,6.127c-0.802,4.011-3.328,8.371-6.929,11.981C41.561,193.528,37.2,196.054,33.19,196.856z
				 M69.303,214.06c-7.373,7.364-15.65,8.508-18.099,6.033c-2.458-2.458-1.331-10.735,6.033-18.099
				c5.094-5.094,10.633-7.202,14.37-7.202c1.664,0,2.97,0.41,3.729,1.169C77.793,198.418,76.667,206.695,69.303,214.06z"/>
			<path d="M497.004,449.04c-2.133-2.142-4.702-3.584-7.467-4.608l7.467-7.458c3.337-3.337,3.337-8.738,0-12.066
				c-3.337-3.337-8.73-3.337-12.066,0l-7.467,7.458c-1.015-2.756-2.466-5.325-4.599-7.458c-5.231-5.239-13.073-7.27-21.547-5.572
				c-7.33,1.468-14.677,5.589-20.693,11.605c-13.534,13.534-16.188,32.077-6.033,42.24c2.125,2.125,4.634,3.669,7.373,4.693
				l-7.373,7.373c-3.337,3.328-3.337,8.73,0,12.066c1.664,1.664,3.849,2.5,6.033,2.5c2.185,0,4.36-0.836,6.033-2.5l7.467-7.467
				c1.016,2.756,2.466,5.333,4.599,7.467c4.156,4.147,9.711,6.161,15.753,6.161c8.738,0,18.492-4.198,26.487-12.203
				c6.016-6.008,10.138-13.363,11.597-20.685C504.265,462.122,502.234,454.263,497.004,449.04z M436.664,461.106
				c-2.458-2.458-1.331-10.735,6.033-18.099c3.61-3.61,7.97-6.135,11.981-6.929c0.862-0.179,1.673-0.265,2.423-0.265
				c1.63,0,2.944,0.401,3.695,1.161c2.458,2.458,1.34,10.735-6.033,18.099C447.399,462.446,439.122,463.573,436.664,461.106z
				 M485.833,467.233c-0.802,4.011-3.328,8.371-6.929,11.972c-7.364,7.364-15.642,8.508-18.099,6.042
				c-2.466-2.466-1.34-10.735,6.025-18.108c5.103-5.094,10.641-7.202,14.379-7.202c1.664,0,2.97,0.418,3.729,1.178
				C486.047,462.216,486.38,464.511,485.833,467.233z"/>
			<path d="M429.356,87.717c3.328-3.336,3.328-8.738,0-12.075l-7.381-7.373c2.748-1.024,5.257-2.569,7.381-4.693
				c10.146-10.155,7.492-28.706-6.042-42.24c-6.007-6.007-13.363-10.129-20.693-11.597c-8.457-1.69-16.316,0.333-21.538,5.564
				c-2.142,2.142-3.584,4.71-4.599,7.467l-7.475-7.467c-3.328-3.328-8.73-3.328-12.066,0c-3.328,3.336-3.328,8.738,0,12.066
				l7.467,7.467c-2.756,1.015-5.325,2.466-7.467,4.599c-5.222,5.231-7.253,13.09-5.564,21.547
				c1.468,7.33,5.589,14.677,11.597,20.693c7.996,8.004,17.749,12.194,26.487,12.194c6.042,0,11.605-2.005,15.761-6.153
				c2.133-2.142,3.575-4.71,4.599-7.467l7.467,7.467c1.664,1.664,3.849,2.5,6.033,2.5S427.684,89.381,429.356,87.717z
				 M393.149,75.642c-2.449,2.475-10.726,1.348-18.108-6.033c-3.601-3.601-6.127-7.97-6.929-11.972
				c-0.546-2.731-0.205-5.018,0.896-6.127c0.759-0.759,2.074-1.178,3.729-1.178c3.746,0,9.276,2.116,14.379,7.211
				C394.481,64.907,395.607,73.184,393.149,75.642z M417.29,51.501c-2.475,2.458-10.752,1.331-18.108-6.025
				c-7.364-7.364-8.491-15.642-6.033-18.108c0.759-0.759,2.074-1.152,3.695-1.152c0.751,0,1.57,0.085,2.432,0.256
				c4.002,0.802,8.371,3.328,11.972,6.929C418.613,40.775,419.748,49.052,417.29,51.501z"/>
		</g>
	</g>
</g>
</svg>