<?xml version="1.0" encoding="iso-8859-1"?>
<!-- Uploaded to: SVG Repo, www.svgrepo.com, Generator: SVG Repo Mixer Tools -->
<svg height="800px" width="800px" version="1.1" id="Layer_1" xmlns="http://www.w3.org/2000/svg" xmlns:xlink="http://www.w3.org/1999/xlink" 
	 viewBox="0 0 512 512" xml:space="preserve">
<g transform="translate(1 1)">
	<g>
		<path style="fill:#FDCC00;" d="M425.667,391.533H84.333c-9.387,0-17.067-7.68-17.067-17.067s7.68-17.067,17.067-17.067h341.333
			c9.387,0,17.067,7.68,17.067,17.067S435.053,391.533,425.667,391.533"/>
		<path style="fill:#FDCC00;" d="M383,84.333H127c-9.387,0-17.067-7.68-17.067-17.067S117.613,50.2,127,50.2h256
			c9.387,0,17.067,7.68,17.067,17.067S392.387,84.333,383,84.333"/>
		<path style="fill:#FDCC00;" d="M425.667,229.4H84.333c-9.387,0-17.067-7.68-17.067-17.067s7.68-17.067,17.067-17.067h341.333
			c9.387,0,17.067,7.68,17.067,17.067S435.053,229.4,425.667,229.4"/>
	</g>
	<g>
		<path style="fill:#FFA800;" d="M425.667,195.267h-25.6c9.387,0,17.067,7.68,17.067,17.067s-7.68,17.067-17.067,17.067h25.6
			c9.387,0,17.067-7.68,17.067-17.067S435.053,195.267,425.667,195.267"/>
		<path style="fill:#FFA800;" d="M383,50.2h-25.6c9.387,0,17.067,7.68,17.067,17.067s-7.68,17.067-17.067,17.067H383
			c9.387,0,17.067-7.68,17.067-17.067S392.387,50.2,383,50.2"/>
		<path style="fill:#FFA800;" d="M425.667,357.4h-25.6c9.387,0,17.067,7.68,17.067,17.067s-7.68,17.067-17.067,17.067h25.6
			c9.387,0,17.067-7.68,17.067-17.067S435.053,357.4,425.667,357.4"/>
	</g>
	<g>
		<path style="fill:#FFFFFF;" d="M84.333,195.267h25.6c-9.387,0-17.067,7.68-17.067,17.067s7.68,17.067,17.067,17.067h-25.6
			c-9.387,0-17.067-7.68-17.067-17.067S74.947,195.267,84.333,195.267"/>
		<path style="fill:#FFFFFF;" d="M127,50.2h25.6c-9.387,0-17.067,7.68-17.067,17.067s7.68,17.067,17.067,17.067H127
			c-9.387,0-17.067-7.68-17.067-17.067S117.613,50.2,127,50.2"/>
		<path style="fill:#FFFFFF;" d="M84.333,357.4h25.6c-9.387,0-17.067,7.68-17.067,17.067s7.68,17.067,17.067,17.067h-25.6
			c-9.387,0-17.067-7.68-17.067-17.067S74.947,357.4,84.333,357.4"/>
	</g>
	<path style="fill:#FDCC00;" d="M280.6,50.2h-68.267l-4.267-19.627c-1.707-11.947,6.827-23.04,18.773-23.04h38.4
		c11.947,0,21.333,11.093,18.773,23.04L280.6,50.2z"/>
	<path style="fill:#FFA800;" d="M260.973,7.533H239.64c11.947,0,21.333,11.093,18.773,23.04L255,50.2h21.333l4.267-19.627
		C282.307,18.627,273.773,7.533,260.973,7.533"/>
	<g>
		<path style="fill:#FFE100;" d="M417.133,195.267C404.333,127.853,383,84.333,383,84.333H127c0,0-21.333,43.52-34.133,110.933
			H417.133z"/>
		<path style="fill:#FFE100;" d="M421.4,357.4c5.973-46.08,5.12-89.6,0-128H87.747c-5.12,38.4-5.973,81.92,0,128H421.4z"/>
		<path style="fill:#FFE100;" d="M94.573,391.533c7.68,36.693,21.333,73.387,40.96,110.933h238.933
			c20.48-37.547,33.28-74.24,40.96-110.933H94.573z"/>
	</g>
	<g>
		<path style="fill:#FFA800;" d="M383,84.333h-25.6c0,0,21.333,43.52,34.133,110.933h25.6C403.48,127.853,383,84.333,383,84.333"/>
		<path style="fill:#FFA800;" d="M421.4,229.4h-25.6c5.12,38.4,5.973,81.92,0,128h25.6C427.373,311.32,426.52,267.8,421.4,229.4"/>
		<path style="fill:#FFA800;" d="M388.973,391.533c-7.68,36.693-21.333,73.387-40.96,110.933h25.6
			c20.48-37.547,33.28-74.24,40.96-110.933H388.973z"/>
	</g>
	<g>
		<path style="fill:#FFFFFF;" d="M127,84.333h25.6c0,0-21.333,43.52-34.133,110.933h-25.6C105.667,127.853,127,84.333,127,84.333"/>
		<path style="fill:#FFFFFF;" d="M87.747,229.4h25.6c-5.12,38.4-5.973,81.92,0,128h-25.6C81.773,311.32,82.627,267.8,87.747,229.4"
			/>
		<path style="fill:#FFFFFF;" d="M120.173,391.533c7.68,36.693,21.333,73.387,40.96,110.933h-25.6
			c-20.48-37.547-33.28-74.24-40.96-110.933H120.173z"/>
	</g>
	<g>
		<path style="fill:#FDCC00;" d="M330.947,195.267c-12.8-67.413-34.133-110.933-34.133-110.933h-84.48
			c0,0-21.333,43.52-34.133,110.933H330.947z"/>
		<path style="fill:#FDCC00;" d="M336.067,357.4c5.973-46.08,5.12-89.6,0-128H173.933c-5.12,38.4-5.973,81.92,0,128H336.067z"/>
		<path style="fill:#FDCC00;" d="M179.907,391.533c7.68,36.693,21.333,73.387,40.96,110.933h68.267
			c20.48-37.547,33.28-74.24,40.96-110.933H179.907z"/>
	</g>
	<path d="M383,92.867H127c-14.507,0-25.6-11.093-25.6-25.6s11.093-25.6,25.6-25.6h256c14.507,0,25.6,11.093,25.6,25.6
		S397.507,92.867,383,92.867z M127,58.733c-5.12,0-8.533,3.413-8.533,8.533S121.88,75.8,127,75.8h256
		c5.12,0,8.533-3.413,8.533-8.533s-3.413-8.533-8.533-8.533H127z"/>
	<path d="M425.667,237.933H84.333c-14.507,0-25.6-11.093-25.6-25.6s11.093-25.6,25.6-25.6h341.333c14.507,0,25.6,11.093,25.6,25.6
		S440.173,237.933,425.667,237.933z M84.333,203.8c-5.12,0-8.533,3.413-8.533,8.533c0,5.12,3.413,8.533,8.533,8.533h341.333
		c5.12,0,8.533-3.413,8.533-8.533c0-5.12-3.413-8.533-8.533-8.533H84.333z"/>
	<path d="M425.667,400.067H84.333c-14.507,0-25.6-11.093-25.6-25.6c0-14.507,11.093-25.6,25.6-25.6h341.333
		c14.507,0,25.6,11.093,25.6,25.6C451.267,388.973,440.173,400.067,425.667,400.067z M84.333,365.933
		c-5.12,0-8.533,3.413-8.533,8.533c0,5.12,3.413,8.533,8.533,8.533h341.333c5.12,0,8.533-3.413,8.533-8.533
		c0-5.12-3.413-8.533-8.533-8.533H84.333z"/>
	<path d="M287.427,58.733h-81.92l-5.12-26.453c-1.707-8.533,0.853-16.213,5.973-23.04C211.48,2.413,219.16-1,226.84-1h38.4
		c8.533,0,16.213,3.413,21.333,10.24c5.12,6.827,7.68,14.507,5.973,23.04L287.427,58.733z M219.16,41.667h54.613l2.56-12.8
		c0.853-3.413,0-5.973-2.56-8.533c-1.707-2.56-5.12-4.267-7.68-4.267h-38.4c-3.413,0-5.973,1.707-8.533,4.267
		s-2.56,5.973-2.56,8.533L219.16,41.667z"/>
	<path d="M427.373,203.8H82.627l1.707-10.24c12.8-67.413,33.28-110.933,34.133-112.64l3.413-5.12h267.093l2.56,5.12
		c0.853,1.707,21.333,46.08,34.133,112.64L427.373,203.8z M103.96,186.733h302.933C396.653,139.8,383,104.813,377.88,92.867H132.12
		C127,104.813,113.347,139.8,103.96,186.733z"/>
	<path d="M429.08,365.933H80.92l-0.853-7.68c-5.973-41.813-5.973-85.333-0.853-130.56l0.853-6.827H429.08l0.853,7.68
		c5.12,44.373,5.12,87.893-0.853,130.56V365.933z M95.427,348.867H413.72c4.267-35.84,4.267-73.387,0-110.933H95.427
		C91.16,275.48,91.16,313.027,95.427,348.867z"/>
	<path d="M379.587,511H130.413l-2.56-4.267c-18.773-34.987-33.28-73.387-41.813-113.493L83.48,383h342.187l-2.56,10.24
		c-8.533,40.107-23.04,77.653-41.813,113.493L379.587,511z M140.653,493.933h228.693c15.36-29.867,27.307-61.44,35.84-93.867
		H104.813C113.347,432.493,125.293,464.067,140.653,493.933z"/>
	<path d="M341.187,203.8H168.813l1.707-10.24c12.8-67.413,33.28-110.933,34.133-112.64l2.56-5.12h95.573l2.56,5.12
		C306.2,82.627,326.68,127,339.48,193.56L341.187,203.8z M189.293,186.733h131.413c-10.24-46.933-23.893-81.92-29.013-93.867
		h-73.387C213.187,104.813,199.533,139.8,189.293,186.733z"/>
	<path d="M343.747,365.933H166.253l-0.853-7.68c-5.973-41.813-5.973-85.333,0-130.56l0.853-7.68h177.493l0.853,7.68
		c5.12,44.373,5.12,87.893-0.853,130.56V365.933z M181.613,348.867h146.773c4.267-35.84,4.267-73.387,0-110.933H181.613
		C177.347,275.48,177.347,313.027,181.613,348.867z"/>
	<path d="M293.4,511h-77.653l-2.56-4.267c-18.773-34.987-33.28-73.387-41.813-113.493L169.667,383h170.667l-2.56,10.24
		c-8.533,39.253-23.04,77.653-41.813,113.493L293.4,511z M225.987,493.933h57.173c15.36-29.867,27.307-61.44,35.84-93.867H191
		C198.68,432.493,210.627,464.067,225.987,493.933z"/>
</g>
</svg>