<?xml version="1.0" encoding="iso-8859-1"?>
<!-- Uploaded to: SVG Repo, www.svgrepo.com, Generator: SVG Repo Mixer Tools -->
<svg fill="#000000" height="800px" width="800px" version="1.1" id="Layer_1" xmlns="http://www.w3.org/2000/svg" xmlns:xlink="http://www.w3.org/1999/xlink" 
	 viewBox="0 0 512.003 512.003" xml:space="preserve">
<g>
	<g>
		<g>
			<path d="M392.811,307.202c10.373-7.791,17.095-20.191,17.095-34.132c0-18.305-11.589-33.95-27.813-39.995
				c6.681-7.534,10.749-17.434,10.749-28.272c0-23.526-19.14-42.667-42.667-42.667h-6.49c4.096-6.106,6.49-13.445,6.49-21.333
				c0-21.171-17.229-38.4-38.4-38.4h-46.933V8.533c0-4.71-3.823-8.533-8.533-8.533c-4.71,0-8.533,3.823-8.533,8.533v93.869h-46.933
				c-21.171,0-38.4,17.229-38.4,38.4c0,7.888,2.394,15.227,6.49,21.333h-6.49c-23.526,0-42.667,19.14-42.667,42.667
				c0,10.837,4.068,20.737,10.748,28.27c-16.226,6.044-27.817,21.69-27.817,39.997c0,13.943,6.724,26.344,17.098,34.134
				c-10.372,7.791-17.095,20.191-17.095,34.132c0,18.305,11.59,33.951,27.815,39.996c-6.68,7.534-10.749,17.434-10.749,28.271
				c0,23.526,19.14,42.667,42.667,42.667h6.49c-4.096,6.106-6.49,13.445-6.49,21.333c0,21.171,17.229,38.4,38.4,38.4h110.933
				c21.171,0,38.4-17.229,38.4-38.4c0-7.888-2.394-15.227-6.49-21.333h6.49c23.526,0,42.667-19.14,42.667-42.667
				c0-10.837-4.068-20.737-10.749-28.271c16.225-6.045,27.815-21.69,27.815-39.996C409.908,327.393,403.185,314.992,392.811,307.202
				z M179.508,140.803c0-11.759,9.574-21.333,21.333-21.333h110.933c11.759,0,21.333,9.574,21.333,21.333
				c0,11.759-9.574,21.333-21.333,21.333H200.842C189.083,162.136,179.508,152.562,179.508,140.803z M162.442,179.203h38.4h110.933
				h38.4c14.114,0,25.6,11.486,25.6,25.6s-11.486,25.6-25.6,25.6H162.442c-14.114,0-25.6-11.486-25.6-25.6
				S148.327,179.203,162.442,179.203z M145.372,298.669c-14.114,0-25.6-11.486-25.6-25.6c0-14.114,11.486-25.6,25.6-25.6h17.069
				h187.733h17.064c14.123,0,25.6,11.486,25.6,25.6c0,14.114-11.477,25.6-25.6,25.6h-62.652c-0.043-0.123-0.093-0.242-0.137-0.365
				c-0.057-0.157-0.118-0.312-0.176-0.468c-0.221-0.591-0.452-1.177-0.694-1.758c-0.067-0.16-0.133-0.319-0.202-0.478
				c-0.268-0.624-0.547-1.241-0.838-1.851c-0.042-0.088-0.082-0.177-0.124-0.265c-0.685-1.413-1.432-2.788-2.239-4.122
				c-0.097-0.16-0.197-0.318-0.296-0.477c-0.296-0.478-0.598-0.95-0.909-1.417c-0.142-0.214-0.285-0.427-0.43-0.638
				c-0.279-0.406-0.566-0.806-0.856-1.203c-0.168-0.23-0.333-0.463-0.505-0.69c-0.296-0.391-0.602-0.774-0.909-1.156
				c-0.422-0.526-0.854-1.042-1.296-1.551c-0.14-0.161-0.278-0.325-0.42-0.485c-0.357-0.401-0.723-0.794-1.092-1.184
				c-0.091-0.096-0.182-0.192-0.273-0.287c-7.836-8.147-18.332-13.708-30.082-15.275c-0.356-0.048-0.712-0.096-1.07-0.136
				c-0.361-0.04-0.723-0.076-1.086-0.109c-0.474-0.043-0.949-0.079-1.426-0.109c-0.288-0.018-0.575-0.039-0.865-0.052
				c-0.778-0.036-1.559-0.059-2.344-0.059c-0.003,0-0.006,0-0.01,0c0,0-0.001,0-0.001,0c0,0-0.001,0-0.001,0
				c-0.791,0-1.577,0.024-2.36,0.06c-0.28,0.013-0.559,0.033-0.838,0.05c-0.49,0.031-0.979,0.067-1.465,0.112
				c-0.35,0.032-0.7,0.066-1.048,0.105c-0.381,0.043-0.76,0.094-1.139,0.145c-1.724,0.232-3.42,0.548-5.086,0.947
				c-0.01,0.003-0.021,0.005-0.031,0.007c-9.709,2.334-18.343,7.438-25.026,14.431c-0.004,0.004-0.008,0.009-0.012,0.013
				c-1.651,1.729-3.182,3.571-4.58,5.516c-0.181,0.251-0.361,0.501-0.537,0.755c-0.222,0.321-0.44,0.645-0.655,0.971
				c-0.213,0.323-0.421,0.649-0.626,0.976c-0.181,0.289-0.363,0.576-0.538,0.868c-0.279,0.466-0.549,0.938-0.814,1.413
				c-0.095,0.17-0.195,0.336-0.288,0.508c-0.349,0.643-0.681,1.296-1.003,1.955c-0.111,0.228-0.215,0.459-0.323,0.689
				c-0.217,0.462-0.428,0.926-0.632,1.395c-0.113,0.261-0.223,0.523-0.332,0.786c-0.19,0.461-0.373,0.926-0.55,1.393
				c-0.097,0.255-0.196,0.509-0.289,0.767c-0.033,0.091-0.07,0.179-0.102,0.27h-62.658H145.372z M222.175,366.936v-51.2
				c0-0.578,0.015-1.151,0.044-1.722c0.087-1.714,0.302-3.423,0.647-5.105c0.004-0.019,0.005-0.037,0.008-0.056
				c0.031-0.154,0.07-0.304,0.104-0.457c0.079-0.359,0.158-0.718,0.248-1.073c0.045-0.179,0.097-0.354,0.145-0.531
				c0.095-0.349,0.191-0.697,0.296-1.041c0.05-0.165,0.105-0.328,0.158-0.492c0.115-0.355,0.233-0.709,0.359-1.059
				c0.054-0.149,0.109-0.297,0.165-0.445c0.137-0.365,0.28-0.728,0.429-1.087c0.054-0.129,0.107-0.258,0.163-0.386
				c0.164-0.38,0.335-0.757,0.512-1.13c0.05-0.104,0.098-0.21,0.148-0.313c0.199-0.408,0.406-0.812,0.621-1.211
				c0.035-0.066,0.069-0.133,0.105-0.199c0.517-0.947,1.076-1.867,1.678-2.757c0.023-0.034,0.048-0.067,0.071-0.1
				c0.262-0.385,0.533-0.765,0.81-1.139c0.125-0.167,0.254-0.331,0.382-0.496c0.178-0.231,0.357-0.461,0.54-0.687
				c0.175-0.215,0.354-0.426,0.534-0.636c0.138-0.162,0.277-0.323,0.418-0.483c0.218-0.246,0.44-0.489,0.665-0.728
				c0.099-0.106,0.2-0.211,0.3-0.315c0.268-0.278,0.539-0.553,0.816-0.821c0.039-0.038,0.079-0.075,0.119-0.113
				c4.446-4.267,10.02-7.325,16.158-8.714c0.049-0.011,0.097-0.023,0.146-0.034c0.382-0.085,0.767-0.16,1.154-0.231
				c0.154-0.028,0.309-0.057,0.464-0.083c0.327-0.056,0.656-0.107,0.986-0.153c0.229-0.032,0.459-0.06,0.689-0.088
				c0.279-0.033,0.557-0.066,0.837-0.093c0.314-0.029,0.63-0.051,0.946-0.072c0.212-0.014,0.424-0.032,0.637-0.042
				c0.541-0.026,1.084-0.041,1.631-0.041c0.006,0,0.012,0,0.019,0c0.539,0,1.074,0.016,1.607,0.041
				c0.224,0.011,0.447,0.029,0.67,0.045c0.303,0.02,0.607,0.041,0.908,0.069c0.291,0.028,0.58,0.061,0.87,0.096
				c0.218,0.026,0.436,0.053,0.653,0.083c0.34,0.048,0.68,0.1,1.017,0.158c0.143,0.024,0.285,0.05,0.427,0.076
				c0.397,0.073,0.793,0.15,1.186,0.238c0.036,0.008,0.071,0.017,0.107,0.025c6.108,1.377,11.657,4.407,16.095,8.634
				c0.087,0.083,0.176,0.165,0.262,0.25c0.236,0.229,0.467,0.464,0.696,0.701c0.147,0.152,0.293,0.304,0.437,0.459
				c0.183,0.196,0.364,0.393,0.542,0.593c0.192,0.216,0.381,0.435,0.568,0.655c0.132,0.156,0.264,0.311,0.394,0.469
				c0.25,0.307,0.495,0.619,0.735,0.935c0.064,0.084,0.13,0.166,0.193,0.251c1.289,1.73,2.42,3.586,3.367,5.546
				c0.011,0.022,0.021,0.045,0.032,0.067c0.221,0.46,0.432,0.927,0.633,1.398c0.021,0.05,0.043,0.101,0.064,0.152
				c0.188,0.446,0.366,0.898,0.535,1.353c0.025,0.067,0.05,0.133,0.074,0.2c0.163,0.448,0.316,0.902,0.461,1.358
				c0.022,0.069,0.045,0.137,0.066,0.206c0.148,0.477,0.284,0.959,0.411,1.444c0.012,0.046,0.026,0.091,0.038,0.138
				c0.137,0.534,0.262,1.072,0.374,1.615c0.002,0.011,0.003,0.023,0.005,0.034c0.345,1.694,0.561,3.413,0.648,5.127
				c0.028,0.569,0.044,1.141,0.044,1.717v51.2H222.175z M119.775,341.336c0-14.114,11.486-25.6,25.6-25.6h59.733v51.2h-42.667
				h-17.067C131.261,366.936,119.775,355.45,119.775,341.336z M333.108,473.603c0,11.759-9.574,21.333-21.333,21.333H200.842
				c-11.759,0-21.333-9.574-21.333-21.333s9.574-21.333,21.333-21.333h110.933C323.534,452.269,333.108,461.844,333.108,473.603z
				 M350.175,435.203h-38.4H200.842h-38.4c-14.114,0-25.6-11.486-25.6-25.6s11.486-25.6,25.6-25.6h51.2h85.333h51.2
				c14.114,0,25.6,11.486,25.6,25.6S364.289,435.203,350.175,435.203z M367.242,366.936h-17.067h-42.667v-51.2h59.731h0.003
				c14.114,0,25.6,11.486,25.6,25.6S381.356,366.936,367.242,366.936z"/>
			<path d="M80.032,179.194l7.369-7.369c3.337-3.337,3.337-8.738,0-12.066c-3.328-3.337-8.73-3.337-12.066,0l-7.381,7.381
				c-1.035-2.792-2.603-5.3-4.689-7.386c-5.231-5.231-13.047-7.27-21.538-5.564c-7.339,1.468-14.686,5.589-20.693,11.605
				c-6.016,6.007-10.138,13.355-11.597,20.693c-1.698,8.457,0.333,16.307,5.555,21.538c2.089,2.085,4.598,3.65,7.389,4.685
				l-7.385,7.385c-3.337,3.337-3.337,8.73,0,12.066c1.664,1.664,3.849,2.5,6.033,2.5s4.369-0.836,6.033-2.5l7.366-7.366
				c1.02,2.741,2.576,5.241,4.702,7.368c4.156,4.147,9.711,6.161,15.753,6.161c8.73,0,18.492-4.198,26.487-12.194
				c13.534-13.542,16.188-32.094,6.033-42.24C85.275,181.769,82.775,180.213,80.032,179.194z M26.17,189.835
				c0.794-4.011,3.328-8.371,6.929-11.972c3.601-3.61,7.97-6.135,11.972-6.938c0.862-0.171,1.681-0.256,2.432-0.256
				c1.63,0,2.935,0.393,3.695,1.152c1.109,1.109,1.451,3.405,0.905,6.135c-0.798,3.984-3.315,8.321-6.889,11.921
				c-0.017,0.017-0.034,0.032-0.051,0.049c-0.017,0.017-0.033,0.035-0.05,0.052c-3.591,3.574-7.937,6.09-11.92,6.88
				c-2.722,0.546-5.018,0.213-6.135-0.896C25.957,194.853,25.624,192.566,26.17,189.835z M69.304,214.067
				c-7.373,7.364-15.65,8.499-18.099,6.033c-2.457-2.448-1.336-10.672,5.946-18.024l0.079-0.079
				c0.001-0.001,0.001-0.001,0.002-0.002s0.001-0.001,0.002-0.002l0.115-0.115c5.07-5.009,10.551-7.088,14.26-7.088
				c1.664,0,2.97,0.418,3.729,1.169C77.794,198.417,76.668,206.694,69.304,214.067z"/>
			<path d="M497.007,449.047c-2.126-2.129-4.626-3.688-7.369-4.709l7.363-7.363c3.337-3.337,3.337-8.738,0-12.066
				c-3.328-3.336-8.73-3.336-12.066,0l-7.361,7.361c-1.02-2.74-2.576-5.239-4.701-7.365c-5.24-5.231-13.082-7.262-21.547-5.564
				c-7.33,1.468-14.677,5.589-20.693,11.597c-13.534,13.534-16.188,32.085-6.042,42.24c2.129,2.129,4.629,3.685,7.37,4.704
				l-7.366,7.366c-3.337,3.336-3.337,8.73,0,12.066c1.664,1.664,3.849,2.5,6.033,2.5c2.185,0,4.369-0.836,6.033-2.5l7.367-7.366
				c1.021,2.742,2.578,5.243,4.706,7.372c4.156,4.147,9.711,6.153,15.753,6.153c8.73,0,18.492-4.198,26.487-12.194
				c6.007-6.016,10.129-13.363,11.597-20.693C504.26,462.12,502.23,454.269,497.007,449.047z M436.666,461.112
				c-2.466-2.458-1.331-10.735,6.033-18.108c3.601-3.601,7.97-6.127,11.972-6.929c0.862-0.171,1.681-0.256,2.432-0.256
				c1.621,0,2.935,0.393,3.695,1.152c2.458,2.466,1.331,10.743-6.033,18.107l-0.001,0.001
				C447.401,462.452,439.124,463.578,436.666,461.112z M485.829,467.232c-0.794,4.011-3.32,8.371-6.929,11.981
				c-7.356,7.364-15.642,8.499-18.099,6.033c-2.458-2.458-1.331-10.735,6.033-18.099c5.103-5.094,10.633-7.211,14.37-7.211
				c1.664,0,2.978,0.418,3.729,1.178C486.042,462.223,486.375,464.509,485.829,467.232z"/>
			<path d="M423.32,90.215c2.185,0,4.369-0.836,6.033-2.5c3.337-3.336,3.337-8.73,0-12.066l-7.369-7.369
				c2.743-1.021,5.245-2.577,7.373-4.701c10.146-10.155,7.492-28.706-6.042-42.24c-6.016-6.007-13.363-10.129-20.693-11.597
				c-8.457-1.69-16.316,0.333-21.538,5.564c-2.128,2.128-3.685,4.627-4.706,7.369l-7.364-7.364c-3.337-3.336-8.738-3.336-12.066,0
				c-3.337,3.328-3.337,8.73,0,12.066l7.36,7.36c-2.74,1.02-5.237,2.577-7.362,4.703c-5.231,5.231-7.262,13.082-5.564,21.547
				c1.459,7.33,5.581,14.677,11.597,20.693c7.996,7.996,17.749,12.194,26.479,12.194c6.05,0,11.605-2.005,15.761-6.161
				c2.125-2.126,3.681-4.624,4.701-7.364l7.367,7.367C418.951,89.379,421.136,90.215,423.32,90.215z M393.151,27.372
				c0.759-0.759,2.074-1.152,3.695-1.152c0.751,0,1.57,0.085,2.432,0.256c4.002,0.802,8.371,3.328,11.972,6.929
				c7.364,7.373,8.499,15.65,6.042,18.099c-2.481,2.455-10.737,1.332-18.088-6.006c-0.006-0.006-0.011-0.012-0.017-0.018
				c-0.006-0.006-0.013-0.013-0.02-0.019C391.818,38.101,390.695,29.836,393.151,27.372z M393.153,75.645
				c-2.458,2.466-10.726,1.348-18.108-6.033c-3.601-3.61-6.127-7.97-6.929-11.981c-0.546-2.722-0.213-5.009,0.896-6.118
				c0.76-0.759,2.065-1.178,3.729-1.178c3.728,0,9.247,2.107,14.338,7.172l0.068,0.068
				C394.486,64.932,395.607,73.191,393.153,75.645z"/>
		</g>
	</g>
</g>
</svg>