<?xml version="1.0" encoding="iso-8859-1"?>
<!-- Uploaded to: SVG Repo, www.svgrepo.com, Generator: SVG Repo Mixer Tools -->
<svg fill="#000000" height="800px" width="800px" version="1.1" id="Layer_1" xmlns="http://www.w3.org/2000/svg" xmlns:xlink="http://www.w3.org/1999/xlink" 
	 viewBox="0 0 512 512" xml:space="preserve">
<g>
	<g>
		<path d="M366.933,426.667H336.58c-5.914-10.155-16.794-17.067-29.38-17.067h-34.133c-4.753,0-10.684-1.399-14.464-12.288
			c-4.608-13.261-2.577-27.938,5.163-37.393c19.251-23.501,18.133-49.195,17.835-53.094v-8.158c0-6.391-1.877-12.305-4.941-17.425
			c17.118-1.826,30.541-16.179,30.541-33.775c0-6.391-1.877-12.305-4.941-17.425c17.118-1.826,30.541-16.179,30.541-33.775
			c0-17.596-13.423-31.949-30.541-33.775c3.063-5.12,4.941-11.034,4.941-17.425c0-17.596-13.423-31.949-30.541-33.775
			c3.063-5.12,4.941-11.034,4.941-17.425c0-18.825-15.309-34.133-34.133-34.133v-51.2c0-4.71-3.814-8.533-8.533-8.533h-51.2
			c-4.719,0-8.533,3.823-8.533,8.533v51.2c-18.825,0-34.133,15.309-34.133,34.133c0,6.391,1.877,12.305,4.941,17.425
			c-17.118,1.826-30.541,16.179-30.541,33.775c0,7.074,2.167,13.653,5.862,19.106c-13.303,4.668-22.929,17.212-22.929,32.094
			s9.626,27.426,22.929,32.094c-3.695,5.453-5.862,12.032-5.862,19.106c0,17.596,13.423,31.949,30.541,33.775
			c-3.063,5.12-4.941,11.034-4.941,17.425c0,18.825,15.309,34.133,34.133,34.133l31.42-0.008
			c-2.108,6.511-5.623,13.355-11.486,19.226c-1.109,0.981-25.685,23.509-28.22,74.65h-25.847c-23.526,0-42.667,19.14-42.667,42.667
			c0,23.526,19.14,42.667,42.667,42.667h221.867c23.526,0,42.667-19.14,42.667-42.667C409.6,445.807,390.46,426.667,366.933,426.667
			z M179.2,76.8h8.533h51.2h8.533c9.412,0,17.067,7.654,17.067,17.067c0,9.412-7.654,17.067-17.067,17.067H179.2
			c-9.412,0-17.067-7.654-17.067-17.067C162.133,84.454,169.788,76.8,179.2,76.8z M153.6,213.333h-17.067
			c-9.412,0-17.067-7.654-17.067-17.067c0-9.412,7.654-17.067,17.067-17.067H153.6h119.467h25.6c9.412,0,17.067,7.654,17.067,17.067
			c0,9.412-7.654,17.067-17.067,17.067h-25.6H153.6z M238.933,443.733h-25.6c-4.719,0-8.533-3.823-8.533-8.533
			s3.814-8.533,8.533-8.533h25.6c4.719,0,8.533,3.823,8.533,8.533S243.652,443.733,238.933,443.733z"/>
	</g>
</g>
</svg>