<?xml version="1.0" encoding="iso-8859-1"?>
<!-- Uploaded to: SVG Repo, www.svgrepo.com, Generator: SVG Repo Mixer Tools -->
<svg height="800px" width="800px" version="1.1" id="Layer_1" xmlns="http://www.w3.org/2000/svg" xmlns:xlink="http://www.w3.org/1999/xlink" 
	 viewBox="0 0 512.32 512.32" xml:space="preserve">
<g transform="translate(1 1)">
	<g>
		<polygon style="fill:#FFE100;" points="24.067,370.36 143.533,370.36 143.533,285.027 24.067,285.027 		"/>
		<polygon style="fill:#FFE100;" points="160.6,285.027 7,285.027 83.8,216.76 		"/>
	</g>
	<g>
		<polygon style="fill:#FFFFFF;" points="24.067,370.36 49.667,370.36 49.667,285.027 24.067,285.027 		"/>
		<polygon style="fill:#FFFFFF;" points="83.8,216.76 96.6,227.853 32.6,285.027 7,285.027 		"/>
	</g>
	<g>
		<polygon style="fill:#FFE100;" points="194.733,472.76 314.2,472.76 314.2,387.427 194.733,387.427 		"/>
		<polygon style="fill:#FFE100;" points="331.267,387.427 177.667,387.427 254.467,319.16 		"/>
		<polygon style="fill:#FFE100;" points="365.4,370.36 484.867,370.36 484.867,285.027 365.4,285.027 		"/>
	</g>
	<polygon style="fill:#FFA800;" points="459.267,370.36 484.867,370.36 484.867,285.027 459.267,285.027 	"/>
	<polygon style="fill:#FFE100;" points="501.933,285.027 348.333,285.027 425.133,216.76 	"/>
	<g>
		<polygon style="fill:#FFA800;" points="425.133,216.76 412.333,227.853 476.333,285.027 501.933,285.027 		"/>
		<polygon style="fill:#FFA800;" points="288.6,472.76 314.2,472.76 314.2,387.427 288.6,387.427 		"/>
		<polygon style="fill:#FFA800;" points="254.467,319.16 241.667,330.253 305.667,387.427 331.267,387.427 		"/>
	</g>
	<g>
		<path style="fill:#FFE100;" d="M263,285.027c-5.12,0-8.533-3.413-8.533-8.533V124.6c0-5.12,3.413-8.533,8.533-8.533
			c5.12,0,8.533,3.413,8.533,8.533v151.893C271.533,281.613,268.12,285.027,263,285.027z"/>
		<path style="fill:#FFE100;" d="M228.867,165.56c-5.12,0-8.533-3.413-8.533-8.533c0-5.12,3.413-8.533,8.533-8.533
			c14.507,0,25.6-11.093,25.6-25.6c0-5.12,3.413-8.533,8.533-8.533c5.12,0,8.533,3.413,8.533,8.533
			C271.533,146.787,252.76,165.56,228.867,165.56z"/>
		<path style="fill:#FFE100;" d="M211.8,216.76c-5.12,0-8.533-3.413-8.533-8.533c0-5.12,3.413-8.533,8.533-8.533
			c23.893,0,42.667-18.773,42.667-42.667c0-5.12,3.413-8.533,8.533-8.533c5.12,0,8.533,3.413,8.533,8.533
			C271.533,190.307,245.08,216.76,211.8,216.76z"/>
		<path style="fill:#FFE100;" d="M194.733,267.96c-5.12,0-8.533-3.413-8.533-8.533c0-5.12,3.413-8.533,8.533-8.533
			c33.28,0,59.733-26.453,59.733-59.733c0-5.12,3.413-8.533,8.533-8.533c5.12,0,8.533,3.413,8.533,8.533
			C271.533,233.827,237.4,267.96,194.733,267.96z"/>
		<path style="fill:#FFE100;" d="M297.133,165.56c-23.893,0-42.667-18.773-42.667-42.667c0-5.12,3.413-8.533,8.533-8.533
			c5.12,0,8.533,3.413,8.533,8.533c0,14.507,11.093,25.6,25.6,25.6c5.12,0,8.533,3.413,8.533,8.533
			C305.667,162.147,302.253,165.56,297.133,165.56z"/>
		<path style="fill:#FFE100;" d="M314.2,216.76c-33.28,0-59.733-26.453-59.733-59.733c0-5.12,3.413-8.533,8.533-8.533
			c5.12,0,8.533,3.413,8.533,8.533c0,23.893,18.773,42.667,42.667,42.667c5.12,0,8.533,3.413,8.533,8.533
			C322.733,213.347,319.32,216.76,314.2,216.76z"/>
		<path style="fill:#FFE100;" d="M331.267,267.96c-42.667,0-76.8-34.133-76.8-76.8c0-5.12,3.413-8.533,8.533-8.533
			c5.12,0,8.533,3.413,8.533,8.533c0,33.28,26.453,59.733,59.733,59.733c5.12,0,8.533,3.413,8.533,8.533
			C339.8,264.547,336.387,267.96,331.267,267.96z"/>
		<path style="fill:#FFE100;" d="M109.4,174.093c-5.12,0-8.533-3.413-8.533-8.533V13.667c0-5.12,3.413-8.533,8.533-8.533
			c5.12,0,8.533,3.413,8.533,8.533V165.56C117.933,170.68,114.52,174.093,109.4,174.093z"/>
		<path style="fill:#FFE100;" d="M75.267,54.627c-5.12,0-8.533-3.413-8.533-8.533s3.413-8.533,8.533-8.533
			c14.507,0,25.6-11.093,25.6-25.6c0-5.12,3.413-8.533,8.533-8.533c5.12,0,8.533,3.413,8.533,8.533
			C117.933,35.853,99.16,54.627,75.267,54.627z"/>
		<path style="fill:#FFE100;" d="M58.2,105.827c-5.12,0-8.533-3.413-8.533-8.533c0-5.12,3.413-8.533,8.533-8.533
			c23.893,0,42.667-18.773,42.667-42.667c0-5.12,3.413-8.533,8.533-8.533c5.12,0,8.533,3.413,8.533,8.533
			C117.933,79.373,91.48,105.827,58.2,105.827z"/>
		<path style="fill:#FFE100;" d="M41.133,157.027c-5.12,0-8.533-3.413-8.533-8.533c0-5.12,3.413-8.533,8.533-8.533
			c33.28,0,59.733-26.453,59.733-59.733c0-5.12,3.413-8.533,8.533-8.533c5.12,0,8.533,3.413,8.533,8.533
			C117.933,122.893,83.8,157.027,41.133,157.027z"/>
		<path style="fill:#FFE100;" d="M143.533,54.627c-23.893,0-42.667-18.773-42.667-42.667c0-5.12,3.413-8.533,8.533-8.533
			c5.12,0,8.533,3.413,8.533,8.533c0,14.507,11.093,25.6,25.6,25.6c5.12,0,8.533,3.413,8.533,8.533S148.653,54.627,143.533,54.627z"
			/>
		<path style="fill:#FFE100;" d="M160.6,105.827c-33.28,0-59.733-26.453-59.733-59.733c0-5.12,3.413-8.533,8.533-8.533
			c5.12,0,8.533,3.413,8.533,8.533c0,23.893,18.773,42.667,42.667,42.667c5.12,0,8.533,3.413,8.533,8.533
			C169.133,102.413,165.72,105.827,160.6,105.827z"/>
		<path style="fill:#FFE100;" d="M177.667,157.027c-42.667,0-76.8-34.133-76.8-76.8c0-5.12,3.413-8.533,8.533-8.533
			c5.12,0,8.533,3.413,8.533,8.533c0,33.28,26.453,59.733,59.733,59.733c5.12,0,8.533,3.413,8.533,8.533
			C186.2,153.613,182.787,157.027,177.667,157.027z"/>
		<path style="fill:#FFE100;" d="M416.6,174.093c-5.12,0-8.533-3.413-8.533-8.533V13.667c0-5.12,3.413-8.533,8.533-8.533
			c5.12,0,8.533,3.413,8.533,8.533V165.56C425.133,170.68,421.72,174.093,416.6,174.093z"/>
		<path style="fill:#FFE100;" d="M382.467,54.627c-5.12,0-8.533-3.413-8.533-8.533s3.413-8.533,8.533-8.533
			c14.507,0,25.6-11.093,25.6-25.6c0-5.12,3.413-8.533,8.533-8.533c5.12,0,8.533,3.413,8.533,8.533
			C425.133,35.853,406.36,54.627,382.467,54.627z"/>
		<path style="fill:#FFE100;" d="M365.4,105.827c-5.12,0-8.533-3.413-8.533-8.533c0-5.12,3.413-8.533,8.533-8.533
			c23.893,0,42.667-18.773,42.667-42.667c0-5.12,3.413-8.533,8.533-8.533c5.12,0,8.533,3.413,8.533,8.533
			C425.133,79.373,398.68,105.827,365.4,105.827z"/>
		<path style="fill:#FFE100;" d="M348.333,157.027c-5.12,0-8.533-3.413-8.533-8.533c0-5.12,3.413-8.533,8.533-8.533
			c33.28,0,59.733-26.453,59.733-59.733c0-5.12,3.413-8.533,8.533-8.533c5.12,0,8.533,3.413,8.533,8.533
			C425.133,122.893,391,157.027,348.333,157.027z"/>
		<path style="fill:#FFE100;" d="M450.733,54.627c-23.893,0-42.667-18.773-42.667-42.667c0-5.12,3.413-8.533,8.533-8.533
			c5.12,0,8.533,3.413,8.533,8.533c0,14.507,11.093,25.6,25.6,25.6c5.12,0,8.533,3.413,8.533,8.533S455.853,54.627,450.733,54.627z"
			/>
		<path style="fill:#FFE100;" d="M467.8,105.827c-33.28,0-59.733-26.453-59.733-59.733c0-5.12,3.413-8.533,8.533-8.533
			c5.12,0,8.533,3.413,8.533,8.533c0,23.893,18.773,42.667,42.667,42.667c5.12,0,8.533,3.413,8.533,8.533
			C476.333,102.413,472.92,105.827,467.8,105.827z"/>
		<path style="fill:#FFE100;" d="M484.867,157.027c-42.667,0-76.8-34.133-76.8-76.8c0-5.12,3.413-8.533,8.533-8.533
			c5.12,0,8.533,3.413,8.533,8.533c0,33.28,26.453,59.733,59.733,59.733c5.12,0,8.533,3.413,8.533,8.533
			C493.4,153.613,489.987,157.027,484.867,157.027z"/>
	</g>
	<path d="M254.467,285.027c-5.12,0-8.533-3.413-8.533-8.533V124.6c0-5.12,3.413-8.533,8.533-8.533S263,119.48,263,124.6v151.893
		C263,281.613,259.587,285.027,254.467,285.027z"/>
	<path d="M220.333,165.56c-5.12,0-8.533-3.413-8.533-8.533c0-5.12,3.413-8.533,8.533-8.533c14.507,0,25.6-11.093,25.6-25.6
		c0-5.12,3.413-8.533,8.533-8.533s8.533,3.413,8.533,8.533C263,146.787,244.227,165.56,220.333,165.56z"/>
	<path d="M203.267,216.76c-5.12,0-8.533-3.413-8.533-8.533c0-5.12,3.413-8.533,8.533-8.533c23.893,0,42.667-18.773,42.667-42.667
		c0-5.12,3.413-8.533,8.533-8.533s8.533,3.413,8.533,8.533C263,190.307,236.547,216.76,203.267,216.76z"/>
	<path d="M186.2,267.96c-5.12,0-8.533-3.413-8.533-8.533c0-5.12,3.413-8.533,8.533-8.533c33.28,0,59.733-26.453,59.733-59.733
		c0-5.12,3.413-8.533,8.533-8.533S263,186.04,263,191.16C263,233.827,228.867,267.96,186.2,267.96z"/>
	<path d="M288.6,165.56c-23.893,0-42.667-18.773-42.667-42.667c0-5.12,3.413-8.533,8.533-8.533s8.533,3.413,8.533,8.533
		c0,14.507,11.093,25.6,25.6,25.6c5.12,0,8.533,3.413,8.533,8.533C297.133,162.147,293.72,165.56,288.6,165.56z"/>
	<path d="M305.667,216.76c-33.28,0-59.733-26.453-59.733-59.733c0-5.12,3.413-8.533,8.533-8.533s8.533,3.413,8.533,8.533
		c0,23.893,18.773,42.667,42.667,42.667c5.12,0,8.533,3.413,8.533,8.533C314.2,213.347,310.787,216.76,305.667,216.76z"/>
	<path d="M322.733,267.96c-42.667,0-76.8-34.133-76.8-76.8c0-5.12,3.413-8.533,8.533-8.533S263,186.04,263,191.16
		c0,33.28,26.453,59.733,59.733,59.733c5.12,0,8.533,3.413,8.533,8.533C331.267,264.547,327.853,267.96,322.733,267.96z"/>
	<path d="M100.867,174.093c-5.12,0-8.533-3.413-8.533-8.533V13.667c0-5.12,3.413-8.533,8.533-8.533s8.533,3.413,8.533,8.533V165.56
		C109.4,170.68,105.987,174.093,100.867,174.093z"/>
	<path d="M66.733,54.627c-5.12,0-8.533-3.413-8.533-8.533s3.413-8.533,8.533-8.533c14.507,0,25.6-11.093,25.6-25.6
		c0-5.12,3.413-8.533,8.533-8.533S109.4,6.84,109.4,11.96C109.4,35.853,90.627,54.627,66.733,54.627z"/>
	<path d="M49.667,105.827c-5.12,0-8.533-3.413-8.533-8.533c0-5.12,3.413-8.533,8.533-8.533c23.893,0,42.667-18.773,42.667-42.667
		c0-5.12,3.413-8.533,8.533-8.533s8.533,3.413,8.533,8.533C109.4,79.373,82.947,105.827,49.667,105.827z"/>
	<path d="M32.6,157.027c-5.12,0-8.533-3.413-8.533-8.533c0-5.12,3.413-8.533,8.533-8.533c33.28,0,59.733-26.453,59.733-59.733
		c0-5.12,3.413-8.533,8.533-8.533s8.533,3.413,8.533,8.533C109.4,122.893,75.267,157.027,32.6,157.027z"/>
	<path d="M135,54.627c-23.893,0-42.667-18.773-42.667-42.667c0-5.12,3.413-8.533,8.533-8.533S109.4,6.84,109.4,11.96
		c0,14.507,11.093,25.6,25.6,25.6c5.12,0,8.533,3.413,8.533,8.533S140.12,54.627,135,54.627z"/>
	<path d="M152.067,105.827c-33.28,0-59.733-26.453-59.733-59.733c0-5.12,3.413-8.533,8.533-8.533s8.533,3.413,8.533,8.533
		c0,23.893,18.773,42.667,42.667,42.667c5.12,0,8.533,3.413,8.533,8.533C160.6,102.413,157.187,105.827,152.067,105.827z"/>
	<path d="M169.133,157.027c-42.667,0-76.8-34.133-76.8-76.8c0-5.12,3.413-8.533,8.533-8.533s8.533,3.413,8.533,8.533
		c0,33.28,26.453,59.733,59.733,59.733c5.12,0,8.533,3.413,8.533,8.533C177.667,153.613,174.253,157.027,169.133,157.027z"/>
	<path d="M408.067,174.093c-5.12,0-8.533-3.413-8.533-8.533V13.667c0-5.12,3.413-8.533,8.533-8.533s8.533,3.413,8.533,8.533V165.56
		C416.6,170.68,413.187,174.093,408.067,174.093z"/>
	<path d="M373.933,54.627c-5.12,0-8.533-3.413-8.533-8.533s3.413-8.533,8.533-8.533c14.507,0,25.6-11.093,25.6-25.6
		c0-5.12,3.413-8.533,8.533-8.533S416.6,6.84,416.6,11.96C416.6,35.853,397.827,54.627,373.933,54.627z"/>
	<path d="M356.867,105.827c-5.12,0-8.533-3.413-8.533-8.533c0-5.12,3.413-8.533,8.533-8.533c23.893,0,42.667-18.773,42.667-42.667
		c0-5.12,3.413-8.533,8.533-8.533s8.533,3.413,8.533,8.533C416.6,79.373,390.147,105.827,356.867,105.827z"/>
	<path d="M339.8,157.027c-5.12,0-8.533-3.413-8.533-8.533c0-5.12,3.413-8.533,8.533-8.533c33.28,0,59.733-26.453,59.733-59.733
		c0-5.12,3.413-8.533,8.533-8.533s8.533,3.413,8.533,8.533C416.6,122.893,382.467,157.027,339.8,157.027z"/>
	<path d="M442.2,54.627c-23.893,0-42.667-18.773-42.667-42.667c0-5.12,3.413-8.533,8.533-8.533S416.6,6.84,416.6,11.96
		c0,14.507,11.093,25.6,25.6,25.6c5.12,0,8.533,3.413,8.533,8.533S447.32,54.627,442.2,54.627z"/>
	<path d="M459.267,105.827c-33.28,0-59.733-26.453-59.733-59.733c0-5.12,3.413-8.533,8.533-8.533s8.533,3.413,8.533,8.533
		c0,23.893,18.773,42.667,42.667,42.667c5.12,0,8.533,3.413,8.533,8.533C467.8,102.413,464.387,105.827,459.267,105.827z"/>
	<path d="M476.333,157.027c-42.667,0-76.8-34.133-76.8-76.8c0-5.12,3.413-8.533,8.533-8.533s8.533,3.413,8.533,8.533
		c0,33.28,26.453,59.733,59.733,59.733c5.12,0,8.533,3.413,8.533,8.533C484.867,153.613,481.453,157.027,476.333,157.027z"/>
	<path d="M314.2,481.293H194.733c-5.12,0-8.533-3.413-8.533-8.533v-85.333c0-5.12,3.413-8.533,8.533-8.533H314.2
		c5.12,0,8.533,3.413,8.533,8.533v85.333C322.733,477.88,319.32,481.293,314.2,481.293z M203.267,464.227h102.4V395.96h-102.4
		V464.227z"/>
	<path d="M194.733,506.893c-5.12,0-8.533-3.413-8.533-8.533v-25.6c0-5.12,3.413-8.533,8.533-8.533c5.12,0,8.533,3.413,8.533,8.533
		v25.6C203.267,503.48,199.853,506.893,194.733,506.893z"/>
	<path d="M314.2,506.893c-5.12,0-8.533-3.413-8.533-8.533v-25.6c0-5.12,3.413-8.533,8.533-8.533s8.533,3.413,8.533,8.533v25.6
		C322.733,503.48,319.32,506.893,314.2,506.893z"/>
	<path d="M331.267,395.96L331.267,395.96h-153.6c-3.413,0-6.827-2.56-7.68-5.12s0-6.827,2.56-9.387l76.8-68.267
		c3.413-2.56,8.533-2.56,11.093,0l75.947,67.413c2.56,1.707,4.267,4.267,4.267,6.827C339.8,392.547,336.387,395.96,331.267,395.96z
		 M199.853,378.893h108.373l-53.76-48.64L199.853,378.893z"/>
	<path d="M484.867,378.893H365.4c-5.12,0-8.533-3.413-8.533-8.533v-85.333c0-5.12,3.413-8.533,8.533-8.533h119.467
		c5.12,0,8.533,3.413,8.533,8.533v85.333C493.4,375.48,489.987,378.893,484.867,378.893z M373.933,361.827h102.4V293.56h-102.4
		V361.827z"/>
	<path d="M365.4,404.493c-5.12,0-8.533-3.413-8.533-8.533v-25.6c0-5.12,3.413-8.533,8.533-8.533s8.533,3.413,8.533,8.533v25.6
		C373.933,401.08,370.52,404.493,365.4,404.493z"/>
	<path d="M484.867,404.493c-5.12,0-8.533-3.413-8.533-8.533v-25.6c0-5.12,3.413-8.533,8.533-8.533c5.12,0,8.533,3.413,8.533,8.533
		v25.6C493.4,401.08,489.987,404.493,484.867,404.493z"/>
	<path d="M501.933,293.56L501.933,293.56h-153.6c-3.413,0-6.827-2.56-7.68-5.12c-0.853-2.56,0-6.827,2.56-9.387l76.8-68.267
		c3.413-2.56,7.68-2.56,11.093,0l75.947,67.413c2.56,1.707,4.267,4.267,4.267,6.827C510.467,290.147,507.053,293.56,501.933,293.56z
		 M370.52,276.493h108.373l-53.76-48.64L370.52,276.493z"/>
	<path d="M143.533,378.893H24.067c-5.12,0-8.533-3.413-8.533-8.533v-85.333c0-5.12,3.413-8.533,8.533-8.533h119.467
		c5.12,0,8.533,3.413,8.533,8.533v85.333C152.067,375.48,148.653,378.893,143.533,378.893z M32.6,361.827H135V293.56H32.6V361.827z"
		/>
	<path d="M24.067,404.493c-5.12,0-8.533-3.413-8.533-8.533v-25.6c0-5.12,3.413-8.533,8.533-8.533s8.533,3.413,8.533,8.533v25.6
		C32.6,401.08,29.187,404.493,24.067,404.493z"/>
	<path d="M143.533,404.493c-5.12,0-8.533-3.413-8.533-8.533v-25.6c0-5.12,3.413-8.533,8.533-8.533s8.533,3.413,8.533,8.533v25.6
		C152.067,401.08,148.653,404.493,143.533,404.493z"/>
	<path d="M160.6,293.56L160.6,293.56H7c-3.413,0-6.827-2.56-7.68-5.12c-0.853-2.56,0-6.827,2.56-9.387l76.8-68.267
		c3.413-2.56,8.533-2.56,11.093,0L165.72,278.2c2.56,1.707,4.267,4.267,4.267,6.827C169.133,290.147,165.72,293.56,160.6,293.56z
		 M29.187,276.493H137.56l-53.76-48.64L29.187,276.493z"/>
</g>
</svg>