<?xml version="1.0" encoding="iso-8859-1"?>
<!-- Uploaded to: SVG Repo, www.svgrepo.com, Generator: SVG Repo Mixer Tools -->
<svg fill="#000000" height="800px" width="800px" version="1.1" id="Layer_1" xmlns="http://www.w3.org/2000/svg" xmlns:xlink="http://www.w3.org/1999/xlink" 
	 viewBox="0 0 512.004 512.004" xml:space="preserve">
<g>
	<g>
		<g>
			<path d="M128.038,228.352l123.586,70.621c1.359,0.777,2.869,1.165,4.378,1.165c1.51,0,3.028-0.388,4.387-1.165l123.401-70.621
				c2.745-1.571,4.44-4.493,4.44-7.654l0.185-141.241c0-3.169-1.695-6.1-4.449-7.671L260.382,1.165
				c-2.719-1.554-6.038-1.554-8.757,0L128.038,71.786c-2.754,1.571-4.449,4.502-4.449,7.662V220.69
				C123.589,223.85,125.284,226.781,128.038,228.352z M158.9,97.103c0-3.107,1.624-5.976,4.281-7.565l88.276-52.966
				c4.175-2.516,9.604-1.156,12.111,3.019c2.516,4.184,1.156,9.604-3.019,12.111L176.555,102.1v100.935
				c0,4.882-3.955,8.828-8.828,8.828c-4.873,0-8.828-3.946-8.828-8.828V97.103z"/>
			<path d="M507.555,283.646l-102.276-58.439c-1.351,7.671-5.844,14.539-12.729,18.476l-110.08,62.994l-0.168,143.554
				c-0.009,6.762-2.595,13.074-6.983,17.858l100.793,43.193c1.112,0.486,2.295,0.715,3.478,0.715c1.518,0,3.028-0.388,4.378-1.165
				l123.401-70.621c2.754-1.563,4.44-4.484,4.449-7.654l0.185-141.241C512.004,288.148,510.309,285.218,507.555,283.646z"/>
			<path d="M242.865,314.302l-101.782-58.156c-0.053,2.94-1.412,5.8-4.122,7.424l-83.994,50.397v100.935
				c0,4.873-3.946,8.828-8.828,8.828c-4.873,0-8.828-3.955-8.828-8.828V308.97c0-3.107,1.624-5.976,4.29-7.574l88.135-52.886
				l-8.457-4.829c-6.859-3.911-11.352-10.734-12.729-18.379L4.45,283.644C1.704,285.215,0,288.146,0,291.315v141.241
				c0,3.16,1.704,6.091,4.449,7.662l123.586,70.621c1.359,0.777,2.86,1.165,4.378,1.165c1.183,0,2.366-0.247,3.487-0.724
				l123.401-52.966c3.24-1.386,5.341-4.573,5.341-8.104l0.159-134.126c-2.834,1.006-5.773,1.713-8.801,1.713
				C251.401,317.797,246.864,316.588,242.865,314.302z"/>
		</g>
	</g>
</g>
</svg>