<?xml version="1.0" encoding="iso-8859-1"?>
<!-- Uploaded to: SVG Repo, www.svgrepo.com, Generator: SVG Repo Mixer Tools -->
<svg fill="#000000" height="800px" width="800px" version="1.1" id="Layer_1" xmlns="http://www.w3.org/2000/svg" xmlns:xlink="http://www.w3.org/1999/xlink" 
	 viewBox="0 0 512 512" xml:space="preserve">
<g>
	<g>
		<g>
			<path d="M510.792,151.326L424.012,4.27C422.45,1.631,419.612,0,416.54,0H251.659c-3.072,0-5.91,1.631-7.472,4.27l-86.78,147.057
				c-1.649,2.786-1.605,6.248,0.104,8.999l2.846,4.556h26.433c9.068,0,17.33,4.591,22.111,12.288l64.85,104.118
				c4.261,6.821,4.877,15.039,2.23,22.441H416.54c2.994,0,5.78-1.545,7.368-4.096l86.78-139.307
				C512.397,157.575,512.441,154.112,510.792,151.326z M390.507,52.068H282.544l-66.881,108.683
				c-1.64,2.664-4.487,4.131-7.402,4.131c-1.553,0-3.124-0.417-4.539-1.284c-4.087-2.508-5.354-7.862-2.846-11.941l69.424-112.814
				c1.588-2.569,4.382-4.131,7.394-4.131h112.814c4.79,0,8.678,3.879,8.678,8.678S395.297,52.068,390.507,52.068z"/>
			<path d="M198.411,403.56l60.746-104.136c1.623-2.777,1.571-6.231-0.13-8.956l-64.868-104.136
				c-1.588-2.551-4.365-4.096-7.368-4.096H69.422c-3.081,0-5.944,1.631-7.498,4.304L1.178,290.677c-1.571,2.708-1.571,6.04,0,8.747
				L61.924,403.56c1.553,2.673,4.417,4.304,7.498,4.304h121.492C193.994,407.864,196.858,406.233,198.411,403.56z M164.879,234.305
				h-64.616l-40.839,65.362c-1.649,2.629-4.469,4.079-7.368,4.079c-1.571,0-3.159-0.425-4.591-1.319
				c-4.061-2.534-5.302-7.897-2.76-11.958l43.39-69.441c1.579-2.534,4.365-4.079,7.359-4.079h69.424c4.79,0,8.678,3.879,8.678,8.678
				C173.557,230.426,169.67,234.305,164.879,234.305z"/>
			<path d="M400.006,321.085H266.617l-53.213,91.223c-3.827,6.561-10.388,10.891-17.72,12.279l48.484,83.109
				c1.553,2.673,4.408,4.304,7.489,4.304h121.491c3.194,0,6.127-1.753,7.645-4.565l60.746-112.814
				c1.493-2.768,1.362-6.118-0.321-8.773L400.006,321.085z"/>
		</g>
	</g>
</g>
</svg>