<?xml version="1.0" encoding="iso-8859-1"?>
<!-- Uploaded to: SVG Repo, www.svgrepo.com, Generator: SVG Repo Mixer Tools -->
<svg fill="#000000" height="800px" width="800px" version="1.1" id="Layer_1" xmlns="http://www.w3.org/2000/svg" xmlns:xlink="http://www.w3.org/1999/xlink" 
	 viewBox="0 0 512 512" xml:space="preserve">
<g>
	<g>
		<path d="M430.393,247.39c-22.611-9.309-48.718-16.597-77.031-21.654c-1.554-16.395-7.179-32.039-16.536-45.741L273.338,70.029
			c-3.627-6.281-10.327-10.15-17.579-10.15c-7.252,0-13.955,3.869-17.579,10.15l-67.446,116.825
			c-0.497,0.861-0.926,1.747-1.286,2.654c-5.927,11.244-9.597,23.582-10.813,36.23c-28.312,5.059-54.418,12.345-77.029,21.654
			C28.982,269.056,0,300.091,0,334.779c0,34.689,28.982,65.723,81.607,87.391C128.52,441.484,190.454,452.121,256,452.121
			s127.482-10.637,174.393-29.951C483.018,400.503,512,369.468,512,334.779C512,300.091,483.018,269.056,430.393,247.39z
			 M206.152,206.993c0.371-0.658,0.705-1.33,0.996-2.015l48.611-84.2l46.313,80.217c0.287,0.497,0.593,0.981,0.922,1.451
			c6.691,9.607,10.228,20.891,10.228,32.629c0,31.552-25.669,57.222-57.221,57.222c-31.552,0-57.222-25.67-57.222-57.222
			C198.779,225.235,201.329,215.525,206.152,206.993z M202.292,316.772c15.429,10.177,33.882,16.122,53.708,16.122
			s38.28-5.945,53.708-16.122c29.229,3.108,50.295,8.388,62.01,13.089c-17.978,7.216-57.965,15.795-115.718,15.795
			s-97.739-8.58-115.716-15.795C151.999,325.161,173.064,319.882,202.292,316.772z M256,411.522
			c-133.455,0-215.402-44.699-215.402-76.743c0-23.747,45.014-54.438,122.633-68.743c1.663,4.971,3.711,9.764,6.115,14.346
			c-7.143,1.264-13.939,2.682-20.271,4.266c-14.251,3.566-57.621,14.418-57.621,45.214s43.37,41.648,57.621,45.216
			c28.809,7.209,66.783,11.179,106.924,11.179c40.142,0,78.117-3.971,106.925-11.179c14.251-3.566,57.62-14.418,57.62-45.216
			c0-30.797-43.369-41.649-57.62-45.214c-6.332-1.585-13.128-3.003-20.272-4.267c2.405-4.581,4.452-9.376,6.115-14.346
			c77.619,14.304,122.633,44.995,122.633,68.743C471.402,366.824,389.455,411.522,256,411.522z"/>
	</g>
</g>
</svg>