<?xml version="1.0" encoding="utf-8"?><!-- Uploaded to: SVG Repo, www.svgrepo.com, Generator: SVG Repo Mixer Tools -->
<svg width="800px" height="800px" viewBox="0 0 24 24" fill="none" xmlns="http://www.w3.org/2000/svg">
<path d="M10.3412 9.5C9.53284 8.96254 9.00008 8.04349 9.00008 7C9.00008 5.34315 10.3432 4 12.0001 4C13.5954 4 14.8999 5.24523 14.9946 6.81674M9.00558 12.1867C8.13595 12.618 7.07365 12.6199 6.16996 12.0981C4.73509 11.2697 4.24346 9.43495 5.07189 8.00007C5.86955 6.61848 7.60018 6.11139 9.0085 6.81513M10.6644 14.6867C10.6032 15.6555 10.0736 16.5764 9.16993 17.0981C7.73506 17.9266 5.90029 17.4349 5.07186 16.0001C4.2742 14.6185 4.70036 12.8662 6.01398 11.9984M13.3357 9.31328C13.397 8.3445 13.9265 7.4236 14.8302 6.90186C16.2651 6.07343 18.0998 6.56505 18.9283 7.99993C19.7259 9.38152 19.2998 11.1338 17.9862 12.0016M14.9946 11.8133C15.8642 11.382 16.9265 11.3801 17.8302 11.9019C19.2651 12.7303 19.7567 14.5651 18.9283 15.9999C18.1306 17.3815 16.4 17.8886 14.9917 17.1849M13.659 14.5C14.4674 15.0375 15.0001 15.9565 15.0001 17C15.0001 18.6569 13.657 20 12.0001 20C10.4048 20 9.10032 18.7548 9.00562 17.1833M15.0001 12C15.0001 13.6569 13.6569 15 12.0001 15C10.3432 15 9.00008 13.6569 9.00008 12C9.00008 10.3431 10.3432 9 12.0001 9C13.6569 9 15.0001 10.3431 15.0001 12Z" stroke="#000000" stroke-width="2" stroke-linecap="round" stroke-linejoin="round"/>
</svg>