<?xml version="1.0" encoding="iso-8859-1"?>
<!-- Uploaded to: SVG Repo, www.svgrepo.com, Generator: SVG Repo Mixer Tools -->
<svg height="800px" width="800px" version="1.1" id="Layer_1" xmlns="http://www.w3.org/2000/svg" xmlns:xlink="http://www.w3.org/1999/xlink" 
	 viewBox="0 0 507.733 507.733" xml:space="preserve">
<g transform="translate(1 1)">
	<g>
		<path style="fill:#50DD8E;" d="M367.64,190.086c27.307,16.213,45.227,46.08,45.227,80.213c0,1.707,0,4.267,0,5.973
			c0,0.853,0,2.56,0,3.413c0,2.56-0.853,5.12-0.853,7.68c0,0.853,0,1.707-0.853,3.413c-0.853,2.56-1.707,5.12-1.707,7.68
			c-0.853,2.56-1.707,4.267-2.56,6.827c-2.56,5.973-5.973,11.947-9.387,17.067c-0.853,1.707-1.707,2.56-2.56,3.413
			c-0.853,0.853-1.707,2.56-2.56,3.413l0,0c-1.707,1.707-3.413,3.413-5.12,5.12c-1.707,1.707-3.413,3.413-5.973,5.12
			c-1.707,1.707-4.267,3.413-5.973,5.12c-4.267,3.413-8.533,5.973-13.653,8.533c-2.56,0.853-4.267,2.56-6.827,3.413
			c-0.853,0-1.707,0.853-2.56,0.853c-1.707,0.853-3.413,0.853-5.12,1.707l0,0c-2.56,0.853-5.12,1.707-7.68,1.707
			c-5.973,0.853-12.8,1.707-18.773,1.707c-15.36,0-29.867-3.413-42.667-10.24c-9.387-5.12-18.773-11.093-25.6-19.627
			c-7.68,7.68-16.213,14.507-26.453,19.627c-12.8,6.827-27.307,10.24-41.813,10.24c-6.827,0-12.8-0.853-18.773-1.707
			c-2.56-0.853-5.12-0.853-7.68-1.707l0,0c-1.707-0.853-3.413-0.853-5.12-1.707c-0.853,0-1.707-0.853-2.56-0.853
			c-2.56-0.853-4.267-1.707-6.827-3.413c-4.267-2.56-9.387-5.12-13.653-8.533c-2.56-1.707-4.267-3.413-5.973-5.12
			c-1.707-1.707-4.267-3.413-5.973-5.12c-1.707-1.707-3.413-3.413-5.12-5.12l0,0c-0.853-0.853-1.707-2.56-2.56-3.413
			c-0.853-0.853-1.707-2.56-2.56-3.413c-3.413-5.12-6.827-11.093-9.387-17.067c-0.853-2.56-1.707-4.267-2.56-6.827
			c-0.853-2.56-1.707-5.12-1.707-7.68c0-0.853-0.853-1.707-0.853-3.413c-0.853-2.56-0.853-5.12-0.853-7.68c0-0.853,0-2.56,0-3.413
			c0-1.707,0-4.267,0-5.973c0-34.133,17.92-63.147,45.227-80.213c-6.827-11.947-11.093-24.747-11.093-39.253
			c0-40.107,29.867-72.533,69.12-75.947c-0.853-3.413-0.853-5.973-0.853-9.387c0-1.707,0-4.267,0-5.973c0-0.853,0-2.56,0.853-3.413
			c0-2.56,0.853-4.267,1.707-5.973c0-0.853,0.853-1.707,0.853-3.413c0-0.853,0.853-1.707,0.853-3.413
			c0-0.853,0.853-1.707,0.853-2.56c9.387-20.48,29.867-34.133,53.76-34.133s44.373,13.653,53.76,34.133
			c0.853,0.853,0.853,1.707,1.707,2.56c0,0.853,0.853,1.707,0.853,3.413c0,0.853,0.853,1.707,0.853,3.413
			c0.853,1.707,0.853,4.267,1.707,5.973c0,0.853,0,2.56,0.853,3.413c0,1.707,0,4.267,0,5.973c0,3.413,0,5.973-0.853,9.387
			c39.253,3.413,69.12,36.693,69.12,75.947C378.733,165.34,374.467,178.993,367.64,190.086"/>
		<path style="fill:#50DD8E;" d="M196.973,39.899c-0.853,0.853-0.853,1.707-1.707,2.56c0,0.853-0.853,1.707-0.853,3.413
			c-0.853,0.853-0.853,1.707-0.853,3.413c-0.853,1.707-0.853,4.267-1.707,5.973c0,1.707-0.853,2.56-0.853,4.267
			c0,1.707,0,4.267,0,5.973c0,3.413,0,5.973,0.853,8.533c-39.253,4.267-69.12,36.693-69.12,76.8c0,14.507,4.267,28.16,11.093,39.253
			C106.52,206.299,88.6,236.166,88.6,270.299c0,1.707,0,4.267,0,5.973c0,0.853,0,2.56,0,3.413c0,2.56,0.853,5.12,0.853,7.68
			c0,0.853,0.853,1.707,0.853,3.413c0.853,2.56,0.853,5.12,1.707,7.68c0.853,2.56,1.707,4.267,2.56,6.827
			c2.56,5.973,5.12,11.947,9.387,17.067c0.853,0.853,1.707,2.56,2.56,3.413c0.853,0.853,1.707,2.56,2.56,3.413l0,0
			c1.707,1.707,3.413,3.413,5.12,5.12c1.707,1.707,3.413,3.413,5.973,5.12c1.707,1.707,4.267,3.413,5.973,5.12
			c4.267,3.413,8.533,5.973,13.653,8.533c2.56,0.853,4.267,2.56,6.827,3.413c0.853,0,1.707,0.853,2.56,0.853
			c1.707,0.853,3.413,0.853,5.12,1.707l0,0c2.56,0.853,5.12,1.707,7.68,1.707c-6.827,6.827-15.36,12.8-24.747,17.92
			c-12.8,6.827-26.453,10.24-41.813,10.24c-52.053,0-93.867-41.813-93.867-93.867c0-34.133,17.92-64,45.227-80.213
			c-6.827-11.947-11.093-24.747-11.093-39.253c0-40.107,29.867-72.533,69.12-76.8c-0.853-2.56-0.853-5.973-0.853-8.533
			c0-33.28,26.453-59.733,59.733-59.733C176.493,31.366,187.587,34.779,196.973,39.899"/>
	</g>
	<path style="fill:#AE938D;" d="M138.947,379.526c9.387-4.267,17.067-10.24,24.747-17.92c5.973,0.853,12.8,1.707,18.773,1.707
		v136.533H139.8V380.379L138.947,379.526z M319,500.699V364.166c6.827,0,12.8-0.853,18.773-1.707
		c6.827,6.827,15.36,12.8,23.893,17.92l-0.853,1.707v119.467H319V500.699z M276.333,353.926L276.333,353.926v146.773h-51.2V355.633
		l-0.853-1.707c10.24-5.12,18.773-11.947,26.453-19.627C258.413,342.833,266.947,348.806,276.333,353.926z"/>
	<path style="fill:#50DD8E;" d="M378.733,150.833c0-40.107-29.867-72.533-69.12-76.8c0-2.56,0.853-5.973,0.853-8.533
		c0-1.707,0-4.267,0-5.973c0-0.853,0-2.56-0.853-4.267c0-2.56-0.853-4.267-1.707-5.973c0-0.853-0.853-1.707-0.853-3.413
		c0-0.853-0.853-1.707-0.853-3.413c0-0.853-0.853-1.707-1.707-2.56c9.387-5.12,19.627-8.533,31.573-8.533
		c33.28,0,59.733,26.453,59.733,59.733c0,3.413,0,5.973-0.853,8.533c38.4,4.267,69.12,36.693,69.12,76.8
		c0,14.507-4.267,28.16-11.093,39.253c27.307,16.213,45.227,46.08,45.227,80.213c0,52.053-41.813,93.867-93.867,93.867
		c-15.36,0-29.013-3.413-41.813-10.24c-9.387-4.267-17.067-10.24-23.893-17.92c2.56-0.853,5.12-0.853,7.68-1.707l0,0
		c1.707-0.853,3.413-0.853,5.12-1.707c0.853,0,1.707-0.853,2.56-0.853c2.56-0.853,5.12-1.707,6.827-3.413
		c5.12-2.56,9.387-5.12,13.653-8.533c2.56-1.707,4.267-3.413,5.973-5.12c1.707-1.707,4.267-3.413,5.973-5.12
		c1.707-1.707,3.413-3.413,5.12-5.12l0,0c0.853-0.853,1.707-2.56,2.56-3.413s1.707-2.56,2.56-3.413
		c3.413-5.12,6.827-11.093,9.387-17.067c0.853-2.56,1.707-4.267,2.56-6.827s1.707-5.12,1.707-7.68c0-0.853,0.853-1.707,0.853-3.413
		c0.853-2.56,0.853-5.12,0.853-7.68c0-0.853,0-2.56,0-3.413c0-1.707,0-4.267,0-5.973c0-34.133-17.92-64-45.227-80.213
		C374.467,178.993,378.733,165.34,378.733,150.833"/>
</g>
<path style="fill:#51565F;" d="M499.2,505.113h-17.067c-2.56,0-4.267-1.707-4.267-4.267s1.707-4.267,4.267-4.267H499.2
	c2.56,0,4.267,1.707,4.267,4.267S501.76,505.113,499.2,505.113z M448,505.113H89.6c-2.56,0-4.267-1.707-4.267-4.267
	s1.707-4.267,4.267-4.267h46.933V388.206c-12.8,5.12-26.453,5.973-38.4,5.973C44.373,394.179,0,349.806,0,296.046
	c0-43.52,29.013-82.773,71.68-94.72c2.56-0.853,4.267,0.853,5.12,2.56c0.853,2.56-0.853,4.267-2.56,5.12
	c-38.4,11.093-64.853,46.08-64.853,86.187c0,49.493,40.107,89.6,89.6,89.6c12.8,0,27.307-0.853,40.96-7.68
	c1.707-0.853,2.56-0.853,4.267,0s1.707,2.56,1.707,3.413v115.2h34.133v-98.133c0-2.56,1.707-4.267,4.267-4.267
	c2.56,0,4.267,1.707,4.267,4.267v98.133h34.133V361.753c-12.8,5.12-26.453,5.973-38.4,5.973c-53.76,0-98.133-44.373-98.133-98.133
	c0-43.52,29.013-82.773,71.68-94.72c2.56-0.853,4.267,0.853,5.12,2.56c0.853,2.56-0.853,4.267-2.56,5.12
	c-38.4,11.093-64.853,46.08-64.853,86.187c0,49.493,40.107,89.6,89.6,89.6c12.8,0,27.307-0.853,40.96-7.68
	c1.707-0.853,2.56-0.853,4.267,0c1.707,0.853,1.707,2.56,1.707,3.413v140.8h42.667v-138.24
	c-17.067-9.387-31.573-23.893-40.107-41.813c-0.853-1.707,0-4.267,1.707-5.973c1.707-0.853,4.267,0,5.973,1.707
	c15.36,29.867,46.08,48.64,80.213,48.64c49.493,0,89.6-40.107,89.6-89.6c0-21.333-6.827-40.96-19.627-57.173
	c-1.707-1.707-0.853-4.267,0.853-5.973c1.707-1.707,4.267-0.853,5.973,0.853c13.653,17.067,22.187,39.253,22.187,62.293
	c0,53.76-44.373,98.133-98.133,98.133c-13.653,0-26.453-2.56-38.4-7.68v135.68h34.133v-98.133c0-2.56,1.707-4.267,4.267-4.267
	s4.267,1.707,4.267,4.267v98.133h34.133v-115.2c0-1.707,0.853-2.56,1.707-3.413c0.853-0.853,2.56-0.853,4.267,0
	c13.653,6.827,28.16,7.68,40.96,7.68c49.493,0,89.6-40.107,89.6-89.6c0-40.107-26.453-75.093-64.853-86.187
	c-2.56-0.853-3.413-3.413-2.56-5.12c0.853-1.707,3.413-3.413,5.12-2.56c41.813,11.947,71.68,50.347,71.68,94.72
	c0,53.76-44.373,98.133-98.133,98.133c-11.947,0-25.6-0.853-38.4-5.973v108.373h81.067c2.56,0,4.267,1.707,4.267,4.267
	S450.56,505.113,448,505.113z M55.467,505.113h-51.2c-2.56,0-4.267-1.707-4.267-4.267s1.707-4.267,4.267-4.267h51.2
	c2.56,0,4.267,1.707,4.267,4.267S58.027,505.113,55.467,505.113z M351.573,214.979c-0.853,0-2.56-0.853-3.413-1.707
	c-1.707-1.707-0.853-4.267,0.853-5.973c17.067-13.653,27.307-34.133,27.307-56.32c0-28.16-15.36-53.76-40.107-65.707
	c-1.707-0.853-3.413-3.413-1.707-5.973c0.853-2.56,3.413-3.413,5.973-1.707c28.16,13.653,45.227,41.813,45.227,73.387
	c0,24.747-11.093,47.787-29.867,63.147C353.28,214.979,352.427,214.979,351.573,214.979z M464.213,191.94L464.213,191.94
	c-2.56,0-4.267-2.56-4.267-5.12c0.853-7.68,0.853-15.36-0.853-23.04c-5.973-31.573-31.573-56.32-63.147-59.733
	c-2.56,0-3.413-1.707-3.413-4.267c0-38.4-23.893-59.733-46.933-63.147c-2.56-0.853-5.12-0.853-8.533-0.853
	c-2.56,0-4.267-1.707-4.267-4.267s1.707-4.267,4.267-4.267l0,0c3.413,0,6.827,0,9.387,0.853c25.6,4.267,52.053,26.453,53.76,67.413
	c34.133,5.12,61.44,32.427,67.413,65.707c1.707,8.533,1.707,17.067,0.853,25.6C468.48,190.233,466.773,191.94,464.213,191.94z
	 M39.253,191.94c-1.707,0-4.267-1.707-4.267-3.413c-0.853-8.533-0.853-17.067,0.853-25.6c5.973-34.133,33.28-60.587,67.413-65.707
	c1.707-40.96,29.013-64,53.76-67.413c3.413-0.853,5.973-0.853,9.387-0.853l0,0c2.56,0,4.267,1.707,4.267,4.267
	c0,2.56-1.707,4.267-4.267,4.267s-5.973,0-8.533,0.853c-22.187,3.413-46.933,24.747-46.933,63.147c0,2.56-1.707,4.267-3.413,4.267
	c-31.573,3.413-58.027,28.16-63.147,59.733c-1.707,7.68-1.707,15.36-0.853,23.04C43.52,189.379,41.813,191.94,39.253,191.94
	L39.253,191.94z M124.587,166.34c-1.707,0-4.267-1.707-4.267-3.413c-0.853-8.533-0.853-17.067,0.853-25.6
	c3.413-21.333,15.36-40.107,33.28-52.053c17.92-12.8,39.253-17.067,60.587-13.653c2.56,0,4.267,2.56,3.413,5.12
	c0,2.56-2.56,4.267-5.12,3.413c-18.773-3.413-38.4,0.853-54.613,11.947s-26.453,28.16-29.867,46.933
	c-1.707,7.68-1.707,15.36-0.853,23.04C128.853,163.779,127.147,166.34,124.587,166.34L124.587,166.34z M302.933,99.779
	c-0.853,0-1.707,0-2.56-0.853c-1.707-0.853-2.56-3.413-1.707-5.973c6.827-11.093,8.533-23.893,6.827-36.693
	c-2.56-14.507-10.24-27.307-22.187-35.84c-11.947-8.533-26.453-11.947-40.96-9.387c-20.48,3.413-37.547,17.067-43.52,36.693
	c-0.853,2.56-3.413,3.413-5.12,2.56c-2.56-0.853-3.413-3.413-2.56-5.12c7.68-22.187,26.453-38.4,50.347-41.813
	c17.067-2.56,33.28,1.707,46.933,11.093c13.653,10.24,23.04,24.747,25.6,40.96c2.56,14.507-0.853,29.867-7.68,41.813
	C305.493,98.926,303.787,99.779,302.933,99.779z"/>
</svg>