<?xml version="1.0" encoding="iso-8859-1"?>
<!-- Uploaded to: SVG Repo, www.svgrepo.com, Generator: SVG Repo Mixer Tools -->
<!DOCTYPE svg PUBLIC "-//W3C//DTD SVG 1.1//EN" "http://www.w3.org/Graphics/SVG/1.1/DTD/svg11.dtd">
<svg fill="#000000" height="800px" width="800px" version="1.1" id="Capa_1" xmlns="http://www.w3.org/2000/svg" xmlns:xlink="http://www.w3.org/1999/xlink" 
	 viewBox="0 0 379.59 379.59" xml:space="preserve">
<g>
	<g>
		<path d="M178.316,213.867h-20.662l-10.334-17.9c-1.426-2.467-4.039-3.818-6.699-3.748c-1.211,0.03-2.432,0.355-3.555,1.003
			c-3.586,2.071-4.816,6.658-2.744,10.245l10.338,17.907l-10.33,17.894c-2.072,3.587-0.842,8.174,2.744,10.245
			c1.182,0.682,2.471,1.006,3.744,1.006c2.592,0,5.113-1.345,6.502-3.751l10.334-17.9h20.662c4.143,0,7.5-3.358,7.5-7.5
			C185.816,217.225,182.459,213.867,178.316,213.867z"/>
		<path d="M178.316,87.58h-25c-2.68,0-5.154,1.43-6.494,3.75l-12.5,21.65c-2.072,3.587-0.842,8.174,2.744,10.245
			c1.182,0.682,2.471,1.006,3.744,1.006c2.592,0,5.113-1.345,6.502-3.751l10.334-17.9h20.67c4.143,0,7.5-3.357,7.5-7.5
			C185.816,90.938,182.459,87.58,178.316,87.58z"/>
		<path d="M201.228,102.58h20.67l10.336,17.9c1.389,2.406,3.91,3.751,6.502,3.751c1.271,0,2.563-0.324,3.742-1.006
			c3.588-2.071,4.816-6.658,2.746-10.245l-12.5-21.65c-1.34-2.32-3.816-3.75-6.496-3.75h-25c-4.143,0-7.5,3.357-7.5,7.5
			C193.728,99.223,197.085,102.58,201.228,102.58z"/>
		<path d="M68.957,277.01h-20.67l-10.335-17.9c-2.071-3.588-6.659-4.814-10.245-2.745c-3.587,2.071-4.816,6.658-2.745,10.245
			l12.5,21.65c1.34,2.32,3.815,3.75,6.495,3.75h25c4.143,0,7.5-3.357,7.5-7.5C76.457,280.367,73.1,277.01,68.957,277.01z"/>
		<path d="M26.495,239.268l-10.335-17.9l10.335-17.9c2.071-3.587,0.842-8.174-2.745-10.245c-3.589-2.071-8.175-0.844-10.245,2.745
			l-12.5,21.65c-1.34,2.32-1.34,5.18,0,7.5l12.5,21.65c1.39,2.406,3.91,3.751,6.502,3.751c1.273,0,2.563-0.324,3.743-1.006
			C27.337,247.442,28.566,242.855,26.495,239.268z"/>
		<path d="M68.957,150.723h-25c-2.68,0-5.155,1.43-6.495,3.75l-12.5,21.65c-2.071,3.587-0.842,8.174,2.745,10.245
			c1.182,0.682,2.471,1.006,3.743,1.006c2.592,0,5.113-1.345,6.502-3.751l10.335-17.9h20.67c4.143,0,7.5-3.357,7.5-7.5
			C76.457,154.08,73.1,150.723,68.957,150.723z"/>
		<path d="M91.867,165.723h20.662l10.335,17.9c1.389,2.406,3.91,3.751,6.502,3.751c0,0,0.002,0,0.004,0c0,0,0.002,0,0.004,0
			c1.271,0,2.563-0.324,3.742-1.006c3.588-2.071,4.816-6.658,2.746-10.245l-10.34-17.907l10.332-17.894
			c2.07-3.587,0.842-8.174-2.746-10.245c-3.59-2.07-8.174-0.844-10.244,2.745l-10.335,17.9H91.867c-4.143,0-7.5,3.357-7.5,7.5
			C84.367,162.365,87.725,165.723,91.867,165.723z"/>
		<path d="M133.117,256.364c-3.588-2.07-8.174-0.843-10.244,2.745l-10.335,17.9h-20.67c-4.143,0-7.5,3.358-7.5,7.5
			c0,4.143,3.357,7.5,7.5,7.5h25c2.68,0,5.156-1.43,6.496-3.75l12.5-21.65C137.933,263.023,136.705,258.436,133.117,256.364z"/>
		<path d="M287.72,277.01h-20.67l-10.334-17.9c-2.072-3.588-6.66-4.814-10.246-2.745c-3.586,2.071-4.816,6.658-2.744,10.245
			l12.5,21.65c1.34,2.32,3.815,3.75,6.494,3.75h25c4.143,0,7.5-3.357,7.5-7.5C295.22,280.367,291.863,277.01,287.72,277.01z"/>
		<path d="M245.259,239.268l-10.336-17.9l10.336-17.9c2.07-3.587,0.842-8.174-2.746-10.245c-0.906-0.523-1.877-0.835-2.855-0.952
			c-2.902-0.362-5.871,1.003-7.424,3.695l-10.336,17.902h-20.67c-4.143,0-7.5,3.357-7.5,7.5c0,4.142,3.357,7.5,7.5,7.5h20.705
			l10.336,17.9c1.389,2.406,3.91,3.751,6.502,3.751c1.271,0,2.563-0.324,3.742-1.006
			C246.101,247.442,247.33,242.855,245.259,239.268z"/>
		<path d="M287.72,150.723h-20.707l-10.334-17.9c-2.072-3.588-6.66-4.814-10.246-2.745c-3.586,2.071-4.816,6.658-2.744,10.245
			l10.334,17.9l-10.334,17.9c-2.072,3.587-0.842,8.174,2.744,10.245c1.182,0.682,2.471,1.006,3.744,1.006
			c0.006,0,0.012-0.001,0.018-0.001c0.006,0,0.014,0.001,0.02,0.001c2.592,0,5.113-1.345,6.502-3.751l10.334-17.9h20.67
			c4.143,0,7.5-3.357,7.5-7.5C295.22,154.08,291.863,150.723,287.72,150.723z"/>
		<path d="M310.632,165.723h20.67l10.336,17.9c1.389,2.406,3.91,3.751,6.502,3.751c1.272,0,2.563-0.324,3.742-1.006
			c3.588-2.071,4.816-6.658,2.746-10.245l-12.5-21.65c-1.34-2.32-3.816-3.75-6.496-3.75h-25c-4.143,0-7.5,3.357-7.5,7.5
			C303.132,162.365,306.49,165.723,310.632,165.723z"/>
		<path d="M378.585,217.617l-12.5-21.65c-2.072-3.587-6.66-4.816-10.246-2.745c-3.586,2.071-4.816,6.658-2.744,10.245l10.334,17.9
			l-10.334,17.9c-2.072,3.587-0.842,8.174,2.744,10.245c1.182,0.682,2.471,1.006,3.744,1.006c2.592,0,5.113-1.345,6.502-3.751
			l12.5-21.65C379.925,222.797,379.925,219.938,378.585,217.617z"/>
		<path d="M351.882,256.364c-3.588-2.07-8.174-0.843-10.244,2.745l-10.336,17.9h-20.67c-4.143,0-7.5,3.358-7.5,7.5
			c0,4.143,3.357,7.5,7.5,7.5h25c2.68,0,5.156-1.43,6.496-3.75l12.5-21.65C356.699,263.023,355.47,258.436,351.882,256.364z"/>
	</g>
</g>
</svg>