<?xml version="1.0" encoding="iso-8859-1"?>
<!-- Uploaded to: SVG Repo, www.svgrepo.com, Generator: SVG Repo Mixer Tools -->
<svg height="800px" width="800px" version="1.1" id="Layer_1" xmlns="http://www.w3.org/2000/svg" xmlns:xlink="http://www.w3.org/1999/xlink" 
	 viewBox="0 0 510.507 510.507" xml:space="preserve">
<g transform="translate(1 1)">
	<g>
		<path style="fill:#FFE100;" d="M305.56,238.893L46.147,498.307c-2.56,2.56-5.973,2.56-8.533,0l-28.16-28.16
			c-2.56-2.56-2.56-5.973,0-8.533l260.267-258.56L305.56,238.893z"/>
		<path style="fill:#FFE100;" d="M263.747,160.387L263.747,160.387c10.24-10.24,26.453-10.24,35.84,0l48.64,48.64
			c10.24,10.24,10.24,26.453,0,35.84c-10.24,10.24-26.453,10.24-35.84,0l-48.64-48.64
			C253.507,186.84,253.507,170.627,263.747,160.387"/>
	</g>
	<path style="fill:#FDCC00;" d="M402.84,226.947L402.84,226.947c-10.24,10.24-26.453,10.24-35.84,0l-84.48-84.48
		c-10.24-10.24-10.24-26.453,0-35.84l0,0c10.24-10.24,26.453-10.24,35.84,0l84.48,84.48
		C412.227,200.493,412.227,216.707,402.84,226.947"/>
	<path style="fill:#FFE100;" d="M450.627,203.053L450.627,203.053c-10.24,10.24-26.453,10.24-35.84,0l-115.2-115.2
		c-10.24-10.24-10.24-26.453,0-35.84c10.24-10.24,26.453-10.24,35.84,0l115.2,114.347
		C460.867,176.6,460.867,192.813,450.627,203.053"/>
	<path style="fill:#FDCC00;" d="M474.52,154.413L474.52,154.413c-10.24,10.24-26.453,10.24-35.84,0l-84.48-84.48
		c-10.24-10.24-10.24-26.453,0-35.84c10.24-9.387,26.453-10.24,35.84,0l84.48,84.48C484.76,127.96,484.76,144.173,474.52,154.413"/>
	<path style="fill:#FFE100;" d="M493.293,99.8L493.293,99.8c-10.24,10.24-26.453,10.24-35.84,0l-48.64-48.64
		c-10.24-10.24-10.24-26.453,0-35.84c10.24-10.24,26.453-10.24,35.84,0l48.64,48.64C502.68,74.2,502.68,90.413,493.293,99.8"/>
	<path style="fill:#FFFFFF;" d="M18.84,472.707l259.413-259.413l-8.533-10.24L9.453,462.467c-2.56,2.56-2.56,5.973,0,8.533
		l9.387,9.387C17.133,478.68,17.133,474.413,18.84,472.707"/>
	<g>
		<path style="fill:#FFA800;" d="M296.173,229.507L35.907,489.773c-2.56,2.56-5.973,2.56-8.533,0l9.387,9.387
			c2.56,2.56,5.973,2.56,8.533,0L305.56,238.893L296.173,229.507z"/>
		<path style="fill:#FFA800;" d="M478.787,50.307c10.24,10.24,10.24,26.453,0,35.84C469.4,95.533,454.04,96.387,443.8,87
			l11.093,11.093c10.24,10.24,26.453,10.24,35.84,0s10.24-26.453,0-35.84L478.787,50.307z"/>
	</g>
	<path style="fill:#FFFFFF;" d="M442.947,14.467c-10.24-10.24-26.453-10.24-35.84,0l0,0c-10.24,10.24-10.24,26.453,0,35.84
		l14.507,14.507c-8.533-10.24-8.533-25.6,0.853-34.987c10.24-10.24,26.453-10.24,35.84,0L442.947,14.467z"/>
	<path style="fill:#FDCC00;" d="M461.72,140.76L461.72,140.76c-10.24,10.24-26.453,10.24-35.84,0l-58.027-57.173
		c-10.24-10.24-10.24-26.453,0-35.84l0,0c10.24-10.24,26.453-10.24,35.84,0l58.027,58.027
		C471.107,115.16,471.107,131.373,461.72,140.76"/>
	<path style="fill:#FFA800;" d="M440.387,152.707c10.24,10.24,26.453,10.24,35.84,0c10.24-10.24,10.24-26.453,0-35.84
		l-13.653-13.653c10.24,10.24,10.24,26.453,0,35.84c-10.24,10.24-26.453,10.24-35.84,0L440.387,152.707z"/>
	<path style="fill:#FFFFFF;" d="M391.747,32.387c-9.387-10.24-26.453-10.24-35.84,0l0,0c-10.24,10.24-10.24,26.453,0,35.84
		L369.56,81.88c-10.24-10.24-10.24-26.453,0-35.84c10.24-10.24,26.453-10.24,35.84,0L391.747,32.387z"/>
	<path style="fill:#FFA800;" d="M415.64,203.907c10.24,10.24,26.453,10.24,35.84,0c10.24-10.24,10.24-26.453,0-35.84l-13.653-13.653
		c10.24,10.24,10.24,26.453,0,35.84c-10.24,10.24-26.453,10.24-35.84,0L415.64,203.907z"/>
	<path style="fill:#FFFFFF;" d="M334.573,51.16c-10.24-10.24-26.453-10.24-35.84,0l0,0c-10.24,10.24-10.24,26.453,0,35.84
		l13.653,13.653c-10.24-10.24-10.24-26.453,0-35.84c10.24-10.24,26.453-10.24,35.84,0L334.573,51.16z"/>
	<path style="fill:#FFA800;" d="M364.44,226.947c10.24,10.24,26.453,10.24,35.84,0c10.24-10.24,10.24-26.453,0-35.84l-12.8-13.653
		c10.24,10.24,10.24,26.453,0,35.84c-10.24,10.24-26.453,10.24-35.84,0L364.44,226.947z"/>
	<path style="fill:#FFFFFF;" d="M317.507,102.36c-10.24-10.24-26.453-10.24-35.84,0l0,0c-10.24,10.24-10.24,26.453,0,35.84
		l13.653,13.653c-10.24-10.24-10.24-26.453,0-35.84c10.24-10.24,26.453-10.24,35.84,0L317.507,102.36z"/>
	<path style="fill:#FFA800;" d="M310.68,246.573c10.24,10.24,26.453,10.24,35.84,0c10.24-10.24,10.24-26.453,0-35.84l-13.653-13.653
		c10.24,10.24,10.24,26.453,0,35.84c-10.24,10.24-26.453,10.24-35.84,0L310.68,246.573z"/>
	<path style="fill:#FFFFFF;" d="M297.88,159.533c-10.24-10.24-26.453-10.24-35.84,0l0,0c-10.24,10.24-10.24,26.453,0,35.84
		l13.653,13.653c-10.24-10.24-10.24-26.453,0-35.84c10.24-10.24,26.453-10.24,35.84,0L297.88,159.533z"/>
	<path d="M474.52,116.013c-9.387,0-17.92-3.413-23.893-10.24L402.84,57.987c-6.827-6.827-10.24-15.36-10.24-23.893
		c0-9.387,3.413-17.92,10.24-23.893S418.2-0.04,426.733-0.04c9.387,0,17.92,3.413,23.893,10.24l48.64,47.787
		c13.653,13.653,13.653,34.987,0,48.64C492.44,112.6,483.907,116.013,474.52,116.013z M426.733,17.027
		c-4.267,0-8.533,1.707-11.947,5.12s-5.12,7.68-5.12,11.947s1.707,8.533,5.12,11.947l48.64,48.64c6.827,6.827,17.92,6.827,23.893,0
		c6.827-6.827,6.827-17.067,0-23.893l-48.64-48.64C435.267,18.733,431,17.027,426.733,17.027z"/>
	<path d="M456.6,170.627c-9.387,0-17.92-3.413-23.893-10.24l-84.48-84.48c-13.653-13.653-13.653-34.987,0-48.64
		c6.827-6.827,15.36-10.24,23.893-10.24c9.387,0,17.92,3.413,23.893,10.24l84.48,84.48c13.653,13.653,13.653,34.987,0,48.64
		C474.52,167.213,465.987,170.627,456.6,170.627z M372.12,34.947c-4.267,0-8.533,1.707-11.947,5.12
		c-6.827,6.827-6.827,17.067,0,23.893l84.48,84.48c6.827,6.827,17.92,6.827,23.893,0c6.827-6.827,6.827-17.067,0-23.893
		l-84.48-84.48C381.507,36.653,377.24,34.947,372.12,34.947z"/>
	<path d="M384.067,243.16c-9.387,0-17.92-3.413-23.893-10.24l-84.48-84.48c-13.653-13.653-13.653-34.987,0-48.64
		c6.827-6.827,15.36-10.24,23.893-10.24c9.387,0,17.92,3.413,23.893,10.24l84.48,84.48c13.653,13.653,13.653,34.987,0,48.64
		C401.987,238.893,393.453,243.16,384.067,243.16z M299.587,107.48c-4.267,0-8.533,1.707-11.947,5.12
		c-6.827,6.827-6.827,17.067,0,23.893l84.48,84.48c6.827,6.827,17.92,6.827,23.893,0c6.827-6.827,6.827-17.067,0-23.893
		l-84.48-84.48C308.973,109.187,304.707,107.48,299.587,107.48z"/>
	<path d="M330.307,261.08c-9.387,0-17.92-3.413-23.893-10.24l-48.64-47.787c-13.653-13.653-13.653-34.987,0-48.64
		c6.827-6.827,15.36-10.24,23.893-10.24c9.387,0,17.92,3.413,23.893,10.24l48.64,48.64c13.653,13.653,13.653,34.987,0,48.64
		C347.373,257.667,338.84,261.08,330.307,261.08z M281.667,161.24c-4.267,0-8.533,1.707-11.947,5.12
		c-6.827,6.827-6.827,17.067,0,23.893l48.64,48.64c6.827,6.827,17.92,6.827,23.893,0c6.827-6.827,6.827-17.067,0-23.893
		l-48.64-48.64C291.053,162.947,286.787,161.24,281.667,161.24z"/>
	<path d="M432.707,218.413c-9.387,0-17.92-3.413-23.893-10.24l-115.2-114.347c-13.653-13.653-13.653-34.987,0-48.64
		c6.827-6.827,15.36-10.24,23.893-10.24c9.387,0,17.92,3.413,23.893,10.24l115.2,115.2c6.827,6.827,10.24,15.36,10.24,23.893
		c0,8.533-3.413,17.92-10.24,23.893C450.627,215,442.093,218.413,432.707,218.413z M318.36,52.867c-4.267,0-8.533,1.707-11.947,5.12
		c-6.827,6.827-6.827,17.067,0,23.893L420.76,196.227c6.827,6.827,17.92,6.827,23.893,0c3.413-3.413,5.12-7.68,5.12-11.947
		c0-4.267-1.707-8.533-5.12-11.947L330.307,57.987C326.893,54.573,322.627,52.867,318.36,52.867z"/>
	<path d="M41.88,508.547c-3.413,0-7.68-1.707-10.24-4.267L3.48,476.12c-5.973-5.973-5.973-14.507,0-20.48L269.72,189.4l48.64,48.64
		L52.12,505.133C49.56,507.693,46.147,508.547,41.88,508.547z M17.987,466.733l23.893,23.893l251.733-251.733L269.72,215
		L17.987,466.733z"/>
</g>
</svg>