<?xml version="1.0" encoding="iso-8859-1"?>
<!-- Uploaded to: SVG Repo, www.svgrepo.com, Generator: SVG Repo Mixer Tools -->
<svg height="800px" width="800px" version="1.1" id="Layer_1" xmlns="http://www.w3.org/2000/svg" xmlns:xlink="http://www.w3.org/1999/xlink" 
	 viewBox="0 0 512 512" xml:space="preserve">
<g transform="translate(1 1)">
	<path style="fill:#FFE100;" d="M237.933,109.933c-18.773,0-34.133-15.36-34.133-34.133H84.333c0,18.773-15.36,34.133-34.133,34.133
		c-14.507,0-25.6,12.8-25.6,26.453v337.067c0,16.213,12.8,29.013,28.16,29.013h99.84h82.773c15.36,0,28.16-12.8,28.16-28.16v-337.92
		C263.533,122.733,252.44,109.933,237.933,109.933"/>
	<polygon style="fill:#FDCC00;" points="24.6,400.067 263.533,400.067 263.533,195.267 24.6,195.267 	"/>
	<path style="fill:#FFE100;" d="M220.867,75.8h-153.6C57.88,75.8,50.2,68.12,50.2,58.733l0,0c0-9.387,7.68-17.067,17.067-17.067
		h153.6c9.387,0,17.067,7.68,17.067,17.067l0,0C237.933,68.12,230.253,75.8,220.867,75.8"/>
	<path style="fill:#FFA800;" d="M220.867,41.667h-25.6c9.387,0,17.067,7.68,17.067,17.067S204.653,75.8,195.267,75.8h25.6
		c9.387,0,17.067-7.68,17.067-17.067S230.253,41.667,220.867,41.667"/>
	<path style="fill:#FFFFFF;" d="M67.267,41.667h25.6c-9.387,0-17.067,7.68-17.067,17.067S83.48,75.8,92.867,75.8h-25.6
		C57.88,75.8,50.2,68.12,50.2,58.733S57.88,41.667,67.267,41.667"/>
	<path style="fill:#FFA800;" d="M237.933,109.933c-18.773,0-34.133-15.36-34.133-34.133h-25.6c0,18.773,15.36,34.133,34.133,34.133
		c14.507,0,25.6,12.8,25.6,26.453v337.067c0,15.36-12.8,28.16-28.16,28.16h25.6c15.36,0,28.16-12.8,28.16-28.16V136.387
		C263.533,122.733,252.44,109.933,237.933,109.933"/>
	<path style="fill:#FFFFFF;" d="M50.2,109.933c18.773,0,34.133-15.36,34.133-34.133h25.6c0,18.773-15.36,34.133-34.133,34.133
		c-14.507,0-25.6,12.8-25.6,26.453v337.067c0,16.213,12.8,29.013,28.16,29.013h-25.6c-15.36,0-28.16-12.8-28.16-28.16v-337.92
		C24.6,122.733,35.693,109.933,50.2,109.933"/>
	<g>
		<polygon style="fill:#FFE100;" points="144.067,306.2 109.933,289.133 109.933,246.467 144.067,229.4 178.2,246.467 
			178.2,289.133 		"/>
		<polygon style="fill:#FFE100;" points="109.933,365.933 75.8,348.867 75.8,306.2 109.933,289.133 144.067,306.2 144.067,348.867 
					"/>
		<polygon style="fill:#FFE100;" points="178.2,365.933 144.067,348.867 144.067,306.2 178.2,289.133 212.333,306.2 
			212.333,348.867 		"/>
		<path style="fill:#FFE100;" d="M442.733,161.133h-68.267c-14.507,0-25.6-11.093-25.6-25.6l0,0c0-14.507,11.093-25.6,25.6-25.6
			h68.267c14.507,0,25.6,11.093,25.6,25.6l0,0C468.333,150.04,457.24,161.133,442.733,161.133"/>
		<path style="fill:#FFE100;" d="M459.8,109.933H357.4c-14.507,0-25.6-11.093-25.6-25.6l0,0c0-14.507,11.093-25.6,25.6-25.6h102.4
			c14.507,0,25.6,11.093,25.6,25.6l0,0C485.4,98.84,474.307,109.933,459.8,109.933"/>
		<path style="fill:#FFE100;" d="M442.733,58.733h-68.267c-14.507,0-25.6-11.093-25.6-25.6l0,0c0-14.507,11.093-25.6,25.6-25.6
			h68.267c14.507,0,25.6,11.093,25.6,25.6l0,0C468.333,47.64,457.24,58.733,442.733,58.733"/>
	</g>
	<g>
		<path style="fill:#FFA800;" d="M442.733,7.533h-25.6c14.507,0,25.6,11.093,25.6,25.6s-11.093,25.6-25.6,25.6h25.6
			c14.507,0,25.6-11.093,25.6-25.6S457.24,7.533,442.733,7.533"/>
		<path style="fill:#FFA800;" d="M459.8,58.733h-25.6c14.507,0,25.6,11.093,25.6,25.6s-11.093,25.6-25.6,25.6h25.6
			c14.507,0,25.6-11.093,25.6-25.6S474.307,58.733,459.8,58.733"/>
		<path style="fill:#FFA800;" d="M442.733,109.933h-25.6c14.507,0,25.6,11.093,25.6,25.6s-11.093,25.6-25.6,25.6h25.6
			c14.507,0,25.6-11.093,25.6-25.6S457.24,109.933,442.733,109.933"/>
	</g>
	<polygon style="fill:#FFE100;" points="383,502.467 434.2,502.467 434.2,161.133 383,161.133 	"/>
	<polygon style="fill:#FFA800;" points="417.133,502.467 434.2,502.467 434.2,161.133 417.133,161.133 	"/>
	<path d="M220.867,84.333h-153.6c-14.507,0-25.6-11.093-25.6-25.6s11.093-25.6,25.6-25.6h153.6c14.507,0,25.6,11.093,25.6,25.6
		S235.373,84.333,220.867,84.333z M67.267,50.2c-5.12,0-8.533,3.413-8.533,8.533s3.413,8.533,8.533,8.533h153.6
		c5.12,0,8.533-3.413,8.533-8.533s-3.413-8.533-8.533-8.533H67.267z"/>
	<path d="M235.373,511H52.76c-20.48,0-36.693-16.213-36.693-36.693v-337.92c0-19.627,15.36-34.987,34.133-34.987
		c14.507,0,25.6-11.093,25.6-25.6v-8.533h136.533V75.8c0,6.827,2.56,13.653,7.68,17.92c5.12,5.12,11.093,7.68,17.92,7.68
		c18.773,0,34.133,16.213,34.133,34.987v337.067C272.067,494.787,255.853,511,235.373,511z M50.2,118.467
		c-9.387,0-17.067,8.533-17.067,17.92v337.067c0,11.093,9.387,20.48,19.627,20.48h181.76c11.093,0,19.627-9.387,19.627-19.627
		v-337.92c0-10.24-7.68-17.92-17.067-17.92c-11.947,0-22.187-4.267-30.72-12.8c-5.973-5.973-10.24-13.653-11.947-21.333h-102.4
		C87.747,103.96,70.68,118.467,50.2,118.467z"/>
	<path d="M144.067,314.733c-1.707,0-2.56,0-3.413-0.853l-34.133-17.067c-3.413-1.707-5.12-4.267-5.12-7.68v-42.667
		c0-3.413,1.707-5.973,5.12-7.68l34.133-17.067c2.56-0.853,5.12-0.853,7.68,0l34.133,17.067c2.56,1.707,5.12,4.267,5.12,7.68v42.667
		c0,3.413-1.707,5.973-5.12,7.68l-34.133,17.067C146.627,314.733,145.773,314.733,144.067,314.733z M118.467,284.013l25.6,12.8
		l25.6-12.8v-32.427l-25.6-12.8l-25.6,12.8V284.013z"/>
	<path d="M109.933,374.467c-1.707,0-2.56,0-3.413-0.853l-34.133-17.067c-3.413-1.707-5.12-4.267-5.12-7.68V306.2
		c0-3.413,1.707-5.973,5.12-7.68l34.133-17.067c2.56-0.853,5.12-0.853,7.68,0l34.133,17.067c2.56,1.707,5.12,4.267,5.12,7.68v42.667
		c0,3.413-1.707,5.973-5.12,7.68L114.2,373.613C112.493,374.467,111.64,374.467,109.933,374.467z M84.333,343.747l25.6,12.8
		l25.6-12.8V311.32l-25.6-12.8l-25.6,12.8V343.747z"/>
	<path d="M178.2,374.467c-1.707,0-2.56,0-3.413-0.853l-34.133-17.067c-3.413-1.707-5.12-4.267-5.12-7.68V306.2
		c0-3.413,1.707-5.973,5.12-7.68l34.133-17.067c2.56-0.853,5.12-0.853,7.68,0L216.6,298.52c2.56,1.707,5.12,4.267,5.12,7.68v42.667
		c0,3.413-1.707,5.973-5.12,7.68l-34.133,17.067C180.76,374.467,179.907,374.467,178.2,374.467z M152.6,343.747l25.6,12.8l25.6-12.8
		V311.32l-25.6-12.8l-25.6,12.8V343.747z"/>
	<path d="M263.533,408.6H24.6c-5.12,0-8.533-3.413-8.533-8.533v-204.8c0-5.12,3.413-8.533,8.533-8.533h238.933
		c5.12,0,8.533,3.413,8.533,8.533v204.8C272.067,405.187,268.653,408.6,263.533,408.6z M33.133,391.533H255V203.8H33.133V391.533z"
		/>
	<path d="M442.733,67.267h-68.267c-18.773,0-34.133-15.36-34.133-34.133S355.693-1,374.467-1h68.267
		c18.773,0,34.133,15.36,34.133,34.133S461.507,67.267,442.733,67.267z M374.467,16.067c-9.387,0-17.067,7.68-17.067,17.067
		S365.08,50.2,374.467,50.2h68.267c9.387,0,17.067-7.68,17.067-17.067s-7.68-17.067-17.067-17.067H374.467z"/>
	<path d="M442.733,169.667h-68.267c-18.773,0-34.133-15.36-34.133-34.133s15.36-34.133,34.133-34.133h68.267
		c18.773,0,34.133,15.36,34.133,34.133S461.507,169.667,442.733,169.667z M374.467,118.467c-9.387,0-17.067,7.68-17.067,17.067
		s7.68,17.067,17.067,17.067h68.267c9.387,0,17.067-7.68,17.067-17.067s-7.68-17.067-17.067-17.067H374.467z"/>
	<path d="M459.8,118.467H357.4c-18.773,0-34.133-15.36-34.133-34.133S338.627,50.2,357.4,50.2h102.4
		c18.773,0,34.133,15.36,34.133,34.133S478.573,118.467,459.8,118.467z M357.4,67.267c-9.387,0-17.067,7.68-17.067,17.067
		s7.68,17.067,17.067,17.067h102.4c9.387,0,17.067-7.68,17.067-17.067s-7.68-17.067-17.067-17.067H357.4z"/>
	<path d="M434.2,511H383c-5.12,0-8.533-3.413-8.533-8.533V161.133c0-5.12,3.413-8.533,8.533-8.533h51.2
		c5.12,0,8.533,3.413,8.533,8.533v341.333C442.733,507.587,439.32,511,434.2,511z M391.533,493.933h34.133V169.667h-34.133V493.933z
		"/>
</g>
</svg>