<?xml version="1.0" encoding="iso-8859-1"?>
<!-- Uploaded to: SVG Repo, www.svgrepo.com, Generator: SVG Repo Mixer Tools -->
<svg version="1.1" id="Layer_1" xmlns="http://www.w3.org/2000/svg" xmlns:xlink="http://www.w3.org/1999/xlink" 
	 viewBox="0 0 512 512" xml:space="preserve">
<path style="fill:#FFA22B;" d="M474.959,263.895c0-82.123-45.22-153.673-112.111-191.144V53.313H149.154v19.438
	C98.384,101.191,60.105,149.267,44.6,206.696h217.717v123.819H47.377c14.446,45.265,43.206,84.137,80.969,111.283h-15.511v60.003
	h286.329v-60.003h-15.511C438.944,402.055,474.959,337.184,474.959,263.895z"/>
<path style="fill:#EDDABF;" d="M262.317,206.696H44.6c-4.923,18.234-7.557,37.409-7.557,57.199c0,23.232,3.63,45.613,10.334,66.62
	h214.939V206.696H262.317z"/>
<rect x="130.163" y="10.199" style="fill:#FFCC85;" width="251.676" height="43.112"/>
<g>
	<path style="fill:#570029;" d="M373.047,66.864v-3.351h8.793c5.632,0,10.199-4.567,10.199-10.199V10.199
		C392.039,4.567,387.472,0,381.84,0H130.162c-5.632,0-10.199,4.567-10.199,10.199v43.113c0,5.632,4.567,10.199,10.199,10.199h8.793
		v3.352C87.999,97.222,50.18,146.898,34.753,204.037c-5.249,19.436-7.908,39.575-7.908,59.858c0,23.774,3.639,47.231,10.816,69.72
		c12.531,39.265,35.943,74.87,66.896,102.226c-1.209,1.676-1.919,3.733-1.919,5.956v60.004c0,5.632,4.567,10.199,10.199,10.199
		h286.328c5.632,0,10.199-4.567,10.199-10.199v-60.003c0-2.221-0.71-4.275-1.915-5.951c21.011-18.545,38.639-40.923,51.623-65.683
		c17.064-32.54,26.084-69.287,26.084-106.268C485.158,183.053,442.356,108.113,373.047,66.864z M140.361,43.113V20.398h231.279
		v22.715H140.361z M47.735,278.305h93.965c5.632,0,10.199-4.567,10.199-10.199c0-5.632-4.567-10.199-10.199-10.199H47.328
		c0.393-13.852,2.146-27.594,5.233-41.012h199.556v103.422H54.967C51.129,306.615,48.709,292.553,47.735,278.305z M377.702,433.516
		c-3.595,2.584-5.113,7.194-3.755,11.41c1.357,4.214,5.28,7.072,9.709,7.072h5.311v39.604h-265.93v-39.605h5.311
		c4.428,0,8.351-2.858,9.709-7.072c1.358-4.215-0.159-8.824-3.755-11.41c-32.426-23.308-57.778-55.898-72.446-92.802h200.463
		c5.632,0,10.199-4.567,10.199-10.199V206.695c0-5.632-4.567-10.199-10.199-10.199H58.377
		c16.532-48.324,50.866-89.698,95.762-114.847c3.22-1.804,5.214-5.207,5.214-8.899v-9.238h193.295v9.238
		c0,3.691,1.994,7.094,5.214,8.899c65.936,36.937,106.897,106.77,106.897,182.248C464.759,330.922,432.214,394.332,377.702,433.516z
		"/>
	<path style="fill:#570029;" d="M187.76,257.906h-8.605c-5.632,0-10.199,4.567-10.199,10.199c0,5.632,4.567,10.199,10.199,10.199
		h8.605c5.632,0,10.199-4.567,10.199-10.199C197.959,262.473,193.392,257.906,187.76,257.906z"/>
</g>
</svg>