<?xml version="1.0" encoding="iso-8859-1"?>
<!-- Uploaded to: SVG Repo, www.svgrepo.com, Generator: SVG Repo Mixer Tools -->
<svg fill="#000000" height="800px" width="800px" version="1.1" id="Layer_1" xmlns="http://www.w3.org/2000/svg" xmlns:xlink="http://www.w3.org/1999/xlink" 
	 viewBox="0 0 237.272 237.272" xml:space="preserve">
<g>
	<g>
		<path d="M223.982,142.444c0.636-1.38,1.548-2.64,2.504-3.976c0.844-1.172,1.712-2.38,2.44-3.736
			c3.204-5.968,3.1-14.192-0.268-21.996c-1.256-2.912-2.88-5.576-4.64-8.136c3.06-0.372,5.992-1.772,8.38-4.276
			c3.532-3.712,5.316-8.968,4.78-14.064c-0.968-9.196-8.956-17.356-17.8-18.192c-2.204-0.2-4.352-0.008-6.428,0.184
			c-2.728,0.256-5.296,0.492-7.74-0.204c-0.052-0.016-0.096-0.032-0.136-0.044c0.048-0.068,0.108-0.144,0.192-0.228
			c1.116-1.196,2.576-2.108,4.116-3.076c2.436-1.528,4.956-3.104,6.508-5.996c3.168-5.904-0.152-13.804-5.112-17.208
			c-4.508-3.088-10.584-3.62-16.66-1.472c-3.94,1.4-7.452,3.66-10.848,5.852c-0.944,0.608-1.892,1.22-2.844,1.808
			c-3.116,1.928-6.736,3.896-10.604,4.54c0.608-1.164,1.644-2.236,2.772-3.404c1.244-1.28,2.524-2.608,3.452-4.272
			c3.416-6.1,0.368-14.296-4.62-18.12c-4.684-3.588-11.184-4.384-17.376-2.1c-5.4,1.984-9.796,5.776-13.836,9.492l-0.544,0.5
			c-1.832,1.688-3.564,3.28-5.484,4.548c-0.94,0.616-1.2,0.536-1.404,0.236c-0.248-0.672-0.136-1.772,0.252-2.46
			c0.336-0.584,0.756-1.112,1.172-1.644c0.88-1.124,1.88-2.404,2.3-4.144c0.504-2.092-0.004-4.324-1.428-6.272
			c-1.564-2.14-4.02-3.58-6.412-3.752c-3.44-0.252-7.004,1.464-10.452,5.1c-6.272,6.616-10.028,16.04-10.476,25.804
			c-10.996-4.784-20.256-9.8-26.164-14.38c-0.12-0.284-0.22-0.592-0.352-0.86l-0.46,0.232c-1.256-1.02-2.348-2.016-3.24-2.98
			c-1.788-1.932-2.692-3.648-2.612-4.964l-2.828-0.172c-0.128,2.136,1,4.516,3.36,7.064c1.02,1.1,2.312,2.248,3.792,3.42
			c2.136,5.692,1.632,15.004-0.636,26.356c-9.032-4.504-19.668-5.916-29.512-3.72c-5.592,1.248-9.488,3.608-11.568,7.016
			c-1.524,2.484-1.808,5.772-0.752,8.584c0.88,2.324,2.556,3.968,4.716,4.636c1.864,0.584,3.704,0.34,5.332,0.124
			c0.792-0.1,1.492-0.212,2.392-0.204c0.932,0.012,2.064,0.528,2.52,1.156c0.204,0.276,0.16,0.416,0.132,0.492
			c-0.112,0.372-0.676,0.788-1.668,1.248c-2.568,1.188-5.276,1.972-8.148,2.808l-0.8,0.232c-6.192,1.808-12.696,3.916-18.196,8.008
			c-6.252,4.652-9.924,11.328-9.828,17.852c0.116,7.804,6.472,14.78,13.596,14.928c2.128-0.028,4.236-0.448,6.256-0.916
			c2-0.468,3.824-0.892,5.408-0.76c-3.38,3.676-7.92,6.224-12.056,8.26c-1.204,0.592-2.42,1.168-3.636,1.744
			c-4.368,2.06-8.88,4.188-12.856,7.212c-6.068,4.608-9.68,10.732-9.92,16.8c-0.152,3.872,1.368,7.92,4.06,10.832
			c2.304,2.492,5.272,3.924,8.356,4.048c3.656,0.088,6.8-1.396,9.852-2.88c1.996-0.972,3.884-1.892,5.832-2.316
			c0.212-0.048,0.388-0.068,0.524-0.076c-0.024,0.088-0.06,0.196-0.108,0.32c-1.076,2.872-3.104,5.292-5.252,7.86
			c-1.596,1.908-3.248,3.88-4.56,6.116c-5.288,9.052-3.192,21.484,4.676,27.708c3.188,2.528,7.408,3.9,11.74,3.9
			c1.132,0,2.276-0.092,3.416-0.288c5.176-0.88,9.608-3.688,12.156-7.708c2.488-3.924,3.236-8.56,3.892-12.644l1.992-12.34
			c5.152,5.692,12.324,9.568,19.924,10.636c1.432,0.2,3.112,0.304,4.648-0.508c2.036-1.072,2.884-3.244,3.344-4.784
			c1.688-5.684,1.724-12.136,0.112-20.316c-1.744-8.856-4.76-17.312-9.004-25.224c0.78,0.452,1.56,0.916,2.328,1.372
			c4.684,2.788,9.524,5.668,15.248,5.772c0.092,0,0.188,0.004,0.276,0.004c1.94,0,3.872-0.444,5.724-1.172
			c0.364,0.644,0.696,1.304,1.068,1.944c3.076,5.284,6.672,10.54,12.136,13.184c6.084,2.948,12.86,2.028,19.416,1.132
			c6.892-0.936,13.404-1.82,18.336,1.9l10.112,7.64l-7.296-10.364c-1.448-2.06-0.516-5.32,1.152-7.476
			c1.06-1.364,2.384-2.536,3.78-3.776c1.216-1.08,2.476-2.196,3.604-3.492c3.216-3.688,5.12-8.716,5.584-14.28
			c2.808,3.8,5.732,7.512,8.88,11.036c3.688,4.14,7.832,8.16,13.124,9.556c5.9,1.56,11.596-0.468,17.116-2.424
			c5.704-2.024,11.088-3.932,15.988-1.556l11.6,5.64l-9.372-8.868C222.818,147.54,222.986,144.584,223.982,142.444z M121.098,28.664
			c2.596-2.732,5.052-4.06,7.292-3.876c1.24,0.084,2.604,0.924,3.488,2.132c0.42,0.576,1.084,1.732,0.772,2.996
			c-0.22,0.908-0.844,1.708-1.572,2.632c-0.532,0.684-1.06,1.372-1.488,2.12c-0.976,1.712-1.188,4.052-0.524,5.824
			c0.484,1.296,1.416,2.24,2.616,2.656c2.092,0.732,3.964-0.504,4.676-0.964c2.2-1.444,4.128-3.228,5.996-4.948l0.544-0.496
			c3.748-3.444,7.8-6.956,12.516-8.688c4.912-1.804,9.992-1.236,13.592,1.524c3.976,3.052,5.68,9.264,3.576,13.036
			c-0.68,1.216-1.732,2.3-2.848,3.452c-2.092,2.168-4.464,4.62-4.452,8.368l0.008,1.976h1.976
			c5.828-0.004,10.976-2.708,15.244-5.348c0.976-0.6,1.94-1.228,2.912-1.848c3.352-2.164,6.516-4.204,10.024-5.444
			c4.868-1.732,9.632-1.364,13.088,1.004c3.492,2.396,5.936,8.184,3.856,12.06c-1.052,1.96-3.024,3.2-5.112,4.508
			c-1.692,1.06-3.436,2.152-4.912,3.724c-1.324,1.416-1.748,3.048-1.16,4.488c0.464,1.124,1.452,1.904,2.932,2.316
			c3.132,0.884,6.204,0.608,9.172,0.336c1.984-0.188,3.852-0.356,5.692-0.184c6.944,0.656,13.46,7.368,14.232,14.652
			c0.416,3.952-0.972,8.036-3.712,10.916c-2.14,2.248-4.808,3.4-7.488,3.26c-0.284-0.016-0.568-0.088-0.852-0.128
			c-1.568-2.012-3.18-3.984-4.796-5.908l-8.948-10.644c1.16-3.028,1.184-6.768-0.796-9.284c-1.572-1.996-5.08-4.3-10.216-4.776
			c-3.152-0.296-7.372,0.068-12.652,2.116c-21.668-1.58-49.808-9.572-72.104-18.816C111.734,44.056,115.154,34.928,121.098,28.664z
			 M164.262,112.904l1.288-4.72l8.14,0.388l0.056-1.132l-7.888-0.376l3.42-12.536l16.596,0.768l0.056-1.132l-16.344-0.756
			l1.68-6.168l-1.092-0.296l-1.748,6.412l-6.78-0.312l-0.056,1.132l6.528,0.3l-3.42,12.536l-13.624-0.652
			c0.516-1.316,1.148-2.6,1.96-3.792c3.704-5.448,8.816-10.872,14.024-14.872l0.1-0.084c12.588-11.024,21.592-13.628,27.284-13.628
			c0.576,0,1.116,0.024,1.624,0.076c0.984,0.092,1.824,0.272,2.596,0.484l-0.9,6.76l-6.204-0.04l-0.008,1.132l6.06,0.036
			l-0.792,5.94l1.124,0.148l0.808-6.08l1.624,0.012l0.008-1.132l-1.48-0.008l0.856-6.42c2.464,0.924,3.604,2.244,3.764,2.448
			c1.4,1.776,0.716,5.468-0.82,7.248c-2.26,2.608-37.668,34.088-44.288,37.552c-2.036,1.068-3.504,1.352-4.6,0.928
			c-1.08-0.416-1.876-1.576-2.352-2.472c-2.028-3.812-2.232-8.648-0.792-13.124l13.72,0.656l-1.22,4.48L164.262,112.904z
			 M111.514,56.308c20.824,8.548,46.352,15.96,67.176,18.28c-4.176,2.228-8.872,5.428-14.104,10c-4.2,3.232-8.216,7.192-11.64,11.44
			l-2.98-5.5c2.044-2.98,3.004-7.028,1.436-10.176c-1.204-2.412-4.384-5.576-9.7-7.24c-5.548-1.728-14.72-2.216-28.648,3.54
			C111.462,69.968,110.918,63.088,111.514,56.308z M90.458,101.376l-3.276,8.528l1.056,0.408l3.312-8.616l10.872,3.144l-1.768,9.756
			c-6.516,3.304-11.792,5.78-14.036,6.408c-2.608,0.724-4.388,0.716-5.584-0.044c-1.144-0.72-1.76-2.188-2.084-3.292
			c-1.7-5.924,0.356-13.008,5.072-18.152L90.458,101.376z M84.898,98.592c0.104-0.1,0.188-0.212,0.292-0.312
			c2.768-2.588,5.944-5.084,9.284-7.336l-3.604,9.376L84.898,98.592z M103.522,105.152l8.212,2.376l0.312-1.084l-8.32-2.408
			l1.196-6.596l-1.116-0.204l-1.176,6.484l-10.668-3.084l3.936-10.24l-0.336-0.128c0.972-0.632,1.948-1.252,2.936-1.836
			l-0.004,0.084l1.504-0.956c1.492-0.84,2.992-1.644,4.484-2.344l0.112-0.06c2.896-1.592,5.588-2.9,8.132-4.024l-2.94,20.02
			l1.124,0.164l3.044-20.732c5.088-2.156,9.448-3.412,13.192-4.068l-1.996,20.772l1.124,0.108l2.024-21.08
			c1.868-0.276,3.58-0.404,5.124-0.404c2.888,0,5.232,0.416,7.092,0.996c5.44,1.7,7.152,4.868,7.328,5.224
			c1.184,2.368-0.552,6.264-2.772,7.916c-3.032,2.244-26.568,15.432-43.148,23.904L103.522,105.152z M93.798,75.528
			c-1.252-0.82-3.24-1.924-5.168-2.26c0.68-1.54,1.396-3.28,2.024-4.908c1.056,1.232,2.332,2.196,3.584,3.148
			c0.664,0.5,1.332,1.008,1.952,1.548c2.244,1.968,4.964,5.292,6.232,8.748c-0.6,0.284-1.188,0.628-1.784,0.932
			c-0.472-0.824-1.04-1.612-1.688-2.344C97.466,78.716,95.786,76.82,93.798,75.528z M82.846,41.732
			c6.236,4.216,14.884,8.692,24.812,12.956c-0.844,7.856-0.232,15.86,1.696,23.596c-1.412,0.656-2.88,1.392-4.38,2.172
			c-1.524-3.824-4.488-7.38-6.904-9.5c-0.676-0.588-1.396-1.132-2.112-1.68c-1.804-1.364-3.512-2.656-4.344-4.64l-1.44-3.444
			l-1.212,3.532c-0.528,1.54-1.264,3.44-2.024,5.28c-1.344-0.752-2.688-1.496-4.092-2.152c-0.54-0.352-1.12-0.644-1.676-0.972
			C83.222,56.82,83.99,48.088,82.846,41.732z M49.958,65.608c9.296-2.096,19.376-0.624,27.788,3.864
			c-0.052,0.228-0.1,0.452-0.152,0.684l-35.42-0.864C43.87,67.628,46.458,66.384,49.958,65.608z M46.306,78.164
			c-1.348,0.168-2.616,0.336-3.648,0.016c-0.092-0.028-0.156-0.084-0.24-0.116l3.908,0.096C46.318,78.16,46.314,78.16,46.306,78.164
			z M41.01,76.892c-0.22-0.324-0.4-0.66-0.516-0.964c-0.624-1.636-0.456-3.688,0.412-5.112c0.092-0.152,0.244-0.272,0.348-0.42
			l36.088,0.88c-0.496,2.1-1.052,4.264-1.644,6.464L41.01,76.892z M51.298,78.28l24.096,0.588c-0.488,1.784-0.996,3.588-1.54,5.424
			l0.004-0.152l-18.016-0.436c0.072-1.04-0.236-2.076-0.904-2.992C54.118,79.584,52.77,78.732,51.298,78.28z M51.858,88.388
			c1.3-0.596,3.076-1.624,3.74-3.556l17.96,0.436c-0.564,1.892-1.16,3.812-1.776,5.748l-26.168-0.364
			C47.714,90.016,49.822,89.332,51.858,88.388z M42.026,91.74l29.4,0.408c-0.552,1.704-1.116,3.424-1.7,5.16l-39.94-0.972
			C33.662,94.32,37.902,92.948,42.026,91.74z M25.418,99.016c0.8-0.596,1.672-1.08,2.528-1.592l41.4,1.008
			c-0.628,1.848-1.276,3.704-1.94,5.572l-46.04-1.124C22.518,101.488,23.858,100.176,25.418,99.016z M20.474,103.996l46.528,1.136
			c-0.64,1.78-1.288,3.572-1.956,5.368l-46.98-1.88C18.622,107.028,19.414,105.468,20.474,103.996z M17.19,113.624
			c-0.02-1.292,0.156-2.596,0.504-3.884l46.944,1.88c-0.664,1.776-1.344,3.552-2.028,5.332l-45.156-1.22
			C17.298,115.028,17.198,114.32,17.19,113.624z M32.178,123.832c-1.872,0.436-3.616,0.796-5.28,0.812
			c-1.292-0.028-2.504-0.392-3.616-0.972l9.16,0.1C32.354,123.792,32.266,123.812,32.178,123.832z M21.542,122.524
			c-1.744-1.448-3.044-3.492-3.752-5.652l44.384,1.2c-0.628,1.624-1.268,3.248-1.912,4.868L21.542,122.524z M42.866,124.28
			c-0.26-0.16-0.524-0.272-0.788-0.4l17.732,0.192c-0.528,1.324-1.064,2.648-1.604,3.968l-15.84,0.3
			c0.344-0.424,0.748-0.78,1.068-1.232l1.212-1.716L42.866,124.28z M41.37,129.492l16.372-0.308c-0.648,1.584-1.304,3.156-1.96,4.72
			l-19.092-0.16C38.374,132.516,39.926,131.072,41.37,129.492z M28.182,138.76c2.24-1.108,4.576-2.408,6.844-3.9l20.284,0.172
			c-0.584,1.38-1.168,2.748-1.752,4.112l-26.268,0.044C27.586,139.044,27.886,138.904,28.182,138.76z M24.482,140.528
			c0.144-0.068,0.284-0.136,0.428-0.204l28.156-0.044c-0.704,1.628-1.408,3.24-2.112,4.836l-36.336,0.624
			C17.678,143.764,20.998,142.172,24.482,140.528z M12.334,147.308c0.192-0.148,0.4-0.268,0.596-0.408l37.52-0.644
			c-0.78,1.76-1.564,3.5-2.34,5.216L6.922,152.94C8.298,150.92,10.106,149.004,12.334,147.308z M4.058,162.184
			c-0.024-0.36-0.084-0.724-0.072-1.08c0.088-2.348,0.856-4.728,2.184-7.004l41.416-1.48c-1.152,2.52-2.296,4.972-3.424,7.36
			L4.058,162.184z M93.258,146.46c-4.672-0.084-8.86-2.58-13.288-5.216c-2.76-1.64-5.616-3.34-8.696-4.496l-5.544-2.08l3.172,5
			c5.684,8.96,9.772,19.2,11.82,29.6c1.476,7.524,1.468,13.38-0.028,18.416c-0.4,1.336-0.852,2.124-1.392,2.408
			c-0.532,0.288-1.432,0.204-2.244,0.088c-8.052-1.132-15.552-5.844-20.068-12.604l-2.8-4.2l-3.52,21.804
			c-0.628,3.892-1.276,7.916-3.328,11.152c-1.944,3.076-5.4,5.232-9.468,5.92c-4.4,0.736-8.872-0.312-12.028-2.808
			c-6.376-5.048-8.04-15.184-3.708-22.596c1.136-1.944,2.608-3.708,4.168-5.568c2.268-2.712,4.616-5.512,5.932-9.012
			c0.604-1.62,0.556-2.988-0.156-4.072c-0.704-1.06-1.888-1.616-3.356-1.616c-0.464,0-0.956,0.056-1.468,0.168
			c-2.416,0.524-4.6,1.592-6.724,2.624c-2.728,1.324-5.292,2.596-7.96,2.476c-2.024-0.076-4.012-1.064-5.592-2.772
			c-1.48-1.6-2.472-3.652-2.844-5.768l39.468-2.172c-0.656,1.38-1.308,2.74-1.956,4.068l2.548,1.244
			c11.672-24.016,29.06-64.856,36.08-95.472c0.44,0.28,0.904,0.524,1.332,0.82l0.08-0.108c1.248,0.596,2.448,1.272,3.648,1.952
			c-0.08,0.168-0.168,0.372-0.244,0.532l-1.656,3.444l3.52-1.564c0.848-0.384,3.08,0.376,5.276,1.804
			c1.668,1.084,3.148,2.756,4.58,4.372c0.516,0.584,1.008,1.188,1.36,1.788c-5.652,3.152-11.104,7.064-15.696,11.356
			c-6.624,6.188-9.58,15.584-7.34,23.384c0.732,2.54,2.036,4.46,3.776,5.56c1.408,0.888,2.952,1.188,4.44,1.188
			c1.584,0,3.104-0.34,4.328-0.684c0.036-0.012,0.084-0.028,0.124-0.04c2.704,7.16,5.824,14.152,9.412,20.912
			C95.922,146.156,94.594,146.484,93.258,146.46z M158.502,147.34c-0.96,1.104-2.076,2.088-3.248,3.132
			c-1.472,1.308-2.992,2.66-4.28,4.316c-1.528,1.972-2.632,4.56-2.716,7.136c-5.292-1.936-11.22-1.12-16.988-0.34
			c-6.244,0.86-12.14,1.66-17.152-0.768c-4.732-2.292-7.868-7.192-10.432-11.604c-4.796-8.252-8.8-16.924-12.168-25.844
			c13.776-5.956,50.268-26.316,55.544-29.88l3.28,6.056c-0.188,0.268-0.408,0.524-0.588,0.796
			c-4.548,6.696-5.268,15.584-1.796,22.116c1.14,2.148,2.672,3.64,4.424,4.316c0.844,0.324,1.688,0.456,2.508,0.456
			c2.056,0,3.964-0.84,5.372-1.576c0.464-0.244,1.052-0.608,1.736-1.068c0.22,0.8,0.492,1.584,0.652,2.396
			C164.226,134.948,162.674,142.556,158.502,147.34z M220.382,140.772c-0.904,1.948-1.364,4.332-1.024,6.568
			c-4.896-0.64-9.744,1.084-14.484,2.756c-5.18,1.836-10.068,3.556-14.78,2.332c-4.272-1.128-7.896-4.684-11.172-8.36
			c-4.364-4.888-8.32-10.116-12.032-15.512c-0.1-0.78-0.192-1.556-0.348-2.34c-0.28-1.412-0.66-2.788-1.076-4.148
			c11.724-8.904,35.656-30.156,39.744-34.376l8.136,9.68c4.404,5.24,8.952,10.652,11.672,16.936
			c2.896,6.704,3.048,13.636,0.416,18.548c-0.604,1.124-1.364,2.18-2.168,3.296C222.242,137.576,221.178,139.052,220.382,140.772z"
			/>
	</g>
</g>
</svg>