<?xml version="1.0" encoding="iso-8859-1"?>
<!-- Uploaded to: SVG Repo, www.svgrepo.com, Generator: SVG Repo Mixer Tools -->
<svg height="800px" width="800px" version="1.1" id="Layer_1" xmlns="http://www.w3.org/2000/svg" xmlns:xlink="http://www.w3.org/1999/xlink" 
	 viewBox="0 0 512.001 512.001" xml:space="preserve">
<path style="fill:#B27214;" d="M445.968,212.843c0,6.026-0.616,12.151-1.885,18.312c-9.156-1.898-18.349-3.66-27.542-5.274
	c-53.101-9.341-106.817-13.999-160.534-13.999s-107.434,4.658-160.534,13.999c-9.205,1.614-18.386,3.377-27.555,5.274
	c-10.746-51.905,25.632-101.703,78.338-107.397c72.953-7.887,146.535-7.887,219.488,0
	C412.202,128.775,445.968,168.061,445.968,212.843z"/>
<path style="fill:#995C0D;" d="M224.302,123.759c23.522-2.544,47.11-4.254,70.72-5.157c-49.617-1.898-99.336-0.187-148.768,5.157
	c-52.706,5.693-89.084,55.491-78.338,107.397c9.168-1.898,18.349-3.66,27.555-5.274c16.223-2.854,32.505-5.266,48.826-7.246
	C141.238,171.492,175.856,128.992,224.302,123.759z"/>
<path style="fill:#F7B239;" d="M431.365,290.147c0,172.648-175.359,212.612-175.359,212.612S80.647,462.795,80.647,290.147
	c0-12.693,1.343-24.4,3.894-35.17c2.514-10.598,6.199-20.272,10.931-29.095c53.101-9.341,106.817-13.999,160.534-13.999
	s107.434,4.658,160.534,13.999c4.732,8.823,8.417,18.497,10.931,29.095C430.022,265.747,431.365,277.454,431.365,290.147z"/>
<g>
	<path style="fill:#E09B2D;" d="M142.594,275.798c0-13.549,0.869-26.046,2.519-37.544c1.022-7.108,2.343-13.827,3.942-20.176
		c-17.914,2.08-35.784,4.672-53.584,7.803c-4.732,8.823-8.417,18.497-10.931,29.095c-2.551,10.77-3.894,22.477-3.894,35.17
		c0,172.648,175.359,212.612,175.359,212.612S142.594,460.097,142.594,275.798z"/>
	<path style="fill:#E09B2D;" d="M427.471,254.976c-3.648-0.678-7.283-1.343-10.931-1.984
		c-53.101-9.341-106.817-13.999-160.534-13.999s-107.434,4.658-160.534,13.999c-3.648,0.641-7.295,1.306-10.931,1.984
		c2.514-10.598,6.199-20.272,10.931-29.095c53.101-9.341,106.817-13.999,160.534-13.999s107.434,4.658,160.534,13.999
		C421.272,234.705,424.957,244.379,427.471,254.976z"/>
</g>
<g>
	<path style="fill:#FFFFFF;" d="M327.287,444.277c-2.843,0-5.646-1.306-7.458-3.775c-3.02-4.115-2.133-9.899,1.982-12.92
		c42.838-31.444,66.104-73.635,69.154-125.401c0.299-5.096,4.672-8.986,9.77-8.683c5.096,0.301,8.984,4.674,8.683,9.77
		c-3.389,57.521-29.184,104.36-76.669,139.215C331.101,443.694,329.185,444.277,327.287,444.277z"/>
	<path style="fill:#FFFFFF;" d="M412.02,203.103c-3.845,0-7.433-2.417-8.746-6.256c-6.195-18.136-22.617-31.195-41.835-33.269
		c-5.075-0.548-8.745-5.107-8.196-10.181s5.099-8.746,10.181-8.197c26.327,2.842,48.836,20.77,57.342,45.672
		c1.65,4.831-0.928,10.084-5.759,11.734C414.018,202.943,413.011,203.103,412.02,203.103z"/>
</g>
<path style="fill:#333333;" d="M436.23,154.751c-16.417-22.54-41.745-37.188-69.492-40.186c-33.547-3.625-67.31-5.575-101.092-5.89
	c-0.105-8.812-1.094-26.776-6.698-45.659C248.242,26.93,225.995,5.181,194.613,0.119c-5.041-0.813-9.783,2.614-10.597,7.653
	s2.614,9.783,7.653,10.597c24.097,3.887,40.728,20.537,49.432,49.487c5.018,16.689,5.929,33.001,6.047,40.814
	c-34.046,0.291-68.074,2.243-101.884,5.895c-27.747,2.998-53.075,17.646-69.492,40.186c-16.385,22.497-22.545,51.03-16.901,78.283
	c0.905,4.366,4.751,7.369,9.04,7.369c0.621,0,1.252-0.063,1.884-0.193c3.38-0.7,6.762-1.373,10.146-2.035
	c-5.663,15.699-8.535,33.099-8.535,51.967c0,93.099,49.768,148.483,91.519,178.552c44.844,32.297,89.161,42.649,91.025,43.074
	c0.675,0.154,1.364,0.232,2.054,0.232c0.69,0,1.378-0.078,2.054-0.232c1.865-0.425,46.181-10.778,91.025-43.074
	c41.75-30.067,91.519-85.453,91.519-178.552c0-18.868-2.873-36.267-8.535-51.966c3.38,0.662,6.759,1.333,10.137,2.033
	c4.995,1.033,9.889-2.178,10.924-7.176C458.774,205.781,452.615,177.248,436.23,154.751z M422.119,290.143
	c0,37.577-8.727,71.577-25.939,101.057c-13.804,23.645-33.111,44.546-57.384,62.124c-36.599,26.505-73.779,37.498-82.79,39.899
	c-9.027-2.404-46.2-13.4-82.791-39.899c-24.273-17.578-43.581-38.48-57.385-62.124c-17.212-29.48-25.939-63.48-25.939-101.057
	c0-21.006,3.95-39.794,11.73-55.937c102.593-17.563,206.174-17.563,308.767,0.001C418.169,250.35,422.119,269.138,422.119,290.143z
	 M436.376,220.177c-59.871-11.762-120.124-17.644-180.373-17.644c-60.251,0-120.504,5.882-180.374,17.644
	c-1.723-19.288,3.581-38.745,15.087-54.544c13.355-18.336,33.96-30.251,56.535-32.691c72.162-7.797,145.341-7.797,217.503,0
	c22.575,2.439,43.18,14.354,56.535,32.691C432.794,181.432,438.098,200.889,436.376,220.177z"/>
<g>
	<circle style="fill:#FFFFFF;" cx="399.384" cy="272.379" r="9.242"/>
	<circle style="fill:#FFFFFF;" cx="332.124" cy="151.587" r="9.242"/>
</g>
</svg>