<?xml version="1.0" encoding="iso-8859-1"?>
<!-- Uploaded to: SVG Repo, www.svgrepo.com, Generator: SVG Repo Mixer Tools -->
<svg fill="#000000" height="800px" width="800px" version="1.1" id="Layer_1" xmlns="http://www.w3.org/2000/svg" xmlns:xlink="http://www.w3.org/1999/xlink" 
	 viewBox="0 0 511.998 511.998" xml:space="preserve">
<g>
	<g>
		<path d="M412.295,162.749c-1.627-3.477-5.57-5.216-9.237-4.057c-3.661,1.154-5.9,4.84-5.239,8.621
			c6.628,37.874-22.244,146.882-42.496,214.277c12.21-162.028,42.906-308.961,43.291-310.792c0.711-3.368-0.913-6.795-3.969-8.379
			c-3.055-1.583-6.792-0.933-9.133,1.59c-40.133,43.241-73.099,125.591-98.07,244.888c-1.012-15.352-2.477-32.291-4.597-49.93
			c-10.654-88.704-31.869-152.023-63.057-188.201c-2.197-2.547-5.802-3.366-8.881-2.009c-3.08,1.354-4.915,4.561-4.522,7.902
			c0.17,1.446,11.654,102.183,5.208,234.861c-9.177-61.101-25.577-142.936-51.795-187.946c-1.773-3.043-5.39-4.486-8.769-3.494
			c-3.379,0.99-5.646,4.156-5.496,7.674c0.069,1.616,4.485,109.536-2.058,220.078c-9.236-22.152-20.382-57.264-20.771-98.365
			c-0.03-3.139-1.973-5.942-4.902-7.071c-2.929-1.129-6.251-0.356-8.38,1.952c-1.662,1.803-10.359,12.649-18.31,49.308
			c-10.628,49.003-14.947,119.946-12.838,210.861c0.097,4.159,3.496,7.478,7.654,7.478c0.008,0,0.017,0,0.026,0l43.641-0.143
			c0.472,0.088,0.942,0.145,1.408,0.145c0.495,0,0.98-0.061,1.457-0.154l286.022-0.938c3.943-0.013,7.232-3.02,7.598-6.947
			C450.011,246.895,413.847,166.063,412.295,162.749z M124.972,496.559l-31.546,0.103c-2.011-103.902,5.271-163.742,11.828-195.835
			c1.486-7.275,3.002-13.492,4.478-18.784c6.779,50.627,26.243,87.275,31.622,96.643
			C138.009,420.969,132.836,462.216,124.972,496.559z M190.767,496.342l-50.089,0.164c7.666-34.716,12.727-75.901,16.014-117.958
			c0.147-0.686,0.205-1.391,0.16-2.097c6.211-80.957,5.912-164.798,5.021-211.699c30.096,81.111,42.806,213.087,43.923,225.208
			C202.317,424.609,197.449,460.393,190.767,496.342z M274.282,380.061c-8.959,55.218-13.501,99.884-15.001,116.056l-52.943,0.174
			c6.507-35.505,11.253-70.718,14.663-104.53c0.103-0.498,0.156-1.013,0.157-1.537c7.009-70.255,8.276-134.36,7.674-182.261
			c-0.557-44.466-2.751-80.787-4.578-104.185C276.27,194.411,274.441,369.737,274.282,380.061z M336.481,440.543
			c-0.791,18.51-1.276,37.013-1.379,55.326l-60.439,0.198c2.127-22.607,9.346-91.523,24.602-168.505
			c20.32-102.526,47.069-180.348,78.151-228.016c-11.364,61.036-34.858,200.633-40.893,340.032
			C336.491,439.901,336.473,440.222,336.481,440.543z M411.47,495.618l-61.053,0.2c0.102-17.808,0.563-35.799,1.323-53.801
			c4.569-11.424,21.438-63.964,35.905-118.337c11.23-42.209,18.899-77.055,22.971-104.315c1.008,6.356,1.987,13.38,2.899,21.119
			C418.947,286.659,422.926,368.174,411.47,495.618z"/>
	</g>
</g>
<g>
	<g>
		<path d="M164.41,2.79c-2.99-2.989-7.838-2.989-10.827,0l-7.127,7.127l-7.674-7.674c-2.99-2.991-7.838-2.99-10.827-0.001
			c-2.99,2.99-2.99,7.838,0,10.827l13.088,13.089c1.435,1.436,3.383,2.243,5.413,2.243c2.03,0,3.978-0.806,5.413-2.242
			l12.541-12.541C167.4,10.627,167.4,5.78,164.41,2.79z"/>
	</g>
</g>
<g>
	<g>
		<path d="M351.297,51.965c-2.991-2.989-7.838-2.989-10.828,0l-7.126,7.127l-7.674-7.675c-2.991-2.989-7.838-2.989-10.828,0
			c-2.99,2.991-2.99,7.838,0,10.828l13.087,13.089c1.495,1.494,3.455,2.242,5.414,2.242c1.959,0,3.919-0.747,5.414-2.242
			l12.541-12.541C354.287,59.802,354.287,54.955,351.297,51.965z"/>
	</g>
</g>
</svg>