<?xml version="1.0" encoding="iso-8859-1"?>
<!-- Uploaded to: SVG Repo, www.svgrepo.com, Generator: SVG Repo Mixer Tools -->
<svg height="800px" width="800px" version="1.1" id="Layer_1" xmlns="http://www.w3.org/2000/svg" xmlns:xlink="http://www.w3.org/1999/xlink" 
	 viewBox="0 0 512 512" xml:space="preserve">
<path style="fill:#3D7A94;" d="M256,4.267c-9.97,55.101-55.226,176.557-82.942,280.574v184.681L256,507.258l82.942-37.736V284.841
	C311.226,180.823,265.97,59.367,256,4.267z"/>
<g>
	<path style="fill:#0E4675;" d="M151.241,59.93c21.848,46.417,2.71,69.064-18.861,184.68c-7.621,40.847-7.133,77.791-0.594,110.345
		L256,507.247c0-107.676-57.513-164.879-68.692-265.213C174.286,125.145,185.729,97.91,151.241,59.93z"/>
	<path style="fill:#0E4675;" d="M379.619,244.609c-21.57-115.615-40.708-138.263-18.861-184.68
		c-34.486,37.98-23.044,65.215-36.066,182.102C313.514,342.366,256,399.568,256,507.245l124.214-152.292
		C386.751,322.399,387.24,285.456,379.619,244.609z"/>
</g>
<g>
	<path style="fill:#3D7A94;" d="M0,172.266c43.181,18.801,43.866,45.911,98.81,138.856
		c47.165,79.782,152.541,133.041,157.44,196.137c-78.883,6.123-171.672-46.694-202.45-173.283
		C28.292,229.062,35.78,202.89,0,172.266"/>
	<path style="fill:#3D7A94;" d="M512,172.266c-43.181,18.801-43.866,45.911-98.812,138.856
		c-47.165,79.782-152.541,133.041-157.44,196.137c78.883,6.123,171.673-46.694,202.45-173.283
		C483.708,229.062,476.22,202.89,512,172.266"/>
</g>
</svg>