<?xml version="1.0" encoding="iso-8859-1"?>
<!-- Uploaded to: SVG Repo, www.svgrepo.com, Generator: SVG Repo Mixer Tools -->
<svg height="800px" width="800px" version="1.1" id="Layer_1" xmlns="http://www.w3.org/2000/svg" xmlns:xlink="http://www.w3.org/1999/xlink" 
	 viewBox="0 0 512 512" xml:space="preserve">
<path style="fill:#A5BA6B;" d="M115.927,182.183c8.617,19.896,13.981,47.851,13.981,78.814c0,30.963-5.364,58.918-13.981,78.814
	h116.821c-8.617-19.896-13.981-47.851-13.981-78.814s5.364-58.918,13.981-78.814L115.927,182.183L115.927,182.183z"/>
<g>
	<path style="fill:#E0E381;" d="M115.927,24.832c8.617,19.896,13.981,47.851,13.981,78.814s-5.364,58.918-13.981,78.814h116.821
		c-8.617-19.896-13.981-47.851-13.981-78.814s5.364-58.918,13.981-78.814C232.748,24.832,115.927,24.832,115.927,24.832z"/>
	<path style="fill:#E0E381;" d="M115.927,339.535c8.617,19.896,13.981,47.851,13.981,78.814s-5.364,58.918-13.981,78.814h116.821
		c-8.617-19.896-13.981-47.851-13.981-78.814s5.364-58.918,13.981-78.814H115.927z"/>
</g>
<path style="fill:#A5BA6B;" d="M402.668,497.163c-8.617-19.896-13.981-47.851-13.981-78.814s5.364-58.918,13.981-78.814H285.846
	c8.617,19.896,13.981,47.851,13.981,78.814s-5.364,58.918-13.981,78.814L402.668,497.163L402.668,497.163z"/>
<path style="fill:#E0E381;" d="M402.668,339.812c-8.617-19.896-13.981-47.851-13.981-78.814s5.364-58.918,13.981-78.814H285.846
	c8.617,19.896,13.981,47.851,13.981,78.814s-5.364,58.918-13.981,78.814H402.668z"/>
<path style="fill:#A5BA6B;" d="M478.614,249.454c-29.845,29.845-87.89,20.191-87.89,20.191s-9.656-58.043,20.191-87.89
	s87.89-20.191,87.89-20.191S508.459,219.609,478.614,249.454z"/>
<path d="M510.342,159.646c-0.82-4.934-4.686-8.798-9.618-9.619c-2.542-0.422-61.042-9.72-95.26,20.804
	c-0.905-0.223-1.842-0.344-2.797-0.344H285.846c-3.939,0-7.615,1.983-9.777,5.276c-2.163,3.294-2.522,7.454-0.956,11.07
	c8.273,19.099,13.017,46.132,13.017,74.165c0,27.397-4.541,53.816-12.469,72.83c-0.931,1.662-1.431,3.5-1.485,5.363
	c-0.008,0.161-0.011,0.322-0.012,0.483c0.002,0.161,0.004,0.322,0.012,0.483c0.055,1.863,0.554,3.701,1.485,5.363
	c7.927,19.014,12.469,45.433,12.469,72.829c0,28.033-4.744,55.065-13.017,74.165c-1.566,3.615-1.206,7.776,0.956,11.07
	c2.162,3.294,5.838,5.276,9.777,5.276h116.821c3.939,0,7.615-1.983,9.777-5.276c2.163-3.294,2.522-7.454,0.956-11.07
	c-8.273-19.099-13.017-46.132-13.017-74.165c0-27.396,4.541-53.815,12.469-72.829c0.931-1.662,1.43-3.5,1.485-5.363
	c0.008-0.161,0.011-0.322,0.012-0.483c-0.002-0.161-0.003-0.322-0.012-0.483c-0.055-1.863-0.554-3.701-1.485-5.363
	c-5.823-13.965-9.816-31.919-11.523-51.332c3.197,0.202,6.883,0.345,10.931,0.345c21.69,0,53.609-4.098,74.626-25.115l0,0
	C520.597,224.012,510.776,162.258,510.342,159.646z M386.019,193.88c-2.178,7.255-3.98,15.016-5.389,23.15
	c-1.883,8.802-2.726,17.449-2.997,25.179c-0.422,6.156-0.642,12.431-0.642,18.788c0,24.244,3.131,47.347,8.948,66.842h-83.363
	c5.816-19.495,8.948-42.598,8.948-66.842c0-24.357-3.159-47.566-9.027-67.118L386.019,193.88L386.019,193.88z M302.496,485.466
	c5.869-19.552,9.027-42.761,9.027-67.118c0-24.244-3.131-47.346-8.948-66.84h83.363c-5.816,19.495-8.948,42.597-8.948,66.84
	c0,24.357,3.159,47.566,9.027,67.118H302.496z M470.343,241.183c-13.99,13.99-36.272,17.678-53.397,18.182l26.083-26.083
	c4.568-4.568,4.568-11.974,0-16.543c-4.568-4.566-11.974-4.566-16.541,0l-25.369,25.369c0.593-7.705,1.539-15.202,2.82-22.336
	c2.59-10.953,7.218-21.717,15.248-29.747c18.951-18.951,53.134-19.002,69.077-17.839
	C489.639,190.729,488.035,223.491,470.343,241.183z"/>
<path d="M461.415,210.06c-0.772,0-1.532-0.082-2.293-0.234c-0.749-0.152-1.485-0.373-2.187-0.666
	c-0.702-0.292-1.392-0.656-2.024-1.076c-0.632-0.421-1.24-0.912-1.778-1.45c-0.538-0.538-1.029-1.146-1.45-1.779
	c-0.421-0.633-0.784-1.31-1.076-2.022c-0.292-0.703-0.515-1.439-0.667-2.187c-0.152-0.749-0.234-1.521-0.234-2.281
	c0-0.76,0.082-1.532,0.234-2.293c0.152-0.737,0.374-1.474,0.667-2.187c0.292-0.702,0.655-1.38,1.076-2.012
	c0.421-0.643,0.912-1.241,1.45-1.779c0.538-0.538,1.146-1.029,1.778-1.462c0.632-0.42,1.322-0.784,2.024-1.076
	c0.702-0.292,1.439-0.513,2.187-0.666c1.509-0.305,3.065-0.305,4.573,0c0.749,0.152,1.485,0.373,2.187,0.666s1.38,0.656,2.024,1.076
	c0.632,0.433,1.24,0.924,1.778,1.462c0.538,0.538,1.018,1.136,1.45,1.779c0.421,0.632,0.784,1.31,1.076,2.012
	c0.292,0.713,0.515,1.45,0.667,2.187c0.152,0.76,0.222,1.532,0.222,2.293c0,0.76-0.07,1.533-0.222,2.281s-0.374,1.485-0.667,2.187
	c-0.292,0.712-0.655,1.391-1.076,2.022c-0.433,0.632-0.912,1.241-1.45,1.779c-0.538,0.538-1.146,1.029-1.778,1.45
	c-0.643,0.42-1.322,0.784-2.024,1.076s-1.439,0.513-2.187,0.666C462.937,209.977,462.177,210.06,461.415,210.06z"/>
<path style="fill:#A5BA6B;" d="M308.631,104.224c-29.845,29.845-87.89,20.191-87.89,20.191s-9.656-58.043,20.191-87.89
	s87.89-20.191,87.89-20.191S338.477,74.379,308.631,104.224z"/>
<path d="M291.429,64.833c-0.76,0-1.532-0.081-2.281-0.234c-0.749-0.152-1.485-0.373-2.199-0.666
	c-0.702-0.292-1.38-0.656-2.012-1.076c-0.643-0.433-1.24-0.924-1.778-1.462s-1.029-1.136-1.462-1.779
	c-0.421-0.632-0.772-1.31-1.064-2.012c-0.292-0.713-0.526-1.439-0.667-2.187c-0.152-0.76-0.234-1.521-0.234-2.293
	c0-0.76,0.082-1.532,0.234-2.281c0.14-0.749,0.374-1.485,0.667-2.187c0.292-0.712,0.643-1.391,1.064-2.022
	c0.433-0.643,0.924-1.241,1.462-1.779s1.135-1.029,1.778-1.449c0.632-0.421,1.31-0.785,2.012-1.077
	c0.714-0.292,1.45-0.513,2.187-0.666c1.509-0.304,3.064-0.304,4.573,0c0.749,0.152,1.485,0.373,2.187,0.666
	c0.713,0.292,1.392,0.656,2.023,1.077c0.643,0.42,1.24,0.911,1.778,1.449s1.029,1.136,1.45,1.779
	c0.421,0.632,0.784,1.322,1.076,2.022c0.292,0.703,0.515,1.439,0.667,2.187c0.152,0.75,0.234,1.521,0.234,2.281
	c0,0.772-0.082,1.532-0.234,2.293c-0.152,0.749-0.374,1.474-0.667,2.187c-0.292,0.702-0.655,1.38-1.076,2.012
	c-0.421,0.643-0.912,1.241-1.45,1.779s-1.135,1.029-1.778,1.462c-0.632,0.42-1.31,0.784-2.023,1.076
	c-0.702,0.292-1.439,0.513-2.187,0.666C292.96,64.753,292.189,64.833,291.429,64.833z"/>
<path style="fill:#E0E381;" d="M33.385,308.753c29.845,29.845,87.89,20.191,87.89,20.191s9.656-58.043-20.191-87.89
	s-87.89-20.191-87.89-20.191S3.54,278.907,33.385,308.753z"/>
<path d="M316.902,112.495L316.902,112.495c33.712-33.712,23.892-95.467,23.458-98.08c-0.82-4.934-4.686-8.798-9.619-9.619
	c-2.358-0.392-52.917-8.429-87.531,14.816c-0.205-0.411-0.43-0.813-0.685-1.201c-2.163-3.293-5.838-5.276-9.777-5.276h-116.82
	c-3.939,0-7.615,1.983-9.777,5.276s-2.522,7.454-0.956,11.07c8.273,19.099,13.017,46.132,13.017,74.165
	c0,27.395-4.542,53.814-12.469,72.83c-0.931,1.662-1.431,3.498-1.485,5.362c-0.008,0.161-0.011,0.322-0.012,0.483
	c0.002,0.161,0.004,0.322,0.012,0.483c0.055,1.863,0.554,3.701,1.485,5.362c6.133,14.711,10.23,33.852,11.773,54.456
	c-2.387-3.468-5.09-6.771-8.16-9.839c-33.713-33.712-95.467-23.892-98.08-23.458c-4.932,0.82-8.798,4.686-9.618,9.619
	c-0.435,2.612-10.254,64.365,23.458,98.08l0,0c21.019,21.019,52.935,25.115,74.626,25.115c1.634,0,3.21-0.023,4.718-0.064
	c0.236,1.199,0.674,2.357,1.282,3.445c7.928,19.015,12.469,45.434,12.469,72.83c0,28.032-4.745,55.064-13.017,74.165
	c-1.566,3.615-1.206,7.776,0.956,11.07c2.162,3.294,5.838,5.276,9.777,5.276h116.821c3.939,0,7.615-1.983,9.777-5.276
	c2.163-3.294,2.522-7.454,0.956-11.07c-8.273-19.101-13.017-46.133-13.017-74.165c0-27.395,4.542-53.814,12.469-72.83
	c0.931-1.662,1.431-3.498,1.485-5.362c0.008-0.161,0.011-0.322,0.012-0.483c-0.002-0.161-0.004-0.322-0.012-0.483
	c-0.055-1.863-0.554-3.701-1.485-5.362c-7.928-19.015-12.469-45.436-12.469-72.831c0-27.395,4.542-53.814,12.469-72.83
	c0.931-1.662,1.431-3.498,1.485-5.362c0.008-0.161,0.011-0.322,0.012-0.483c-0.002-0.161-0.004-0.322-0.012-0.483
	c-0.055-1.863-0.554-3.701-1.485-5.362c-4.579-10.984-8.023-24.434-10.116-39.125c2.842,0.156,6.017,0.26,9.459,0.26
	C263.965,137.611,295.886,133.511,316.902,112.495z M318.28,26.959c1.377,18.541-0.227,51.303-17.919,68.995l0,0
	c-13.989,13.99-36.272,17.679-53.399,18.184l26.085-26.085c4.568-4.568,4.568-11.974,0-16.543c-4.568-4.566-11.974-4.566-16.543,0
	l-25.442,25.444c0.647-16.951,4.49-38.505,18.141-52.156C268.154,25.844,302.335,25.791,318.28,26.959z M216.098,36.529
	c-5.869,19.552-9.027,42.761-9.027,67.118c0,24.242,3.132,47.346,8.948,66.84h-83.363c5.816-19.495,8.948-42.598,8.948-66.84
	c0-24.357-3.159-47.566-9.027-67.118H216.098z M133.243,327.838c0.118-0.931,0.249-2.057,0.38-3.356
	c5.197-18.766,7.982-40.62,7.982-63.486c0-24.242-3.132-47.346-8.948-66.84h83.363c-5.816,19.495-8.948,42.598-8.948,66.84
	c0,24.244,3.132,47.347,8.948,66.842H133.243z M23.813,231.481c15.986-1.158,50.084-1.074,69.002,17.844
	c13.652,13.652,17.496,35.209,18.143,52.159l-25.445-25.445c-4.568-4.565-11.974-4.566-16.541,0c-4.568,4.568-4.569,11.974,0,16.543
	l26.105,26.105c-17.966-0.635-40.015-4.8-53.419-18.203l0,0C22.737,281.561,22.654,247.457,23.813,231.481z M132.576,485.466
	c5.869-19.552,9.029-42.762,9.029-67.118c0-24.242-3.132-47.346-8.948-66.84h83.363c-5.816,19.495-8.948,42.598-8.948,66.84
	c0,24.356,3.159,47.566,9.029,67.118H132.576z"/>
<path d="M50.594,269.362c-0.772,0-1.532-0.082-2.293-0.234c-0.749-0.152-1.485-0.374-2.187-0.667
	c-0.702-0.292-1.38-0.655-2.024-1.076c-0.632-0.433-1.228-0.911-1.778-1.449c-0.538-0.551-1.018-1.146-1.45-1.779
	c-0.421-0.643-0.784-1.322-1.076-2.022c-0.292-0.703-0.515-1.439-0.667-2.187c-0.152-0.76-0.222-1.522-0.222-2.293
	c0-0.76,0.07-1.522,0.222-2.281c0.152-0.75,0.374-1.487,0.667-2.187c0.292-0.701,0.655-1.38,1.076-2.024
	c0.433-0.632,0.912-1.228,1.45-1.778c0.55-0.538,1.146-1.018,1.778-1.45c0.643-0.42,1.322-0.784,2.024-1.076
	c0.702-0.292,1.439-0.513,2.187-0.667c1.509-0.304,3.065-0.304,4.573,0c0.749,0.153,1.485,0.374,2.187,0.667
	c0.702,0.292,1.38,0.656,2.024,1.076c0.632,0.433,1.24,0.912,1.778,1.45c0.538,0.55,1.029,1.145,1.45,1.778
	c0.421,0.644,0.784,1.323,1.076,2.024c0.292,0.701,0.515,1.438,0.667,2.187c0.152,0.759,0.234,1.521,0.234,2.281
	c0,0.771-0.082,1.532-0.234,2.293c-0.152,0.749-0.374,1.485-0.667,2.187c-0.292,0.702-0.655,1.38-1.076,2.022
	c-0.421,0.632-0.912,1.228-1.45,1.779c-0.538,0.538-1.146,1.016-1.778,1.449c-0.643,0.421-1.322,0.784-2.024,1.076
	c-0.702,0.292-1.439,0.515-2.187,0.667C52.116,269.279,51.356,269.362,50.594,269.362z"/>
</svg>