<?xml version="1.0" encoding="iso-8859-1"?>
<!-- Uploaded to: SVG Repo, www.svgrepo.com, Generator: SVG Repo Mixer Tools -->
<svg height="800px" width="800px" version="1.1" id="Layer_1" xmlns="http://www.w3.org/2000/svg" xmlns:xlink="http://www.w3.org/1999/xlink" 
	 viewBox="0 0 512.001 512.001" xml:space="preserve">
<g>
	<g>
		<path style="fill:#95A5A5;" d="M238.636,156.2c-4.487,0-8.287-3.454-8.643-8.01c-0.043-0.521-4.487-52.736-34.738-52.736
			c-45.099,0-59.166-76.618-60.624-85.348c-0.79-4.729,2.404-9.199,7.125-9.98c4.721-0.79,9.199,2.395,9.988,7.116
			c3.306,19.708,17.573,70.856,43.511,70.856c46.288,0,51.833,65.961,52.042,68.773c0.364,4.773-3.211,8.938-7.984,9.303
			C239.087,156.191,238.853,156.2,238.636,156.2z"/>
		<path style="fill:#95A5A5;" d="M273.365,156.204c-0.217,0-0.443-0.009-0.66-0.026c-4.782-0.356-8.366-4.53-8.001-9.311
			c0.208-2.803,5.754-68.764,52.042-68.764c25.869,0,40.439-52.467,43.511-70.856c0.781-4.721,5.268-7.923,9.98-7.125
			c4.729,0.781,7.923,5.259,7.133,9.988c-1.458,8.73-15.525,85.348-60.624,85.348c-30.382,0-34.695,52.198-34.738,52.727
			C281.661,152.741,277.86,156.204,273.365,156.204"/>
		<path style="fill:#95A5A5;" d="M65.094,512.001c-3.02,0-5.944-1.571-7.541-4.374c-2.386-4.157-0.937-9.459,3.228-11.837
			l57.448-32.829l25.175-109.117c0.521-2.213,1.883-4.148,3.801-5.372l95.458-60.746c4.07-2.577,9.416-1.371,11.984,2.664
			c2.577,4.044,1.38,9.407-2.664,11.984l-92.464,58.837l-25.227,109.351c-0.547,2.36-2.057,4.382-4.157,5.58l-60.746,34.712
			C68.036,511.636,66.552,512.001,65.094,512.001"/>
		<path style="fill:#95A5A5;" d="M238.653,295.051c-0.321,0-0.642-0.017-0.963-0.052l-78.102-8.678
			c-2.551-0.286-4.842-1.684-6.265-3.81l-32.135-48.206H65.085c-4.799,0-8.678-3.888-8.678-8.678s3.879-8.678,8.678-8.678h60.746
			c2.898,0,5.615,1.449,7.22,3.862l32.464,48.709l74.084,8.227c4.764,0.529,8.201,4.825,7.671,9.58
			C246.784,291.771,243.018,295.051,238.653,295.051"/>
		<path style="fill:#95A5A5;" d="M238.636,269.018c-1.718,0-3.445-0.512-4.964-1.571l-86.78-60.746
			c-2.326-1.623-3.705-4.278-3.705-7.107v-64.512l-39.181-23.509c-4.105-2.465-5.441-7.793-2.968-11.906
			c2.465-4.105,7.784-5.441,11.906-2.968l43.39,26.034c2.603,1.562,4.209,4.391,4.209,7.437v64.903l83.074,58.16
			c3.931,2.751,4.886,8.157,2.135,12.08C244.068,267.733,241.369,269.018,238.636,269.018"/>
		<path style="fill:#95A5A5;" d="M446.907,512.001c-1.458,0-2.942-0.365-4.296-1.146l-60.746-34.712
			c-2.1-1.198-3.61-3.22-4.157-5.58l-25.227-109.351l-92.464-58.837c-4.044-2.577-5.242-7.94-2.664-11.984
			c2.577-4.035,7.94-5.224,11.984-2.664l95.458,60.746c1.918,1.224,3.28,3.159,3.801,5.372l25.175,109.117l57.448,32.829
			c4.165,2.378,5.615,7.68,3.228,11.837C452.851,510.43,449.927,512.001,446.907,512.001"/>
		<path style="fill:#95A5A5;" d="M273.348,295.051c-4.365,0-8.131-3.28-8.617-7.723c-0.529-4.756,2.907-9.051,7.671-9.58
			l74.084-8.227l32.464-48.709c1.605-2.412,4.322-3.862,7.22-3.862h60.746c4.799,0,8.678,3.888,8.678,8.678
			s-3.879,8.678-8.678,8.678h-56.103l-32.134,48.206c-1.423,2.126-3.714,3.523-6.266,3.81l-78.102,8.678
			C273.99,295.034,273.66,295.051,273.348,295.051"/>
		<path style="fill:#95A5A5;" d="M273.365,269.018c-2.734,0-5.432-1.284-7.116-3.706c-2.751-3.922-1.796-9.329,2.135-12.08
			l83.074-58.16V130.17c0-3.046,1.605-5.875,4.209-7.437l43.39-26.034c4.122-2.473,9.45-1.137,11.906,2.968
			c2.473,4.113,1.137,9.442-2.968,11.906l-39.181,23.509v64.512c0,2.829-1.38,5.484-3.705,7.107l-86.78,60.746
			C276.819,268.506,275.083,269.018,273.365,269.018"/>
	</g>
	<polygon style="fill:#253C44;" points="273.356,312.407 238.644,312.407 221.288,199.594 290.712,199.594 	"/>
	<path style="fill:#3F5C6C;" d="M290.712,199.594h-69.424v-17.356c0-19.17,15.542-34.712,34.712-34.712s34.712,15.542,34.712,34.712
		V199.594z"/>
	<path style="fill:#314D59;" d="M256,295.051c0,0-69.424,24.949-69.424,78.102c0,0,10.309,121.492,69.424,121.492
		s69.424-121.492,69.424-121.492C325.424,320.001,256,295.051,256,295.051"/>
</g>
</svg>