<?xml version="1.0" encoding="iso-8859-1"?>
<!-- Uploaded to: SVG Repo, www.svgrepo.com, Generator: SVG Repo Mixer Tools -->
<svg height="800px" width="800px" version="1.1" id="Layer_1" xmlns="http://www.w3.org/2000/svg" xmlns:xlink="http://www.w3.org/1999/xlink" 
	 viewBox="0 0 511.999 511.999" xml:space="preserve">
<path style="fill:#87A658;" d="M128.667,98.44c-41.428,41.179-52.329,121.234-22.422,199.481s91.427,130.622,149.758,133.671
	c41.428-41.179,52.329-121.234,22.422-199.481C248.517,153.863,186.998,101.488,128.667,98.44z"/>
<path style="fill:#A3C96A;" d="M18.114,165.859c-23.996,53.256-5.597,131.926,50.276,194.339s132.037,89.372,187.613,71.393
	c23.996-53.256,5.597-131.926-50.276-194.339S73.691,147.881,18.114,165.859z"/>
<path style="fill:#87A658;" d="M383.339,98.44c41.428,41.179,52.329,121.234,22.422,199.481s-91.427,130.622-149.758,133.671
	c-41.428-41.179-52.329-121.234-22.422-199.481S325.008,101.488,383.339,98.44z"/>
<path style="fill:#A3C96A;" d="M493.891,165.859c23.996,53.256,5.597,131.926-50.276,194.339s-132.036,89.372-187.613,71.393
	c-23.996-53.256-5.597-131.926,50.276-194.339S438.315,147.881,493.891,165.859z"/>
<path style="opacity:0.1;enable-background:new    ;" d="M306.279,237.253c-55.873,62.413-74.271,141.083-50.276,194.339
	c12.622,4.083,26.307,5.84,40.573,5.399c47.374-37.394,77.497-106.682,77.497-183.729c0-22.795-2.64-44.909-7.58-65.722
	C345.197,200.058,324.642,216.74,306.279,237.253z"/>
<path style="opacity:0.1;enable-background:new    ;" d="M145.512,187.541c-4.94,20.812-7.58,42.927-7.58,65.722
	c0,77.046,30.122,146.334,77.497,183.729c14.266,0.441,27.952-1.316,40.574-5.399c23.996-53.256,5.597-131.926-50.276-194.339
	C187.363,216.74,166.808,200.058,145.512,187.541z"/>
<path style="fill:#B9E578;" d="M256.003,74.934c-53.399,23.675-92.164,94.56-92.164,178.329s38.765,154.655,92.164,178.329
	c53.399-23.675,92.164-94.56,92.164-178.329S309.402,98.608,256.003,74.934z"/>
<path d="M496.268,158.437c-21.613-6.992-46.565-7.7-72.452-2.103c-6.88-25.582-18.886-47.403-35.014-63.434
	c-1.556-1.547-3.692-2.361-5.885-2.249c-22.698,1.187-46.188,9.429-68.368,23.888c-15.5-21.447-34.337-37.393-55.413-46.738
	c-2.006-0.889-4.293-0.889-6.3,0c-20.747,9.198-39.811,25.422-55.35,46.779c-22.199-14.484-45.711-22.742-68.431-23.929
	c-2.193-0.116-4.33,0.703-5.885,2.249c-16.127,16.031-28.134,37.853-35.014,63.434c-25.888-5.599-50.839-4.89-72.453,2.103
	c-2.087,0.675-3.793,2.202-4.693,4.202c-11.943,26.508-14.221,58.742-6.584,93.216c0.928,4.191,5.08,6.832,9.269,5.908
	c4.191-0.928,6.835-5.078,5.907-9.269c-6.595-29.775-5.132-57.44,4.208-80.275c19.511-5.548,42.114-5.432,65.624,0.364
	c0.801,0.197,1.603,0.418,2.431,0.636c20.17,5.187,39.405,14.257,56.911,25.454c3.598,2.301,7.141,4.696,10.608,7.19
	c0.234,0.168,0.465,0.341,0.698,0.51c-1.663,9.434-2.805,19.049-3.439,28.805c-0.01,0.159-0.022,0.317-0.032,0.477
	c-2.895,45.451,5.098,92.38,26.386,132.898c9.213,17.537,20.957,33.96,35.605,47.373c4.802,4.397,9.865,8.466,15.248,12.134
	c0.145,0.098,0.287,0.205,0.432,0.304c-21.33,2.587-45.272-0.678-69.278-9.629c-33.169-12.367-64.581-34.41-90.843-63.745
	C54.892,333.464,39.94,309.815,29.721,284.7c-1.618-3.976-6.153-5.888-10.127-4.269c-3.976,1.618-5.888,6.152-4.269,10.127
	c10.893,26.772,26.793,51.938,47.256,74.797c27.935,31.204,61.474,54.698,96.993,67.942c20.644,7.697,40.884,11.567,59.986,11.567
	c12.721,0,24.929-1.74,36.424-5.185c11.496,3.446,23.701,5.185,36.425,5.185c19.1,0,39.344-3.869,59.986-11.567
	c35.518-13.243,69.058-36.738,96.992-67.942s47.588-67.129,56.836-103.892c9.202-36.584,7.382-70.757-5.264-98.824
	C500.061,160.64,498.355,159.113,496.268,158.437z M380.265,106.419c12.956,13.835,22.722,32.278,28.535,53.845
	c-2.5,0.766-5,1.603-7.497,2.48c-0.154,0.054-0.308,0.109-0.462,0.163c-9.473,3.332-18.69,7.375-27.599,12.004
	c-4.456,2.315-8.835,4.778-13.135,7.374c-1.016,0.613-11.917,6.675-11.709,7.524c-5.357-21.837-13.679-43.032-25.301-62.311
	C341.811,115.31,361.387,108.084,380.265,106.419z M491.152,257.672c-8.635,34.329-27.081,67.981-53.343,97.316
	c-26.262,29.335-57.674,51.378-90.842,63.745c-24.008,8.952-47.949,12.213-69.277,9.629c0.151-0.102,0.297-0.212,0.449-0.315
	c16.2-11.027,29.694-25.737,40.497-42.012c3.748-5.647,7.196-11.501,10.347-17.501c0.023-0.045,0.048-0.087,0.07-0.131
	c1.994-3.801,0.527-8.499-3.275-10.492c-3.802-1.994-8.499-0.527-10.492,3.274c-10.557,20.135-24.815,38.633-43.291,52.101
	c-4.343,3.166-8.903,6.039-13.669,8.523c-3.829,1.996-5.375,0.468-8.747-1.779c-16.877-11.251-31.156-24.741-42.559-41.58
	c-14.279-21.084-23.86-45.172-29.426-69.958c-1.415-6.299-2.57-12.657-3.476-19.05c-2.568-18.105-3.139-36.486-1.861-54.723
	c0.73-10.206,2.064-20.292,3.991-30.146c0.002-0.01,0.005-0.024,0.007-0.034c1.878-9.593,4.339-19.087,7.412-28.367
	c1.349-4.075-0.86-8.471-4.935-9.822c-0.049-0.016-0.097-0.025-0.146-0.04c-4.037-1.254-8.344,0.947-9.678,4.974
	c-2.012,6.078-3.782,12.26-5.325,18.529c-13.259-9.057-27.418-16.856-42.259-22.999c-5.94-2.459-12-4.665-18.147-6.55
	c5.812-21.568,15.578-40.01,28.535-53.845c18.88,1.666,38.456,8.892,57.171,21.083c-2.26,3.738-4.394,7.56-6.403,11.438
	c-0.04,0.078-0.084,0.152-0.124,0.23c-1.97,3.813-0.475,8.503,3.339,10.471c3.766,1.945,8.53,0.425,10.474-3.337
	c0.066-0.128,0.135-0.254,0.201-0.381c1.936-3.724,4.005-7.379,6.188-10.965c14.394-23.549,32.983-41.512,53.432-51.482
	c19.238,9.382,36.865,25.868,50.871,47.408c0.436,0.673,0.871,1.346,1.301,2.028c13.762,21.889,22.633,46.384,27.579,71.704
	c3.123,15.99,4.641,32.328,4.641,48.618c0,27.466-4.205,53.83-12.497,78.357c-1.375,4.066,0.807,8.478,4.877,9.853
	c1.902,0.641,4.088,0.493,5.888-0.383c1.829-0.891,3.311-2.559,3.964-4.49c8.834-26.13,13.313-54.169,13.313-83.336
	c0-8.29-0.387-16.58-1.14-24.836c-0.202-2.216-4.054-21.187-2.892-22.03c0.223-0.162,0.444-0.326,0.666-0.487
	c12.599-9.063,26.109-16.91,40.332-23.135c29.485-12.897,63.718-19.5,95.269-10.532C497.939,196.217,499.02,226.396,491.152,257.672
	z"/>
</svg>