<?xml version="1.0" encoding="utf-8"?><!-- Uploaded to: SVG Repo, www.svgrepo.com, Generator: SVG Repo Mixer Tools -->
<svg fill="#000000" width="800px" height="800px" viewBox="0 0 24 24" id="plant-pot" data-name="Flat Line" xmlns="http://www.w3.org/2000/svg" class="icon flat-line"><path id="secondary" d="M16.12,21H7.88a1,1,0,0,1-1-.88L6,13H18l-.89,7.12A1,1,0,0,1,16.12,21Z" style="fill: rgb(44, 169, 188); stroke-width: 2;"></path><path id="primary" d="M6.88,13a5.7,5.7,0,0,1-1-1.3C4.2,8.83,5.46,5,5.46,5A10.78,10.78,0,0,1,9.4,6.85" style="fill: none; stroke: rgb(0, 0, 0); stroke-linecap: round; stroke-linejoin: round; stroke-width: 2;"></path><path id="primary-2" data-name="primary" d="M17.12,13a5.7,5.7,0,0,0,1-1.3c1.66-2.87.4-6.7.4-6.7A10.78,10.78,0,0,0,14.6,6.85" style="fill: none; stroke: rgb(0, 0, 0); stroke-linecap: round; stroke-linejoin: round; stroke-width: 2;"></path><path id="primary-3" data-name="primary" d="M13.66,13A7.49,7.49,0,0,0,15,9c0-3.31-3-6-3-6S9,5.69,9,9a7.49,7.49,0,0,0,1.34,4" style="fill: none; stroke: rgb(0, 0, 0); stroke-linecap: round; stroke-linejoin: round; stroke-width: 2;"></path><path id="primary-4" data-name="primary" d="M16.12,21H7.88a1,1,0,0,1-1-.88L6,13H18l-.89,7.12A1,1,0,0,1,16.12,21ZM5,13H19" style="fill: none; stroke: rgb(0, 0, 0); stroke-linecap: round; stroke-linejoin: round; stroke-width: 2;"></path></svg>