<?xml version="1.0" encoding="iso-8859-1"?>
<!-- Uploaded to: SVG Repo, www.svgrepo.com, Generator: SVG Repo Mixer Tools -->
<!DOCTYPE svg PUBLIC "-//W3C//DTD SVG 1.1//EN" "http://www.w3.org/Graphics/SVG/1.1/DTD/svg11.dtd">
<svg fill="#000000" height="800px" width="800px" version="1.1" id="Capa_1" xmlns="http://www.w3.org/2000/svg" xmlns:xlink="http://www.w3.org/1999/xlink" 
	 viewBox="0 0 383.494 383.494" xml:space="preserve">
<g>
	<path d="M377.494,127.958H247.809c-0.23-1.217-0.48-2.429-0.75-3.636c-5.452-24.362-19.196-46.486-38.699-62.295
		c-19.79-16.043-44.748-24.878-70.272-24.878C61.945,37.149,0,99.094,0,175.236c0,45.705,17.799,88.675,50.118,120.993
		c32.318,32.318,75.288,50.117,120.993,50.116c56.73,0,110.065-22.092,150.179-62.206c40.114-40.115,62.206-93.45,62.205-150.18
		C383.494,130.645,380.808,127.958,377.494,127.958z M312.804,275.653c-37.848,37.848-88.169,58.692-141.694,58.692
		c-42.499,0.001-82.456-16.549-112.507-46.601C28.551,257.692,12,217.736,12,175.236c0-69.524,56.563-126.087,126.087-126.087
		c22.783,0,45.056,7.884,62.716,22.201c17.412,14.115,29.68,33.858,34.545,55.595c1.598,7.131,2.408,14.491,2.408,21.873
		c0,43.306-35.231,78.538-78.535,78.538c-33.98-0.002-61.626-27.649-61.627-61.63c0-12.849,5.003-24.928,14.088-34.014
		c9.085-9.085,21.164-14.089,34.013-14.089c20.557,0,37.281,16.725,37.282,37.283c0,15.783-12.841,28.623-28.626,28.623
		c-0.002,0-0.003,0-0.004,0c-5.793,0-11.241-2.257-15.338-6.354c-4.098-4.099-6.355-9.548-6.355-15.344
		c0-7.355,4.939-13.577,11.673-15.526c-5.461,2.269-9.313,7.659-9.314,13.931c0.001,9.564,7.782,17.346,17.345,17.346
		c11.129,0,20.183-9.054,20.183-20.184c0-13.083-10.644-23.727-23.728-23.727c-15.527,0-28.159,12.632-28.159,28.159
		c0,9.001,3.505,17.464,9.87,23.83c6.364,6.364,14.824,9.869,23.822,9.869c0.002,0,0.004,0,0.007,0
		c22.401,0,40.625-18.224,40.625-40.624c-0.001-27.174-22.109-49.283-49.282-49.283c-16.054,0-31.146,6.252-42.498,17.604
		c-11.352,11.352-17.603,26.445-17.603,42.499c0.001,40.598,33.03,73.628,73.627,73.63c49.921,0,90.535-40.615,90.535-90.538
		c0-2.96-0.116-5.916-0.348-8.859h121.999C369.909,191.234,349.233,239.224,312.804,275.653z"/>
	<path d="M150.9,94.964c29.592,0,53.668,24.077,53.67,53.672c0,3.313,2.687,6,6.001,6c3.313,0,5.999-2.687,5.999-6
		c-0.002-36.212-29.461-65.671-65.67-65.671c-3.313,0-6,2.686-6,6C144.9,92.278,147.587,94.964,150.9,94.964z"/>
	<path d="M172.501,314.42c-76.463,0-138.671-62.207-138.671-138.671c0-3.313-2.687-6-6-6c-3.314,0-6,2.687-6,6
		c0,83.08,67.591,150.671,150.671,150.671c3.314,0,6-2.686,6-6C178.501,317.107,175.814,314.42,172.501,314.42z"/>
</g>
</svg>