<?xml version="1.0" ?>
<!-- Uploaded to: SVG Repo, www.svgrepo.com, Generator: SVG Repo Mixer Tools -->
<svg width="800px" height="800px" viewBox="0 0 128 128" xmlns="http://www.w3.org/2000/svg">
<defs>
<style>.cls-1{fill:#231f20;}</style>
</defs>
<g id="Tree">
<path class="cls-1" d="M84.84,30.75A24.18,24.18,0,0,0,62.28,15,23.78,23.78,0,0,0,45,22.42a21.85,21.85,0,0,0,4.44,43.19,20.63,20.63,0,0,0,2.69-.19l5.2,5.82L55,111.94a1,1,0,0,0,.27.75A1,1,0,0,0,56,113H72a1,1,0,0,0,.73-.31,1,1,0,0,0,.27-.75L71,76.88,81.17,65.5a15,15,0,0,0,1.7.11,17.5,17.5,0,0,0,2-34.86ZM69.25,75.86a1,1,0,0,0-.26.72l2,34.42H57.06l2.27-40.06a1,1,0,0,0-.26-.72L53.25,63.7l-6.74-7.55,1.73-1.73,9.9,8.83a1,1,0,0,0,1,.18,1,1,0,0,0,.62-.87L59.94,60h8.12l.1,1.85.36,6.42a1,1,0,0,0,.62.87,1,1,0,0,0,1-.18L75.71,64l.31.12c.29.13.58.25.88.36l.59.21q.47.15.93.27l.42.13Zm1-13.37c.64-.23,1.26-.46,1.86-.73A19,19,0,0,0,73.85,63L70.4,66.09Zm12.67,1.12a16.53,16.53,0,0,1-2-.14h0A15.19,15.19,0,0,1,76,62a15.73,15.73,0,0,1-3.12-2.12,1,1,0,0,0-1.1-.15,17.38,17.38,0,0,1-1.7.73L70,58.94A1,1,0,0,0,69,58H59a1,1,0,0,0-1,.94l-.08,1.44L48.87,52.3a1,1,0,0,0-1.37,0L44.43,55.4a1,1,0,0,0,0,1.38l6.07,6.8-1,0a19.85,19.85,0,0,1-3.74-39.29,1,1,0,0,0,.54-.3,21.8,21.8,0,0,1,16.06-7A22.17,22.17,0,0,1,82.71,30.83c-3.59.39-11.86,2.12-13.14,9.72a1,1,0,0,0,.82,1.15h.17a1,1,0,0,0,1-.83c1.27-7.51,11.64-8.12,12.74-8.16a15.49,15.49,0,0,1-1.41,30.89Z"/>
</g>
</svg>