<?xml version="1.0" encoding="iso-8859-1"?>
<!-- Uploaded to: SVG Repo, www.svgrepo.com, Generator: SVG Repo Mixer Tools -->
<svg version="1.1" id="Layer_1" xmlns="http://www.w3.org/2000/svg" xmlns:xlink="http://www.w3.org/1999/xlink" 
	 viewBox="0 0 512 512" xml:space="preserve">
<rect x="168" y="360" style="fill:#004D40;" width="176" height="24"/>
<path style="fill:#00897B;" d="M4,124c0,108,67.6,196,159.2,232.8c0.4,0,0.8,1.2,0.8,1.2v29.6h184V358c0,0,0.8-1.2,1.2-1.2
	C440.8,320,508,232,508,124H4z M344,384H168v-24h176V384z"/>
<path d="M348,392H164c-2.4,0-4-1.6-4-4v-28C62.8,320,0,227.6,0,124c0-2.4,1.6-4,4-4h504c2.4,0,4,1.6,4,4c0,103.6-62.8,196-160,236
	v28C352,390.4,350.4,392,348,392z M168,384h176v-25.6c0-2.4,2.4-4.4,3.2-4.8c0,0,0,0,0.4,0c93.6-38,154.8-126,156.4-225.2H8
	c1.6,99.2,62.8,187.2,156.8,225.2c2,1.2,3.2,3.6,3.2,5.2V384z"/>
<path d="M296,360H160c-2.4,0-4-1.6-4-4s1.6-4,4-4h136c2.4,0,4,1.6,4,4S298.4,360,296,360z"/>
<path d="M352,360h-24c-2.4,0-4-1.6-4-4s1.6-4,4-4h24c2.4,0,4,1.6,4,4S354.4,360,352,360z"/>
<path d="M428.8,282.8c-0.8,0-2-0.4-2.8-1.2c-1.6-1.6-1.6-4-0.4-5.6c20-22.4,35.2-48,45.2-76c0.8-2,3.2-3.2,5.2-2.4
	c2,0.8,3.2,3.2,2.4,5.2c-10.4,29.2-26,55.6-46.8,78.8C430.8,282.4,429.6,282.8,428.8,282.8z"/>
<path d="M481.6,182.4c-0.4,0-0.8,0-0.8,0c-2-0.4-3.6-2.8-2.8-4.8c2.4-10.8,4.4-22,5.6-32.8c0.4-2,2-4,4.4-3.6c2,0.4,4,2,3.6,4.4
	c-1.2,11.2-2.8,22.8-5.6,34C485.2,181.2,483.6,182.4,481.6,182.4z"/>
</svg>