<?xml version="1.0" encoding="iso-8859-1"?>
<!-- Uploaded to: SVG Repo, www.svgrepo.com, Generator: SVG Repo Mixer Tools -->
<svg height="800px" width="800px" version="1.1" id="Layer_1" xmlns="http://www.w3.org/2000/svg" xmlns:xlink="http://www.w3.org/1999/xlink" 
	 viewBox="0 0 127.614 127.614" xml:space="preserve">
<g>
	<path style="fill:#EFEDE0;" d="M126.461,40.356c0.367-0.835,0.753-1.707,1.152-2.604C127.128,38.119,126.741,39.228,126.461,40.356
		z"/>
	<path style="fill:#EFEDE0;" d="M127.085,43.181c0,0,0.182-1.419,0.529-2.825c-0.315,0.718-0.614,1.405-0.898,2.063
		C126.938,42.855,127.085,43.181,127.085,43.181z"/>
	<g>
		<path style="fill:#59312E;" d="M2.079,47.625c0.109,23.344,19.065,42.236,42.434,42.236h38.586
			c23.371,0,42.325-18.893,42.435-42.236H2.079z"/>
		<path style="fill:#76423F;" d="M125.339,51.416c0.054-0.576,0.103-1.154,0.133-1.737H2.141c0.03,0.583,0.08,1.161,0.133,1.737
			H125.339z"/>
		<path style="fill:#76423F;" d="M126.395,47.625H1.218C0.545,47.625,0,47.079,0,46.406v-0.389C0,45.346,0.545,44.8,1.218,44.8
			h125.176c0.674,0,1.219,0.545,1.219,1.218v0.389C127.614,47.079,127.068,47.625,126.395,47.625z"/>
	</g>
</g>
</svg>