<?xml version="1.0" encoding="utf-8"?><!-- Uploaded to: SVG Repo, www.svgrepo.com, Generator: SVG Repo Mixer Tools -->
<svg width="800px" height="800px" viewBox="0 0 24 24" fill="none" xmlns="http://www.w3.org/2000/svg">
<path d="M12 8.5C12 10.9853 9.98528 13 7.5 13C5.01472 13 3 10.9853 3 8.5C3 6.01472 5.01472 4 7.5 4C9.98528 4 12 6.01472 12 8.5Z" stroke="#000000" stroke-width="2" stroke-linecap="round" stroke-linejoin="round"/>
<path d="M17 17C17 18.6569 15.6569 20 14 20C12.3431 20 11 18.6569 11 17C11 15.3431 12.3431 14 14 14C15.6569 14 17 15.3431 17 17Z" stroke="#000000" stroke-width="2" stroke-linecap="round" stroke-linejoin="round"/>
<path d="M20 9C20 10.1046 19.1046 11 18 11C16.8954 11 16 10.1046 16 9C16 7.89543 16.8954 7 18 7C19.1046 7 20 7.89543 20 9Z" stroke="#000000" stroke-width="2" stroke-linecap="round" stroke-linejoin="round"/>
</svg>