<?xml version="1.0" encoding="iso-8859-1"?>
<!-- Uploaded to: SVG Repo, www.svgrepo.com, Generator: SVG Repo Mixer Tools -->
<svg fill="#000000" height="800px" width="800px" version="1.1" id="Capa_1" xmlns="http://www.w3.org/2000/svg" xmlns:xlink="http://www.w3.org/1999/xlink" 
	 viewBox="0 0 25.126 25.126" xml:space="preserve">
<g>
	<g>
		<g>
			<path d="M12.689,12.129c7.756-2.603,7.623,7.192,0.909,6.017c-0.432,0.824,2.196,2.271,1.13,4.539
				c-1.725,2.979-6.163,0.981-6.431-1.892C4.59,25.78-3.084,19.404,4.085,15.795c-4.514-1.835-5.337-4.676-2.219-6.353
				c2.324-0.821,3.325,0.96,4.917,1.512C6.097,4.285,15.504,4.955,12.689,12.129z M7.542,12.847c-2.345,0.219-3.458-3.666-5.3-1.514
				c-1.212,2.47,3.7,1.848,4.163,4.163c-0.752,1.893-4.658,2.237-3.011,4.786c1.914,1.514,2.457-2.964,5.071-2.946
				c1.579,0.78,1.818,5.683,4.039,4.593c1.37-2.139-2.132-3.439-1.725-5.871c1.253-1.14,5.904,1,5.471-1.831
				c-1.149-2-5.017,0.991-5.922-0.772c-0.376-2.151,1.899-3.581,0.824-5.229C10.673,7.64,9.584,7.633,9.078,8.015
				C8.294,9.371,8.841,12.002,7.542,12.847z"/>
		</g>
		<g>
			<path d="M22.325,3.731c3.694-1.241,3.628,3.428,0.431,2.869c-0.206,0.392,1.049,1.077,0.54,2.162
				c-0.824,1.419-2.938,0.466-3.066-0.901c-1.766,2.374-5.422-0.662-2.005-2.383c-2.153-0.873-2.546-2.229-1.059-3.026
				c1.106-0.392,1.585,0.456,2.344,0.719C19.181-0.007,23.665,0.312,22.325,3.731z M19.868,4.073
				c-1.115,0.106-1.644-1.748-2.522-0.721c-0.581,1.175,1.764,0.882,1.982,1.983c-0.358,0.901-2.217,1.063-1.435,2.28
				c0.912,0.723,1.171-1.412,2.419-1.403c0.752,0.372,0.864,2.709,1.92,2.187c0.653-1.017-1.011-1.638-0.82-2.794
				c0.599-0.545,2.815,0.476,2.607-0.874c-0.546-0.954-2.388,0.472-2.822-0.367c-0.178-1.025,0.906-1.707,0.394-2.493
				c-0.229-0.279-0.75-0.28-0.989-0.104C20.229,2.42,20.49,3.669,19.868,4.073z"/>
		</g>
	</g>
	<g>
	</g>
	<g>
	</g>
	<g>
	</g>
	<g>
	</g>
	<g>
	</g>
	<g>
	</g>
	<g>
	</g>
	<g>
	</g>
	<g>
	</g>
	<g>
	</g>
	<g>
	</g>
	<g>
	</g>
	<g>
	</g>
	<g>
	</g>
	<g>
	</g>
</g>
</svg>