<?xml version="1.0" encoding="utf-8"?><!-- Uploaded to: SVG Repo, www.svgrepo.com, Generator: SVG Repo Mixer Tools -->
<svg width="800px" height="800px" viewBox="0 0 400 400" fill="none" xmlns="http://www.w3.org/2000/svg">
<path d="M163.484 195.643C157.991 196.425 156 200.185 156 206.151C156 210.128 159.628 213.415 166.885 216.01C175.079 278.14 259.864 278.14 264.963 211.004C271.654 206.323 275 202.941 275 200.859C275 197.033 273.783 194.336 267.477 192" stroke="#000000" stroke-opacity="0.9" stroke-width="16" stroke-linecap="round" stroke-linejoin="round"/>
<path d="M130.01 265C129.693 263.643 136.725 253.465 137.329 252.244C144.11 238.745 121 120.5 193.5 132.5" stroke="#000000" stroke-opacity="0.9" stroke-width="16" stroke-linecap="round" stroke-linejoin="round"/>
<path d="M215.246 178.8C219.554 179.782 223.842 177.086 224.824 172.778C225.806 168.47 223.11 164.182 218.803 163.2L215.246 178.8ZM289.175 165.189L296.278 161.508L289.175 165.189ZM289.175 231.119L297.135 231.918C297.136 231.911 297.136 231.904 297.137 231.897L289.175 231.119ZM288.48 238.193L280.515 237.442L280.514 237.455L288.48 238.193ZM288.484 262.701C288.871 267.103 292.753 270.357 297.154 269.969C301.556 269.582 304.809 265.7 304.422 261.299L288.484 262.701ZM217.025 135C226.077 135 239.755 138.004 252.74 144.067C265.801 150.166 276.815 158.727 282.072 168.871L296.278 161.508C288.714 146.915 274.096 136.381 259.509 129.57C244.846 122.723 228.859 119 217.025 119V135ZM282.072 168.871C286.555 177.52 286.908 191.49 285.521 204.957C284.854 211.423 283.842 217.315 282.981 221.706C282.551 223.896 282.16 225.703 281.87 227.024C281.731 227.654 281.596 228.259 281.507 228.665C281.481 228.787 281.28 229.651 281.213 230.341L297.137 231.897C297.088 232.397 296.993 232.75 297.141 232.07C297.227 231.673 297.336 231.187 297.495 230.465C297.8 229.08 298.219 227.142 298.681 224.787C299.603 220.087 300.706 213.691 301.436 206.597C302.843 192.945 303.122 174.714 296.278 161.508L282.072 168.871ZM281.215 230.32C280.979 232.673 280.74 235.055 280.515 237.442L296.444 238.943C296.664 236.613 296.898 234.278 297.135 231.918L281.215 230.32ZM280.514 237.455C280.35 239.221 280.644 240.883 280.88 241.961C281.146 243.177 281.523 244.435 281.92 245.624C282.712 247.999 283.777 250.667 284.772 253.108C285.811 255.657 286.765 257.945 287.513 259.922C288.387 262.228 288.504 262.937 288.484 262.701L304.422 261.299C304.216 258.952 303.195 256.154 302.477 254.258C301.635 252.032 300.547 249.421 299.59 247.071C298.589 244.615 297.706 242.386 297.098 240.562C296.794 239.652 296.608 238.986 296.51 238.539C296.382 237.955 296.512 238.216 296.445 238.93L280.514 237.455ZM218.803 163.2C205.068 160.069 198.479 156.157 195.732 153.198C194.483 151.853 194.163 150.858 194.076 150.244C193.984 149.597 194.063 148.716 194.627 147.507C195.859 144.865 198.992 141.648 203.653 139.007C208.239 136.409 213.207 135 217.025 135V119C209.826 119 202.157 121.466 195.766 125.086C189.451 128.664 183.268 134.01 180.127 140.743C178.504 144.222 177.631 148.231 178.234 152.486C178.841 156.775 180.859 160.694 184.005 164.083C190.047 170.593 200.468 175.431 215.246 178.8L218.803 163.2Z" fill="#000000" fill-opacity="0.9"/>
<path d="M230.925 202.182C230.992 202.432 231.135 202.597 231.326 202.746C231.569 203.003 231.79 203.283 232.031 203.541C232.264 203.789 232.547 203.996 232.817 204.197C233.295 204.556 233.794 204.872 234.332 205.125C234.706 205.302 235.089 205.438 235.488 205.538C235.944 205.652 236.423 205.68 236.89 205.681C237.303 205.681 237.715 205.611 238.123 205.552C238.535 205.495 238.94 205.4 239.342 205.291C240.155 205.07 240.961 204.729 241.689 204.291C242.385 203.873 242.992 203.316 243.473 202.649C243.698 202.336 243.873 202.011 244.02 201.652" stroke="#000000" stroke-opacity="0.9" stroke-width="16" stroke-linecap="round" stroke-linejoin="round"/>
<path d="M194.02 201.652C194.196 202.072 194.425 202.453 194.633 202.838C194.897 203.325 195.197 203.769 195.505 204.195C196.686 205.821 198.187 206.975 199.783 207.462C201.568 208.005 203.397 207.566 205.052 206.523C205.389 206.31 205.711 206.076 206.03 205.807C206.416 205.48 206.772 205.052 207.116 204.642" stroke="#000000" stroke-opacity="0.9" stroke-width="16" stroke-linecap="round" stroke-linejoin="round"/>
<path d="M67 304C97.5 262 316 268.5 346.5 297.5" stroke="#000000" stroke-opacity="0.9" stroke-width="14" stroke-linecap="round" stroke-linejoin="round"/>
<path d="M87.1221 257C63.4999 213.355 79.3469 129.786 92.9875 118.596C106.628 107.406 296.157 96.9871 323.13 118.596C350.103 140.204 334.605 243.231 334.246 244.646" stroke="#000000" stroke-opacity="0.5" stroke-width="14" stroke-linecap="round" stroke-linejoin="round"/>
</svg>