<?xml version="1.0" encoding="utf-8"?><!-- Uploaded to: SVG Repo, www.svgrepo.com, Generator: SVG Repo Mixer Tools -->
<svg version="1.1" id="Uploaded to svgrepo.com" xmlns="http://www.w3.org/2000/svg" xmlns:xlink="http://www.w3.org/1999/xlink" 
	 width="800px" height="800px" viewBox="0 0 32 32" xml:space="preserve">
<style type="text/css">
	.isometric_een{fill:#F8F7C5;}
	.isometric_twee{fill:#F5DF89;}
	.st0{fill:#225B49;}
	.st1{fill:#7BD6C4;}
	.st2{fill:#569080;}
	.st3{fill:#F05A28;}
	.st4{fill:#FFBB33;}
	.st5{fill:#BE1E2D;}
	.st6{fill:#F29227;}
	.st7{fill:#FF7344;}
	.st8{fill:#6B9086;}
	.st9{fill:none;}
	.st10{fill:#72C0AB;}
	.st11{fill:#AD9A74;}
	.st12{fill:#F2D76C;}
	.st13{fill:#F28103;}
</style>
<g>
	<path class="isometric_een" d="M17.075,6.06C16.721,6.022,16.363,6,16,6C10.477,6,6,10.477,6,16c0,5.523,4.477,10,10,10
		c1.253,0,2.448-0.241,3.553-0.662C23.319,23.904,26,20.27,26,16C26,10.84,22.092,6.596,17.075,6.06z"/>
	<path class="isometric_twee" d="M9.7,10.649C9.367,10.595,9.202,10.3,9.316,9.873C9.318,9.865,9.322,9.858,9.324,9.85
		c0.161-0.559,0.736-1.128,1.298-1.279c0.378-0.101,0.651,0.015,0.749,0.269c-0.108-0.018-0.234-0.01-0.374,0.027
		c-0.562,0.151-1.137,0.72-1.298,1.279c-0.002,0.008-0.006,0.015-0.008,0.023C9.641,10.359,9.649,10.521,9.7,10.649z M7.196,17.371
		c-0.005-0.006-0.009-0.014-0.014-0.02c-0.366-0.453-0.502-1.25-0.303-1.797c0.05-0.136,0.115-0.243,0.192-0.322
		c-0.264-0.064-0.516,0.092-0.65,0.46c-0.199,0.547-0.062,1.344,0.303,1.797c0.005,0.006,0.009,0.014,0.014,0.02
		c0.284,0.339,0.621,0.373,0.856,0.131C7.46,17.608,7.323,17.522,7.196,17.371z M12.062,23.627c-0.01-0.003-0.02-0.009-0.03-0.013
		c-0.734-0.258-1.45-1.069-1.608-1.832c-0.039-0.19-0.04-0.358-0.008-0.501c-0.346,0.113-0.523,0.467-0.416,0.98
		c0.158,0.762,0.874,1.574,1.608,1.832c0.01,0.004,0.02,0.009,0.03,0.013c0.562,0.186,0.968-0.012,1.066-0.452
		C12.528,23.71,12.312,23.709,12.062,23.627z M15.103,13.101c0.519-1.01,1.609-1.506,2.567-1.233c-0.097-0.078-0.2-0.15-0.314-0.209
		c-1.028-0.529-2.335-0.037-2.92,1.098s-0.225,2.485,0.804,3.014c0.114,0.059,0.233,0.1,0.353,0.134
		C14.814,15.285,14.584,14.11,15.103,13.101z M15.344,22.156c-0.883,0-1.618-0.561-1.817-1.314
		c-0.034,0.121-0.058,0.246-0.058,0.376c0,0.828,0.728,1.5,1.625,1.5c0.721,0,1.326-0.437,1.538-1.037
		C16.296,21.974,15.844,22.156,15.344,22.156z M17.075,6.06c3.366,1.891,5.699,5.922,5.706,10.606
		c-0.081,0.068-0.168,0.132-0.262,0.189c-0.755,0.456-1.675,0.356-2.235-0.185c0.033,0.121,0.077,0.24,0.145,0.352
		c0.428,0.709,1.398,0.908,2.167,0.444c0.059-0.036,0.116-0.075,0.169-0.116c-0.149,3.158-1.36,5.977-3.212,7.99
		C23.319,23.904,26,20.27,26,16C26,10.84,22.092,6.596,17.075,6.06z"/>
	<path class="isometric_een" d="M22.058,9.299c-0.04,0.052-0.089,0.094-0.143,0.13c0.281-0.828-1.033-1.833-1.759-1.346
		c0.021-0.061,0.048-0.12,0.088-0.172C20.899,7.055,22.713,8.443,22.058,9.299z M23.865,14.344c0.95-0.764,0.157-2.931-1.062-2.901
		C24.314,10.228,25.801,14.295,23.865,14.344z"/>
</g>
</svg>