<?xml version="1.0" encoding="iso-8859-1"?>
<!-- Uploaded to: SVG Repo, www.svgrepo.com, Generator: SVG Repo Mixer Tools -->
<!DOCTYPE svg PUBLIC "-//W3C//DTD SVG 1.1//EN" "http://www.w3.org/Graphics/SVG/1.1/DTD/svg11.dtd">
<svg fill="#000000" version="1.1" id="Capa_1" xmlns="http://www.w3.org/2000/svg" xmlns:xlink="http://www.w3.org/1999/xlink" 
	 width="800px" height="800px" viewBox="0 0 65.962 65.961"
	 xml:space="preserve">
<g>
	<path d="M28.336,57.34c0,1.864,1.513,3.377,3.378,3.377c1.864,0,3.377-1.513,3.377-3.377c0-1.865-3.377-6.9-3.377-6.9
		S28.336,55.473,28.336,57.34z M47.41,5.245c-3.336,0-6.582,0.893-9.442,2.591c-2.295-1.677-5.08-2.591-7.934-2.591
		c-5.885,0-10.961,3.73-12.763,9.217c-1.239-0.371-2.519-0.558-3.819-0.558C6.034,13.904,0,19.939,0,27.356
		c0,7.418,6.034,13.451,13.452,13.451c2.045,0,4.052-0.469,5.883-1.362c1.951,5.192,6.927,8.705,12.576,8.705
		c4.645,0,8.924-2.384,11.381-6.278c1.372,0.317,2.754,0.477,4.118,0.477c10.229,0,18.552-8.321,18.552-18.551
		S57.64,5.245,47.41,5.245z M47.412,39.998c-1.445,0-2.916-0.206-4.369-0.612c-0.532-0.149-1.092,0.09-1.352,0.571
		c-1.943,3.605-5.69,5.845-9.781,5.845c-5.081,0-9.501-3.441-10.749-8.373c-0.093-0.367-0.354-0.664-0.704-0.806
		c-0.141-0.055-0.289-0.082-0.435-0.082c-0.22,0-0.44,0.062-0.629,0.187c-1.787,1.135-3.84,1.734-5.941,1.734
		c-6.123,0-11.103-4.98-11.103-11.104s4.981-11.103,11.103-11.103c1.433,0,2.837,0.276,4.174,0.818
		c0.318,0.131,0.679,0.114,0.986-0.046c0.306-0.16,0.526-0.446,0.602-0.782c1.15-5.093,5.599-8.65,10.82-8.65
		c2.591,0,5.116,0.915,7.106,2.576c0.396,0.331,0.965,0.364,1.396,0.079c2.646-1.737,5.716-2.655,8.873-2.655
		c8.934,0,16.201,7.269,16.201,16.202S56.346,39.998,47.412,39.998z"/>
</g>
</svg>