<?xml version="1.0" encoding="utf-8"?>
<!-- Uploaded to: SVG Repo, www.svgrepo.com, Generator: SVG Repo Mixer Tools -->
<svg width="800px" height="800px" viewBox="0 -8.5 1041 1041" class="icon"  version="1.1" xmlns="http://www.w3.org/2000/svg"><path d="M749.683333 880.2125l-4.808333-0.020833c-75.629167-0.3125-134.154167-59.9875-160.575-163.733334-37.370833-146.766667-0.795833-346.3125 118.904167-442.15a382.329167 382.329167 0 0 0-6.775-6.216666c-96.754167-54.583333-189.425-56.154167-275.458334-4.670834a409.583333 409.583333 0 0 0-39.141666 26.379167c73.708333 62.054167 119.8625 180.8625 129.691666 295.8625 13.975 163.495833-44.020833 278.5375-147.758333 293.079167l-5.0625 0.708333-4.525-2.375c-95.916667-50.408333-155.05-152.820833-158.183333-273.954167-3.033333-117.066667 46.608333-229.7 133.354166-310.554166-19.116667-9.708333-40.725-15.504167-64.9625-14.729167l-0.429166 0.0125-0.429167-0.008333c-64.466667-1.454167-131.254167 55.6875-204 174.7625l-27.095833-16.554167C111.4375 306.716667 187.0375 244.441667 263.816667 246.0875c33.295833-0.958333 63.733333 7.991667 91.116666 24.416667a440.7625 440.7625 0 0 1 49.783334-34.354167c95.6-57.204167 202.425-55.429167 308.866666 5.170833l1.445834 0.820834 1.241666 1.1a406.983333 406.983333 0 0 1 13.404167 12.45 249.866667 249.866667 0 0 1 10.1-5.866667l1.183333-0.65 1.279167-0.441667c69.541667-24.054167 128.508333-22.779167 175.233333 3.775 54.016667 30.7 91.6 95.5 111.716667 192.608334l-31.0875 6.441666c-18.179167-87.775-50.5875-145.458333-96.3125-171.445833-38.170833-21.6875-87.916667-22.308333-147.879167-1.816667l-1.783333 1.004167c80.5625 91.716667 122.233333 220.1 112.783333 353.154167-7.8875 111.05-50.495833 204.970833-111.208333 245.104166l-4.016667 2.654167z m-24.120833-583c-108.458333 85.175-145.658333 273.316667-110.495833 411.4125 10.470833 41.120833 43.408333 135.7625 125.1 139.695833 49.820833-36.0125 86.154167-120.8 93.0625-218.1125 8.954167-126.1-30.8625-247.441667-107.666667-332.995833z m-368.633333 13.154167c-83.8625 75.091667-132.0625 181.416667-129.2 291.929166 2.783333 107.504167 53.745833 198.3625 136.633333 244.195834 99.879167-18.129167 124.808333-149.5875 115.529167-258.125-6.854167-80.183333-32.075-159.220833-69.191667-216.85-13.395833-20.7875-31.275-43.3625-53.770833-61.15z" fill="#009B4C" /><path d="M328.179167 805.641667l-4.533334-2.354167c-96.108333-49.9625-155.666667-152.095833-159.320833-273.204167-3.529167-117.083333 45.629167-229.9375 132.05-311.170833-19.15-9.616667-40.816667-15.275-64.995833-14.425l-0.4375 0.016667-0.441667-0.008334c-64.4125-1.366667-131.016667 56.1375-203.308333 175.533334l-27.1625-16.441667c78.525-129.691667 154.070833-192.225 230.654166-190.845833 33.191667-1.095833 63.7375 7.7125 91.183334 24.004166a441.875 441.875 0 0 1 49.720833-34.616666c95.35-57.6 202.175-56.208333 308.870833 4.05l1.441667 0.8125 1.241667 1.091666a395.016667 395.016667 0 0 1 13.333333 12.275c3.333333-2.0625 6.716667-4.05 10.158333-5.9625l1.1875-0.6625 1.2875-0.45c69.495833-24.2875 128.454167-23.216667 175.2625 3.154167 54.095833 30.479167 91.929167 95.108333 112.429167 192.091667l-31.0625 6.566666c-18.533333-87.6625-51.154167-145.191667-96.954167-170.995833-38.233333-21.541667-87.995833-21.983333-147.908333-1.291667-0.620833 0.35-1.241667 0.7-1.854167 1.058334 80.966667 91.320833 123.1875 219.5 114.325 352.579166-7.4 111.1375-49.625 205.295833-110.191666 245.729167l-4 2.670833h-4.8125c-75.6125 0-134.3875-59.416667-161.241667-163.008333-38.004167-146.5875-2.283333-346.295833 116.991667-442.729167a369.595833 369.595833 0 0 0-6.6875-6.083333c-96.975-54.2625-189.65-55.5-275.45-3.675a411.3125 411.3125 0 0 0-39.104167 26.5875c73.966667 61.720833 120.633333 180.320833 130.945833 295.258333 14.670833 163.466667-42.8625 278.766667-146.5625 293.729167l-5.054166 0.716667z m364.383333-583.745834c-108.083333 85.720833-144.483333 274.029167-108.725 411.958334 10.645833 41.058333 43.991667 135.516667 125.670833 139.129166 49.695833-36.2625 85.679167-121.266667 92.1625-218.658333 8.4-126.1125-31.941667-247.254167-109.108333-332.429167z m-368.520833 14.695834c-83.558333 75.458333-131.3125 182.004167-127.979167 292.533333 3.241667 107.479167 54.579167 198.095833 137.6375 243.5375 99.833333-18.533333 124.216667-150.120833 114.479167-258.645833-7.191667-80.141667-32.741667-159.058333-70.1-216.5125-13.479167-20.729167-31.454167-43.225-54.0375-60.9125z" fill="#332C2B" /></svg>