<?xml version="1.0" encoding="iso-8859-1"?>
<!-- Uploaded to: SVG Repo, www.svgrepo.com, Generator: SVG Repo Mixer Tools -->
<svg fill="#000000" height="800px" width="800px" version="1.1" id="Layer_1" xmlns="http://www.w3.org/2000/svg" xmlns:xlink="http://www.w3.org/1999/xlink" 
	 viewBox="0 0 512 512" xml:space="preserve">
<g transform="translate(1 1)">
	<g>
		<path d="M284.867,383c-25.253,0-46.375-18.533-50.47-42.667h7.803c5.12,0,8.533-3.413,8.533-8.533v-25.6h34.133
			c5.12,0,8.533-3.413,8.533-8.533V58.733c0-5.12-3.413-8.533-8.533-8.533h-25.6V7.533c0-5.12-3.413-8.533-8.533-8.533H216.6
			c-5.12,0-8.533,3.413-8.533,8.533V50.2h-25.6V7.533c0-5.12-3.413-8.533-8.533-8.533H139.8c-5.12,0-8.533,3.413-8.533,8.533V50.2
			H114.2c-5.12,0-8.533,3.413-8.533,8.533v238.933c0,5.12,3.413,8.533,8.533,8.533h34.133v25.6c0,5.12,3.413,8.533,8.533,8.533
			h8.844c4.414,61.764,56.319,110.933,119.156,110.933c28.16,0,51.2,23.04,51.2,51.2c0,5.12,3.413,8.533,8.533,8.533h51.2
			c5.12,0,8.533-3.413,8.533-8.533C404.333,436.76,350.573,383,284.867,383z M225.133,16.067H242.2V50.2h-17.067V16.067z
			 M148.333,16.067H165.4V50.2h-17.067V16.067z M122.733,272.067h34.133c5.12,0,8.533-3.413,8.533-8.533S161.987,255,156.867,255
			h-34.133v-17.067h51.2c5.12,0,8.533-3.413,8.533-8.533s-3.413-8.533-8.533-8.533h-51.2v-153.6H139.8h34.133H216.6h34.133h25.6
			v17.067H242.2c-5.12,0-8.533,3.413-8.533,8.533c0,5.12,3.413,8.533,8.533,8.533h34.133v17.067h-51.2
			c-5.12,0-8.533,3.413-8.533,8.533s3.413,8.533,8.533,8.533h51.2v153.6H242.2h-85.333h-34.133V272.067z M233.667,306.2v17.067
			h-8.533h-51.2H165.4V306.2H233.667z M352.28,493.933c-4.267-33.28-32.427-59.733-67.413-59.733
			c-53.76,0-98.133-40.96-102.4-93.867H216.6c4.267,33.28,32.427,59.733,67.413,59.733c53.76,0,98.133,40.96,102.4,93.867H352.28z"
			/>
	</g>
</g>
</svg>