<?xml version="1.0" encoding="iso-8859-1"?>
<!-- Uploaded to: SVG Repo, www.svgrepo.com, Generator: SVG Repo Mixer Tools -->
<svg fill="#000000" height="800px" width="800px" version="1.1" id="Layer_1" xmlns="http://www.w3.org/2000/svg" xmlns:xlink="http://www.w3.org/1999/xlink" 
	 viewBox="0 0 512 512" xml:space="preserve">
<g transform="translate(1 1)">
	<g>
		<g>
			<path d="M425.667,230.253v-43.52c0-5.12-3.413-8.533-8.533-8.533h-332.8c-5.12,0-8.533,3.413-8.533,8.533v34.133H7.533
				C2.413,220.867-1,224.28-1,229.4v51.2c0,5.12,3.413,8.533,8.533,8.533H75.8v34.133c0,5.12,3.413,8.533,8.533,8.533h332.8
				c5.12,0,8.533-3.413,8.533-8.533v-41.813c14.507,3.413,33.28,15.36,34.133,41.813c0,5.12,4.267,8.533,8.533,8.533h34.133
				c2.56,0,4.267-0.853,5.973-2.56c1.707-1.707,2.56-3.413,2.56-5.973C510.147,269.507,467.48,234.52,425.667,230.253z
				 M476.013,314.733c-5.12-34.987-37.547-51.2-58.88-51.2c-5.12,0-8.533,3.413-8.533,8.533v42.667H92.867V280.6
				c0-5.12-3.413-8.533-8.533-8.533H16.067v-34.133h68.267c5.12,0,8.533-3.413,8.533-8.533v-34.133H408.6v42.667
				c0,5.12,3.413,8.533,8.533,8.533c28.16,0,69.973,21.333,75.947,68.267H476.013z"/>
			<path d="M127,212.333c-5.12,0-8.533,3.413-8.533,8.533c0,5.12,3.413,8.533,8.533,8.533s8.533-3.413,8.533-8.533
				C135.533,215.747,132.12,212.333,127,212.333z"/>
			<path d="M152.6,246.467c-5.12,0-8.533,3.413-8.533,8.533c0,5.12,3.413,8.533,8.533,8.533c5.12,0,8.533-3.413,8.533-8.533
				C161.133,249.88,157.72,246.467,152.6,246.467z"/>
			<path d="M178.2,212.333c-5.12,0-8.533,3.413-8.533,8.533c0,5.12,3.413,8.533,8.533,8.533s8.533-3.413,8.533-8.533
				C186.733,215.747,183.32,212.333,178.2,212.333z"/>
			<path d="M203.8,246.467c-5.12,0-8.533,3.413-8.533,8.533c0,5.12,3.413,8.533,8.533,8.533c5.12,0,8.533-3.413,8.533-8.533
				C212.333,249.88,208.92,246.467,203.8,246.467z"/>
			<path d="M229.4,212.333c-5.12,0-8.533,3.413-8.533,8.533c0,5.12,3.413,8.533,8.533,8.533s8.533-3.413,8.533-8.533
				C237.933,215.747,234.52,212.333,229.4,212.333z"/>
			<path d="M255,246.467c-5.12,0-8.533,3.413-8.533,8.533c0,5.12,3.413,8.533,8.533,8.533s8.533-3.413,8.533-8.533
				C263.533,249.88,260.12,246.467,255,246.467z"/>
			<path d="M280.6,212.333c-5.12,0-8.533,3.413-8.533,8.533c0,5.12,3.413,8.533,8.533,8.533s8.533-3.413,8.533-8.533
				C289.133,215.747,285.72,212.333,280.6,212.333z"/>
			<path d="M306.2,246.467c-5.12,0-8.533,3.413-8.533,8.533c0,5.12,3.413,8.533,8.533,8.533s8.533-3.413,8.533-8.533
				C314.733,249.88,311.32,246.467,306.2,246.467z"/>
			<path d="M331.8,212.333c-5.12,0-8.533,3.413-8.533,8.533c0,5.12,3.413,8.533,8.533,8.533c5.12,0,8.533-3.413,8.533-8.533
				C340.333,215.747,336.92,212.333,331.8,212.333z"/>
			<path d="M357.4,246.467c-5.12,0-8.533,3.413-8.533,8.533c0,5.12,3.413,8.533,8.533,8.533s8.533-3.413,8.533-8.533
				C365.933,249.88,362.52,246.467,357.4,246.467z"/>
			<path d="M374.467,212.333c-5.12,0-8.533,3.413-8.533,8.533c0,5.12,3.413,8.533,8.533,8.533s8.533-3.413,8.533-8.533
				C383,215.747,379.587,212.333,374.467,212.333z"/>
			<path d="M374.467,280.6c-5.12,0-8.533,3.413-8.533,8.533c0,5.12,3.413,8.533,8.533,8.533s8.533-3.413,8.533-8.533
				C383,284.013,379.587,280.6,374.467,280.6z"/>
			<path d="M331.8,280.6c-5.12,0-8.533,3.413-8.533,8.533c0,5.12,3.413,8.533,8.533,8.533c5.12,0,8.533-3.413,8.533-8.533
				C340.333,284.013,336.92,280.6,331.8,280.6z"/>
			<path d="M280.6,280.6c-5.12,0-8.533,3.413-8.533,8.533c0,5.12,3.413,8.533,8.533,8.533s8.533-3.413,8.533-8.533
				C289.133,284.013,285.72,280.6,280.6,280.6z"/>
			<path d="M229.4,280.6c-5.12,0-8.533,3.413-8.533,8.533c0,5.12,3.413,8.533,8.533,8.533s8.533-3.413,8.533-8.533
				C237.933,284.013,234.52,280.6,229.4,280.6z"/>
			<path d="M178.2,280.6c-5.12,0-8.533,3.413-8.533,8.533c0,5.12,3.413,8.533,8.533,8.533s8.533-3.413,8.533-8.533
				C186.733,284.013,183.32,280.6,178.2,280.6z"/>
			<path d="M127,280.6c-5.12,0-8.533,3.413-8.533,8.533c0,5.12,3.413,8.533,8.533,8.533s8.533-3.413,8.533-8.533
				C135.533,284.013,132.12,280.6,127,280.6z"/>
		</g>
	</g>
</g>
</svg>