<?xml version="1.0" encoding="iso-8859-1"?>
<!-- Uploaded to: SVG Repo, www.svgrepo.com, Generator: SVG Repo Mixer Tools -->
<svg fill="#000000" height="800px" width="800px" version="1.1" id="Layer_1" xmlns="http://www.w3.org/2000/svg" xmlns:xlink="http://www.w3.org/1999/xlink" 
	 viewBox="0 0 512 512" xml:space="preserve">
<g>
	<g>
		<path d="M256,0c-33.28,0-59.733,26.453-59.733,59.733c0,33.28,26.453,59.733,59.733,59.733c33.28,0,59.733-26.453,59.733-59.733
			C315.733,26.453,289.28,0,256,0z M221.867,59.733c0-5.12,3.413-8.533,8.533-8.533c5.12,0,8.533,3.413,8.533,8.533
			s-3.413,8.533-8.533,8.533C225.28,68.267,221.867,64.853,221.867,59.733z M243.2,89.6c-5.12,0-8.533-3.413-8.533-8.533
			s3.413-8.533,8.533-8.533s8.533,3.413,8.533,8.533S247.467,89.6,243.2,89.6z M247.467,51.2c-5.12,0-8.533-3.413-8.533-8.533
			s3.413-8.533,8.533-8.533h17.067c5.12,0,8.533,3.413,8.533,8.533s-3.413,8.533-8.533,8.533H247.467z M268.8,89.6
			c-5.12,0-8.533-3.413-8.533-8.533s3.413-8.533,8.533-8.533s8.533,3.413,8.533,8.533S273.92,89.6,268.8,89.6z M281.6,68.267
			c-5.12,0-8.533-3.413-8.533-8.533S276.48,51.2,281.6,51.2s8.533,3.413,8.533,8.533S286.72,68.267,281.6,68.267z"/>
	</g>
</g>
<g>
	<g>
		<path d="M332.8,238.933h-8.533v-42.667c0-5.12-3.413-8.533-8.533-8.533v-42.667c0-5.12-3.413-8.533-8.533-8.533H204.8
			c-5.12,0-8.533,3.413-8.533,8.533v42.667c-5.12,0-8.533,3.413-8.533,8.533v42.667H179.2c-5.12,0-8.533,3.413-8.533,8.533v179.2
			c0,5.12,3.413,8.533,8.533,8.533h34.133v25.6c-5.12,0-8.533,3.413-8.533,8.533s3.413,8.533,8.533,8.533v17.067
			c0,9.387,7.68,17.067,17.067,17.067h51.2c9.387,0,17.067-7.68,17.067-17.067v-17.067c5.12,0,8.533-3.413,8.533-8.533
			s-3.413-8.533-8.533-8.533v-25.6H332.8c5.12,0,8.533-3.413,8.533-8.533v-179.2C341.333,243.2,337.92,238.933,332.8,238.933z
			 M281.6,494.933h-51.2v-17.067h51.2V494.933z M281.6,460.8h-51.2v-25.6h51.2V460.8z M298.667,401.067h-85.333
			c-5.12,0-8.533-3.413-8.533-8.533c0-5.12,3.413-8.533,8.533-8.533h85.333c5.12,0,8.533,3.413,8.533,8.533
			C307.2,397.653,303.787,401.067,298.667,401.067z M298.667,366.933h-85.333c-5.12,0-8.533-3.413-8.533-8.533
			s3.413-8.533,8.533-8.533h85.333c5.12,0,8.533,3.413,8.533,8.533S303.787,366.933,298.667,366.933z M298.667,332.8h-85.333
			c-5.12,0-8.533-3.413-8.533-8.533s3.413-8.533,8.533-8.533h85.333c5.12,0,8.533,3.413,8.533,8.533S303.787,332.8,298.667,332.8z
			 M307.2,238.933H204.8V204.8h102.4V238.933z"/>
	</g>
</g>
</svg>