<?xml version="1.0" encoding="utf-8"?>
<!-- Uploaded to: SVG Repo, www.svgrepo.com, Generator: SVG Repo Mixer Tools -->
<svg width="800px" height="800px" viewBox="0 0 1024 1024" fill="#000000" class="icon"  version="1.1" xmlns="http://www.w3.org/2000/svg"><path d="M456.488 240.018c-4.422 0-8.078-3.578-8.078-8s3.5-8 7.906-8h0.172c4.406 0 8 3.578 8 8s-3.594 8-8 8zM256.5 288.014c-4.422 0-8.076-3.578-8.076-8 0-4.42 3.5-7.998 7.904-7.998h0.172c4.406 0 8 3.578 8 7.998 0 4.422-3.594 8-8 8zM256.5 751.984c-4.422 0-8.076-3.578-8.076-7.998 0-4.422 3.5-8 7.904-8h0.172c4.406 0 8 3.578 8 8a8.006 8.006 0 0 1-8 7.998zM92.462 355.962c-4.42 0-8.076-3.578-8.076-8s3.5-7.998 7.904-7.998h0.172c4.406 0 8 3.576 8 7.998s-3.592 8-8 8zM420.538 684.036c-4.422 0-8.078-3.576-8.078-7.998s3.5-8 7.906-8h0.172c4.406 0 8 3.578 8 8s-3.594 7.998-8 7.998zM24.532 520c-4.422 0-8.078-3.578-8.078-8s3.5-8 7.906-8h0.172c4.404 0 7.998 3.578 7.998 8s-3.594 8-7.998 8zM488.486 520c-4.422 0-8.078-3.578-8.078-8s3.5-8 7.906-8h0.172c4.406 0 8 3.578 8 8s-3.594 8-8 8zM92.478 684.02c-4.42 0-8.076-3.576-8.076-7.998s3.5-8 7.904-8h0.172c4.406 0 8 3.578 8 8s-3.594 7.998-8 7.998zM420.538 355.948c-4.422 0-8.078-3.578-8.078-8s3.5-7.998 7.906-7.998h0.172c4.406 0 8 3.576 8 7.998s-3.594 8-8 8z" fill="" /><path d="M256.016 767.984C114.87 767.984 0.032 653.148 0.032 512c0-141.146 114.838-255.984 255.984-255.984C397.164 256.016 512 370.854 512 512c0 141.148-114.836 255.984-255.984 255.984z m0-495.968C123.682 272.016 16.032 379.672 16.032 512c0 132.336 107.65 239.984 239.984 239.984 132.336 0 239.986-107.648 239.986-239.984 0-132.328-107.65-239.984-239.986-239.984z" fill="" /><path d="M256.016 735.846c-123.508 0-223.986-100.478-223.986-223.986s100.478-223.986 223.986-223.986c123.51 0 223.986 100.478 223.986 223.986s-100.476 223.986-223.986 223.986z m0-431.972c-114.68 0-207.986 93.298-207.986 207.986 0 114.696 93.306 207.988 207.986 207.988 114.682 0 207.988-93.292 207.988-207.988 0-114.688-93.306-207.986-207.988-207.986z" fill="" /><path d="M256.016 655.992c-79.4 0-143.99-64.59-143.99-143.992 0-79.392 64.59-143.99 143.99-143.99 79.402 0 143.992 64.598 143.992 143.99 0 79.402-64.59 143.992-143.992 143.992z m0-271.984c-70.572 0-127.992 57.418-127.992 127.992s57.42 127.992 127.992 127.992c70.574 0 127.992-57.418 127.992-127.992s-57.418-127.992-127.992-127.992zM768.234 767.484c-141.006 0-255.734-114.71-255.734-255.734 0-141.014 114.728-255.734 255.734-255.734 141.008 0 255.734 114.72 255.734 255.734 0 141.024-114.726 255.734-255.734 255.734z m0-495.468c-132.196 0-239.734 107.546-239.734 239.734 0 132.18 107.54 239.734 239.734 239.734s239.736-107.554 239.736-239.734c0-132.188-107.54-239.734-239.736-239.734zM520 288.014h-127.992c-4.422 0-8-3.578-8-8a7.994 7.994 0 0 1 8-7.998H520c4.422 0 8 3.578 8 7.998 0 4.422-3.578 8-8 8zM520 336.012h-63.996c-4.422 0-8-3.578-8-8s3.578-8 8-8H520c4.422 0 8 3.578 8 8s-3.578 8-8 8zM520 256.016c-4.422 0-8-3.578-8-8v-54.38c-1.266-0.696-4.03-1.618-7.998-1.618s-6.734 0.922-8 1.618v54.378c0 4.422-3.578 8-8 8s-8-3.578-8-8V192.02c0-9.274 10.094-15.998 24-15.998 13.904 0 23.998 6.724 23.998 15.998v55.996c0 4.422-3.578 8-8 8z" fill="" /><path d="M520 336.012c-4.422 0-8-3.578-8-8v-47.998c0-4.42 3.578-7.998 8-7.998s8 3.578 8 7.998v47.998c0 4.422-3.578 8-8 8zM488.002 224.018h-63.996c-4.422 0-8-3.578-8-8a7.994 7.994 0 0 1 8-7.998h63.996c4.422 0 8 3.578 8 7.998 0 4.422-3.578 8-8 8z" fill="" /><path d="M424.006 256.016c-4.422 0-8-3.578-8-8v-31.998c0-4.42 3.578-7.998 8-7.998s8 3.578 8 7.998v31.998c0 4.422-3.578 8-8 8z" fill="" /><path d="M488.002 256.016h-63.996c-4.422 0-8-3.578-8-8a7.994 7.994 0 0 1 8-7.998h63.996c4.422 0 8 3.578 8 7.998 0 4.422-3.578 8-8 8zM552.482 240.018c-4.422 0-8.076-3.578-8.076-8s3.5-8 7.904-8h0.172c4.406 0 8 3.578 8 8s-3.594 8-8 8z" fill="" /><path d="M583.996 256.016H520c-4.422 0-8-3.578-8-8a7.994 7.994 0 0 1 8-7.998h63.996c4.422 0 8 3.578 8 7.998 0 4.422-3.578 8-8 8z" fill="" /><path d="M583.996 256.016c-4.422 0-8-3.578-8-8v-31.998c0-4.42 3.578-7.998 8-7.998s8 3.578 8 7.998v31.998c0 4.422-3.578 8-8 8z" fill="" /><path d="M583.996 224.018H520c-4.422 0-8-3.578-8-8a7.994 7.994 0 0 1 8-7.998h63.996c4.422 0 8 3.578 8 7.998 0 4.422-3.578 8-8 8zM504.002 288.014c-4.422 0-8-3.578-8-8v-15.998c0-4.422 3.578-8 8-8a7.994 7.994 0 0 1 7.998 8v15.998c0 4.422-3.578 8-7.998 8zM456.488 799.982c-4.422 0-8.078-3.578-8.078-8 0-4.42 3.5-7.998 7.906-7.998h0.172c4.406 0 8 3.578 8 7.998 0 4.422-3.594 8-8 8zM520 751.984h-127.992c-4.422 0-8-3.578-8-7.998 0-4.422 3.578-8 8-8H520c4.422 0 8 3.578 8 8a7.994 7.994 0 0 1-8 7.998zM520 703.988h-63.996c-4.422 0-8-3.578-8-8s3.578-8 8-8H520c4.422 0 8 3.578 8 8s-3.578 8-8 8zM504.002 847.98c-13.906 0-24-6.718-24-16v-55.996c0-4.422 3.578-8 8-8s8 3.578 8 8v54.372c1.266 0.704 4.032 1.624 8 1.624s6.732-0.922 7.998-1.624v-54.372c0-4.422 3.578-8 8-8s8 3.578 8 8v55.996c0 9.282-10.094 16-23.998 16z" fill="" /><path d="M520 751.984c-4.422 0-8-3.578-8-7.998v-47.998c0-4.422 3.578-8 8-8s8 3.578 8 8v47.998a7.994 7.994 0 0 1-8 7.998zM488.002 815.98h-63.996c-4.422 0-8-3.578-8-7.998 0-4.422 3.578-8 8-8h63.996c4.422 0 8 3.578 8 8a7.994 7.994 0 0 1-8 7.998zM488.002 783.984h-63.996c-4.422 0-8-3.578-8-8s3.578-8 8-8h63.996c4.422 0 8 3.578 8 8s-3.578 8-8 8zM552.482 799.982c-4.422 0-8.076-3.578-8.076-8 0-4.42 3.5-7.998 7.904-7.998h0.172c4.406 0 8 3.578 8 7.998 0 4.422-3.594 8-8 8z" fill="" /><path d="M583.996 783.984H520c-4.422 0-8-3.578-8-8s3.578-8 8-8h63.996c4.422 0 8 3.578 8 8s-3.578 8-8 8zM583.996 815.98H520c-4.422 0-8-3.578-8-7.998 0-4.422 3.578-8 8-8h63.996c4.422 0 8 3.578 8 8a7.994 7.994 0 0 1-8 7.998zM504.002 767.984c-4.422 0-8-3.578-8-8v-15.998c0-4.422 3.578-8 8-8a7.994 7.994 0 0 1 7.998 8v15.998c0 4.422-3.578 8-7.998 8zM256.016 384.008a7.994 7.994 0 0 1-7.998-8v-80.134c0-4.422 3.578-8 7.998-8 4.422 0 8 3.578 8 8v80.134c0 4.422-3.578 8-8 8zM194.8 372.18a7.996 7.996 0 0 1-7.388-4.936l-12.234-29.56a8.004 8.004 0 0 1 4.328-10.454 7.996 7.996 0 0 1 10.452 4.328l12.234 29.56a8.004 8.004 0 0 1-7.392 11.062zM256.016 735.846a7.994 7.994 0 0 1-7.998-8v-79.854c0-4.422 3.578-8 7.998-8 4.422 0 8 3.578 8 8v79.854c0 4.422-3.578 8-8 8zM329.48 697.3c-3.14 0-6.11-1.86-7.39-4.938l-12.248-29.56a8.006 8.006 0 0 1 4.328-10.452c4.044-1.656 8.748 0.234 10.452 4.328l12.25 29.558a8.008 8.008 0 0 1-7.392 11.064zM108.212 458.754a7.958 7.958 0 0 1-3.062-0.61l-29.53-12.25a8.008 8.008 0 0 1-4.328-10.452c1.704-4.086 6.422-6.008 10.454-4.328l29.53 12.248a8.01 8.01 0 0 1 4.328 10.454 8.004 8.004 0 0 1-7.392 4.938zM433.35 593.418a8.17 8.17 0 0 1-3.062-0.61l-29.56-12.234a8 8 0 0 1-4.328-10.454 8.04 8.04 0 0 1 10.454-4.328l29.56 12.234a8.008 8.008 0 0 1 4.328 10.454 8.008 8.008 0 0 1-7.392 4.938zM78.684 593.402c-3.14 0-6.124-1.86-7.39-4.938a8 8 0 0 1 4.328-10.454l29.56-12.218c4.124-1.672 8.782 0.266 10.454 4.328a8 8 0 0 1-4.328 10.454l-29.56 12.218a7.886 7.886 0 0 1-3.064 0.61zM403.79 458.754a8.002 8.002 0 0 1-3.062-15.392l29.56-12.248c4.032-1.68 8.75 0.242 10.454 4.328a8.006 8.006 0 0 1-4.328 10.452l-29.56 12.25a7.982 7.982 0 0 1-3.064 0.61zM182.552 697.286a8.008 8.008 0 0 1-7.39-11.064l12.25-29.528a8.034 8.034 0 0 1 10.452-4.328 8.006 8.006 0 0 1 4.328 10.452l-12.25 29.53a8.002 8.002 0 0 1-7.39 4.938zM317.23 372.196a8.008 8.008 0 0 1-7.388-11.062l12.248-29.56c1.704-4.086 6.422-6.016 10.454-4.328a8.008 8.008 0 0 1 4.328 10.454l-12.25 29.56a8.002 8.002 0 0 1-7.392 4.936zM159.958 423.802a7.972 7.972 0 0 1-5.654-2.344l-56.654-56.668a8 8 0 1 1 11.312-11.312l56.652 56.668a8 8 0 0 1-5.656 13.656zM408.758 672.584a7.976 7.976 0 0 1-5.656-2.344l-56.464-56.464a8 8 0 0 1 11.31-11.312l56.464 56.466a7.996 7.996 0 0 1-5.654 13.654zM120.182 519.86l-80.122-0.016a8 8 0 0 1 0-16l80.122 0.016a8 8 0 0 1 0 16zM472.036 519.844h-79.872c-4.422 0-8-3.578-8-8s3.578-8 8-8h79.872c4.42 0 7.998 3.578 7.998 8s-3.578 8-7.998 8zM103.322 672.552a7.996 7.996 0 0 1-5.656-13.654l56.654-56.654a8 8 0 0 1 11.31 11.312l-56.652 56.652a7.964 7.964 0 0 1-5.656 2.344zM352.292 423.568a8 8 0 0 1-5.654-13.656l56.464-56.464a8 8 0 0 1 11.31 11.312l-56.464 56.464a7.972 7.972 0 0 1-5.656 2.344zM184.022 575.996c-4.422 0-8-3.578-8-8v-111.992c0-4.422 3.578-8 8-8a7.994 7.994 0 0 1 7.998 8v111.992c0 4.422-3.578 8-7.998 8z" fill="" /><path d="M184.022 480.002h-16c-4.422 0-8-3.578-8-8a7.994 7.994 0 0 1 8-7.998h16a7.994 7.994 0 0 1 7.998 7.998c0 4.422-3.578 8-7.998 8zM184.022 559.996h-16c-4.422 0-8-3.578-8-7.998 0-4.422 3.578-8 8-8h16a7.994 7.994 0 0 1 7.998 8 7.994 7.994 0 0 1-7.998 7.998zM248.018 464.004H216.02c-4.422 0-8-3.578-8-8s3.578-8 8-8h31.998c4.42 0 7.998 3.578 7.998 8s-3.578 8-7.998 8z" fill="" /><path d="M248.018 496.002c-4.422 0-8-3.578-8-8v-31.998c0-4.422 3.578-8 8-8a7.994 7.994 0 0 1 7.998 8v31.998c0 4.422-3.578 8-7.998 8z" fill="" /><path d="M248.018 496.002H216.02c-4.422 0-8-3.578-8-8s3.578-8 8-8h31.998c4.42 0 7.998 3.578 7.998 8s-3.578 8-7.998 8zM248.018 543.998H216.02c-4.422 0-8-3.578-8-8a7.994 7.994 0 0 1 8-7.998h31.998a7.994 7.994 0 0 1 7.998 7.998c0 4.422-3.578 8-7.998 8z" fill="" /><path d="M248.018 575.996c-4.422 0-8-3.578-8-8v-31.998a7.994 7.994 0 0 1 8-7.998 7.994 7.994 0 0 1 7.998 7.998v31.998c0 4.422-3.578 8-7.998 8z" fill="" /><path d="M248.018 575.996H216.02c-4.422 0-8-3.578-8-8s3.578-8 8-8h31.998c4.42 0 7.998 3.578 7.998 8s-3.578 8-7.998 8zM344.012 543.998h-63.996c-4.422 0-8-3.578-8-8v-47.996c0-4.422 3.578-8 8-8h63.996a7.994 7.994 0 0 1 7.998 8v47.996c0 4.422-3.578 8-7.998 8zM288.014 528h47.998v-31.998h-47.998V528z" fill="" /><path d="M312.014 512c-4.422 0-8-3.578-8-8v-15.998c0-4.422 3.578-8 8-8a7.994 7.994 0 0 1 7.998 8V504c0 4.422-3.578 8-7.998 8z" fill="" /><path d="M312.014 543.998c-4.422 0-8-3.578-8-8V520c0-4.422 3.578-8 8-8a7.994 7.994 0 0 1 7.998 8v15.998c0 4.422-3.578 8-7.998 8zM919.976 672.584c-4.422 0-8-3.578-8-8V360.01c0-4.422 3.578-8 8-8s8 3.578 8 8v304.574c0 4.422-3.578 8-8 8zM951.974 639.992c-4.422 0-8-3.578-8-8V392.008c0-4.422 3.578-8 8-8a7.994 7.994 0 0 1 7.998 8v239.984c0 4.422-3.578 8-7.998 8zM983.972 575.996c-4.422 0-8-3.578-8-8v-111.992c0-4.422 3.578-8 8-8s8 3.578 8 8v111.992c0 4.422-3.578 8-8 8zM615.994 672.584a7.994 7.994 0 0 1-7.998-8V360.01c0-4.422 3.578-8 7.998-8 4.422 0 8 3.578 8 8v304.574c0 4.422-3.578 8-8 8zM583.996 640.586c-4.422 0-8-3.578-8-8V392.602c0-4.422 3.578-8 8-8s8 3.578 8 8v239.984c0 4.422-3.578 8-8 8zM551.998 576.59a7.994 7.994 0 0 1-7.998-8v-111.992c0-4.422 3.578-8 7.998-8 4.422 0 8 3.578 8 8v111.992c0 4.422-3.578 8-8 8zM647.992 703.988c-4.422 0-8-3.578-8-8V328.012c0-4.422 3.578-8 8-8s8 3.578 8 8v367.976c0 4.422-3.578 8-8 8zM887.978 703.988c-4.422 0-8-3.578-8-8V328.012c0-4.422 3.578-8 8-8a7.994 7.994 0 0 1 7.998 8v367.976c0 4.422-3.578 8-7.998 8zM855.98 496.002c-4.422 0-8-3.578-8-8v-159.99c0-4.422 3.578-8 8-8s8 3.578 8 8v159.99c0 4.422-3.578 8-8 8zM823.982 496.002c-4.422 0-8-3.578-8-8v-159.99c0-4.422 3.578-8 8-8a7.994 7.994 0 0 1 7.998 8v159.99c0 4.422-3.578 8-7.998 8zM791.984 496.002c-4.422 0-8-3.578-8-8v-159.99c0-4.422 3.578-8 8-8s8 3.578 8 8v159.99c0 4.422-3.578 8-8 8zM743.986 496.002a7.994 7.994 0 0 1-7.998-8v-159.99c0-4.422 3.578-8 7.998-8 4.422 0 8 3.578 8 8v159.99c0 4.422-3.578 8-8 8zM711.988 496.002c-4.422 0-8-3.578-8-8v-159.99c0-4.422 3.578-8 8-8s8 3.578 8 8v159.99c0 4.422-3.578 8-8 8zM679.99 496.002a7.994 7.994 0 0 1-7.998-8v-159.99c0-4.422 3.578-8 7.998-8 4.422 0 8 3.578 8 8v159.99c0 4.422-3.578 8-8 8zM855.98 703.988c-4.422 0-8-3.578-8-8v-143.99c0-4.422 3.578-8 8-8s8 3.578 8 8v143.99c0 4.422-3.578 8-8 8zM823.982 703.988c-4.422 0-8-3.578-8-8v-143.99c0-4.422 3.578-8 8-8a7.994 7.994 0 0 1 7.998 8v143.99c0 4.422-3.578 8-7.998 8zM791.984 703.988c-4.422 0-8-3.578-8-8v-143.99c0-4.422 3.578-8 8-8s8 3.578 8 8v143.99c0 4.422-3.578 8-8 8zM743.986 703.988a7.994 7.994 0 0 1-7.998-8v-143.99c0-4.422 3.578-8 7.998-8 4.422 0 8 3.578 8 8v143.99c0 4.422-3.578 8-8 8zM711.988 703.988c-4.422 0-8-3.578-8-8v-143.99c0-4.422 3.578-8 8-8s8 3.578 8 8v143.99c0 4.422-3.578 8-8 8zM679.99 703.988a7.994 7.994 0 0 1-7.998-8v-143.99c0-4.422 3.578-8 7.998-8 4.422 0 8 3.578 8 8v143.99c0 4.422-3.578 8-8 8z" fill="" /><path d="M887.978 368.01H647.992c-4.422 0-8-3.578-8-8s3.578-8 8-8h239.986c4.42 0 7.998 3.578 7.998 8s-3.578 8-7.998 8zM887.978 687.988H647.992c-4.422 0-8-3.578-8-7.998 0-4.422 3.578-8 8-8h239.986a7.994 7.994 0 0 1 7.998 8 7.994 7.994 0 0 1-7.998 7.998zM887.978 496.002H647.992c-4.422 0-8-3.578-8-8s3.578-8 8-8h239.986c4.42 0 7.998 3.578 7.998 8s-3.578 8-7.998 8zM887.978 559.996H647.992c-4.422 0-8-3.578-8-7.998 0-4.422 3.578-8 8-8h239.986a7.994 7.994 0 0 1 7.998 8 7.994 7.994 0 0 1-7.998 7.998zM823.982 528h-111.994c-4.422 0-8-3.578-8-8s3.578-8 8-8h111.994c4.42 0 7.998 3.578 7.998 8s-3.578 8-7.998 8zM1015.97 160.022H8.032c-4.422 0-8-3.578-8-8a7.994 7.994 0 0 1 8-7.998h1007.94a7.994 7.994 0 0 1 7.998 7.998 7.998 7.998 0 0 1-8 8zM1015.97 879.976H8.032c-4.422 0-8-3.578-8-7.998 0-4.422 3.578-8 8-8h1007.94a7.994 7.994 0 0 1 7.998 8 7.998 7.998 0 0 1-8 7.998zM967.972 224.018c-13.232 0-23.998-10.766-23.998-23.998 0-13.234 10.766-23.998 23.998-23.998 13.234 0 24 10.764 24 23.998 0 13.232-10.764 23.998-24 23.998z m0-31.998c-4.406 0-8 3.586-8 8s3.594 8 8 8 8-3.586 8-8-3.594-8-8-8zM823.982 224.018c-13.234 0-23.998-10.766-23.998-23.998 0-13.234 10.764-23.998 23.998-23.998 13.232 0 23.998 10.764 23.998 23.998 0 13.232-10.766 23.998-23.998 23.998z m0-31.998c-4.406 0-8 3.586-8 8s3.594 8 8 8c4.404 0 7.998-3.586 7.998-8s-3.594-8-7.998-8zM679.99 224.018c-13.232 0-23.998-10.766-23.998-23.998 0-13.234 10.766-23.998 23.998-23.998 13.234 0 23.998 10.764 23.998 23.998 0 13.232-10.764 23.998-23.998 23.998z m0-31.998c-4.404 0-7.998 3.586-7.998 8s3.594 8 7.998 8c4.406 0 8-3.586 8-8s-3.594-8-8-8zM344.012 224.018c-13.234 0-24-10.766-24-23.998 0-13.234 10.766-23.998 24-23.998 13.232 0 23.998 10.764 23.998 23.998 0 13.232-10.766 23.998-23.998 23.998z m0-31.998c-4.406 0-8 3.586-8 8s3.594 8 8 8c4.404 0 7.998-3.586 7.998-8s-3.594-8-7.998-8zM200.02 224.018c-13.232 0-23.998-10.766-23.998-23.998 0-13.234 10.766-23.998 23.998-23.998 13.234 0 23.998 10.764 23.998 23.998 0 13.232-10.764 23.998-23.998 23.998z m0-31.998c-4.406 0-8 3.586-8 8s3.594 8 8 8 8-3.586 8-8-3.594-8-8-8zM56.03 224.018c-13.234 0-24-10.766-24-23.998 0-13.234 10.766-23.998 24-23.998 13.232 0 23.998 10.764 23.998 23.998 0 13.232-10.766 23.998-23.998 23.998z m0-31.998c-4.406 0-8 3.586-8 8s3.594 8 8 8c4.404 0 7.998-3.586 7.998-8s-3.594-8-7.998-8zM967.972 847.98c-13.232 0-23.998-10.766-23.998-24 0-13.232 10.766-23.998 23.998-23.998 13.234 0 24 10.766 24 23.998 0 13.234-10.764 24-24 24z m0-32c-4.406 0-8 3.594-8 8s3.594 8 8 8 8-3.594 8-8-3.594-8-8-8zM823.982 847.98c-13.234 0-23.998-10.766-23.998-24 0-13.232 10.764-23.998 23.998-23.998 13.232 0 23.998 10.766 23.998 23.998 0 13.234-10.766 24-23.998 24z m0-32c-4.406 0-8 3.594-8 8s3.594 8 8 8c4.404 0 7.998-3.594 7.998-8s-3.594-8-7.998-8zM679.99 847.98c-13.232 0-23.998-10.766-23.998-24 0-13.232 10.766-23.998 23.998-23.998 13.234 0 23.998 10.766 23.998 23.998 0 13.234-10.764 24-23.998 24z m0-32c-4.404 0-7.998 3.594-7.998 8s3.594 8 7.998 8c4.406 0 8-3.594 8-8s-3.594-8-8-8zM344.012 847.98c-13.234 0-24-10.766-24-24 0-13.232 10.766-23.998 24-23.998 13.232 0 23.998 10.766 23.998 23.998 0 13.234-10.766 24-23.998 24z m0-32c-4.406 0-8 3.594-8 8s3.594 8 8 8c4.404 0 7.998-3.594 7.998-8s-3.594-8-7.998-8zM200.02 847.98c-13.232 0-23.998-10.766-23.998-24 0-13.232 10.766-23.998 23.998-23.998 13.234 0 23.998 10.766 23.998 23.998 0 13.234-10.764 24-23.998 24z m0-32c-4.406 0-8 3.594-8 8s3.594 8 8 8 8-3.594 8-8-3.594-8-8-8zM56.03 847.98c-13.234 0-24-10.766-24-24 0-13.232 10.766-23.998 24-23.998 13.232 0 23.998 10.766 23.998 23.998 0 13.234-10.766 24-23.998 24z m0-32c-4.406 0-8 3.594-8 8s3.594 8 8 8c4.404 0 7.998-3.594 7.998-8s-3.594-8-7.998-8z" fill="" /></svg>