<?xml version="1.0" encoding="iso-8859-1"?>
<!-- Uploaded to: SVG Repo, www.svgrepo.com, Generator: SVG Repo Mixer Tools -->
<svg fill="#000000" height="800px" width="800px" version="1.1" id="Layer_1" xmlns="http://www.w3.org/2000/svg" xmlns:xlink="http://www.w3.org/1999/xlink" 
	 viewBox="0 0 511.99 511.99" xml:space="preserve">
<g>
	<g>
		<path d="M153.088,303.61c-39.849,0-72.27,32.421-72.27,72.27c0,39.849,32.421,72.27,72.27,72.27
			c39.849,0,72.27-32.421,72.27-72.27C225.357,336.031,192.937,303.61,153.088,303.61z M178.875,331.695
			c4.892-4.892,12.823-4.892,17.714,0c4.892,4.892,4.892,12.823,0,17.714c-2.123,2.123-8.352,5.013-14.722,7.606
			c-2.759-4.195-6.408-7.754-10.678-10.405C173.803,340.175,176.731,333.841,178.875,331.695z M153.088,313.676
			c6.918,0,12.526,5.608,12.526,12.526c0,3.045-2.427,9.633-5.144,16.053c-2.38-0.522-4.848-0.805-7.382-0.805
			s-5.002,0.284-7.382,0.805c-2.717-6.422-5.144-13.009-5.144-16.053C140.562,319.284,146.169,313.676,153.088,313.676z
			 M109.584,331.695c4.892-4.892,12.823-4.892,17.714,0c2.144,2.146,5.072,8.478,7.686,14.916
			c-4.271,2.651-7.919,6.21-10.678,10.405c-6.37-2.592-12.598-5.483-14.722-7.606C104.693,344.518,104.693,336.587,109.584,331.695z
			 M91.565,375.198c0-6.918,5.608-12.526,12.526-12.526c2.969,0,9.308,2.308,15.576,4.943c-0.655,2.65-1.01,5.416-1.01,8.266
			c0,2.406,0.25,4.753,0.722,7.021c-6.174,2.583-12.364,4.822-15.288,4.822C97.174,387.724,91.565,382.116,91.565,375.198z
			 M127.299,418.701c-4.892,4.892-12.823,4.892-17.714,0c-4.892-4.892-4.892-12.823,0-17.714c2.046-2.046,7.907-4.806,14.032-7.323
			c2.736,4.518,6.486,8.352,10.925,11.203C132.045,410.919,129.324,416.676,127.299,418.701z M153.088,436.721
			c-6.919,0-12.526-5.608-12.526-12.526c0-2.849,2.124-8.796,4.623-14.81c2.54,0.599,5.184,0.925,7.903,0.925
			c2.72,0,5.364-0.327,7.904-0.925c2.498,6.012,4.623,11.961,4.623,14.81C165.613,431.112,160.005,436.721,153.088,436.721z
			 M153.088,395.392c-10.776,0-19.511-8.735-19.511-19.512c0-10.776,8.735-19.511,19.511-19.511s19.512,8.735,19.512,19.511
			C172.598,386.656,163.863,395.392,153.088,395.392z M196.591,418.701c-4.892,4.892-12.823,4.892-17.714,0
			c-2.024-2.025-4.746-7.782-7.242-13.835c4.439-2.85,8.189-6.684,10.925-11.203c6.124,2.518,11.985,5.277,14.032,7.323
			C201.482,405.878,201.482,413.809,196.591,418.701z M202.084,387.724c-2.924,0-9.115-2.239-15.288-4.822
			c0.472-2.268,0.721-4.616,0.721-7.021c0-2.849-0.354-5.616-1.01-8.266c6.268-2.634,12.606-4.943,15.576-4.943
			c6.919,0.001,12.527,5.608,12.527,12.527C214.61,382.116,209.002,387.724,202.084,387.724z"/>
	</g>
</g>
<g>
	<g>
		<path d="M493.406,474.843L457.971,373.79l-0.188-67.934l-55.474,64.243l0.023,8.588c0.009,3.139,0.549,6.253,1.597,9.212
			l37.02,105.524c5.132,14.492,21.038,22.069,35.518,16.941C490.954,505.232,498.538,489.329,493.406,474.843z"/>
	</g>
</g>
<g>
	<g>
		<circle cx="295.076" cy="48.056" r="48.056"/>
	</g>
</g>
<g>
	<g>
		<path d="M465.191,202.943l-67.416-107.32c-9.538-15.183-29.577-19.758-44.76-10.222l-49.024,30.796
			c-15.183,9.538-19.758,29.577-10.222,44.759l5.158,8.211l26.025-44.195l-24.119,84.828l-76.399,24.43
			c-12.183,3.896-18.904,17.013-15.023,29.149c3.848,12.035,16.818,18.969,29.149,15.023l89.996-28.817
			c7.413-2.37,13.121-8.291,15.242-15.744l25.007-92.737c-0.269,9.099-2.476,83.891-2.756,93.393
			c-0.227,7.666-5.779,18.437-11.136,23.793l4.88,7.769l0.001-0.002l8.865,14.116l19.01-12.335l-62.968,72.922
			c-2.919,3.382-4.983,7.418-6.013,11.766l-31.25,125.189c-3.545,14.953,5.701,29.948,20.655,33.496
			c14.928,3.54,29.941-5.676,33.495-20.655l29.679-118.57l89.302-104.98C475.93,248.949,477.8,223.016,465.191,202.943z"/>
	</g>
</g>
<g>
	<g>
		<path d="M288.128,350.618c0,0,0,0,0-0.001c-1.678-3.392-5.164-5.731-9.204-5.731h-10.159l8.799-5.08
			c4.914-2.836,6.597-9.12,3.761-14.034l-18.363-31.807l-17.615,5.641c-32.7,10.462-61.824-13.683-61.824-43.27
			c0-2.333,0.183-4.63,0.534-6.879c-0.306-5.398-4.768-9.686-10.244-9.686h-41.443c-5.674,0-10.273,4.599-10.273,10.273v10.159
			l-5.08-8.799c-2.837-4.914-9.12-6.597-14.034-3.761l-35.893,20.724c-4.914,2.838-6.597,9.12-3.761,14.034l5.08,8.799l-8.799-5.08
			c-4.914-2.836-11.196-1.153-14.034,3.761l-20.722,35.891c-2.836,4.914-1.153,11.196,3.761,14.034l8.799,5.08H27.252
			c-5.674,0-10.273,4.599-10.273,10.273v41.443c0,5.674,4.599,10.273,10.273,10.273h10.159l-8.799,5.08
			c-4.914,2.836-6.597,9.12-3.761,14.034l20.722,35.891c2.836,4.914,9.12,6.597,14.034,3.761l8.799-5.08l-5.08,8.799
			c-2.837,4.914-1.153,11.196,3.761,14.034l35.891,20.722c4.914,2.836,11.196,1.153,14.034-3.761l5.08-8.799v10.159
			c0,5.674,4.599,10.273,10.273,10.273h41.443c5.674,0,10.273-4.599,10.273-10.273v-10.159l5.08,8.799
			c2.836,4.914,9.12,6.597,14.034,3.761l35.891-20.722c4.914-2.836,6.597-9.12,3.761-14.034l-5.08-8.799l8.799,5.08
			c4.914,2.838,11.196,1.153,14.034-3.761l2.993-5.184l17.729-30.707c2.837-4.914,1.153-11.196-3.761-14.034l-8.799-5.08h10.159
			c5.674,0,10.273-4.6,10.273-10.274C289.196,350.909,289.635,353.666,288.128,350.618z M153.088,466.964
			c-50.224,0-91.084-40.861-91.084-91.084c0-50.223,40.861-91.084,91.084-91.084c50.223,0,91.084,40.86,91.084,91.084
			C244.171,426.105,203.312,466.964,153.088,466.964z"/>
	</g>
</g>
</svg>