<?xml version="1.0" encoding="utf-8"?><!-- Uploaded to: SVG Repo, www.svgrepo.com, Generator: SVG Repo Mixer Tools -->
<svg width="800px" height="800px" viewBox="0 0 32 32" xmlns="http://www.w3.org/2000/svg" xmlns:xlink="http://www.w3.org/1999/xlink">
  <defs>
    <clipPath id="clip-bubble2">
      <rect width="32" height="32"/>
    </clipPath>
  </defs>
  <g id="bubble2" clip-path="url(#clip-bubble2)">
    <g id="Group_3181" data-name="Group 3181" transform="translate(-52 -104)">
      <g id="Group_3176" data-name="Group 3176">
        <g id="Group_3175" data-name="Group 3175">
          <g id="Group_3174" data-name="Group 3174">
            <g id="Group_3173" data-name="Group 3173">
              <g id="Group_3172" data-name="Group 3172">
                <g id="Group_3171" data-name="Group 3171">
                  <g id="Group_3170" data-name="Group 3170">
                    <g id="Group_3169" data-name="Group 3169">
                      <g id="Group_3168" data-name="Group 3168">
                        <path id="Path_4001" data-name="Path 4001" d="M64.97,135.517a1.033,1.033,0,0,1-.285-.041c-.075-.023-7.355-2.268-7.646-9.575a11.5,11.5,0,0,1-4.582-8.88c0-6.914,6.973-12.538,15.543-12.538s15.543,5.624,15.543,12.538S76.57,129.558,68,129.558a18.492,18.492,0,0,1-2.195-.135c-1.028,1.013-1.039,2.516-.033,4.471a1,1,0,0,1-.783,1.623ZM68,106.483c-7.468,0-13.543,4.727-13.543,10.538A9.5,9.5,0,0,0,58.63,124.6a1,1,0,0,1,.4.805,8.183,8.183,0,0,0,4.137,7.152,4.754,4.754,0,0,1,1.712-4.979.988.988,0,0,1,.748-.2,17.177,17.177,0,0,0,2.373.174c7.468,0,13.543-4.727,13.543-10.537S75.468,106.483,68,106.483Z" fill="#344952"/>
                      </g>
                    </g>
                  </g>
                </g>
              </g>
            </g>
          </g>
        </g>
      </g>
      <g id="Group_3180" data-name="Group 3180">
        <g id="Group_3179" data-name="Group 3179">
          <g id="Group_3178" data-name="Group 3178">
            <g id="Group_3177" data-name="Group 3177">
              <path id="Path_4002" data-name="Path 4002" d="M68.2,109.5a3.5,3.5,0,0,1,3.577,3.384c0,3.385-3.193,3.6-3.193,6.961v.1a.543.543,0,0,1-.543.543h-.354a.543.543,0,0,1-.543-.543v-.3c0-3.384,3.1-4.3,3.1-6.6a2.094,2.094,0,0,0-2.04-2.208,2.258,2.258,0,0,0-2.376,1.848v.564a.8.8,0,1,1-1.609,0v-.131A3.8,3.8,0,0,1,68.2,109.5m-.336,13.609a.717.717,0,0,1,.72.7.72.72,0,0,1-1.44,0,.717.717,0,0,1,.72-.7M68.2,108.5a4.821,4.821,0,0,0-4.985,4.625v.131a1.8,1.8,0,1,0,3.609,0v-.481a1.3,1.3,0,0,1,1.376-.931,1.1,1.1,0,0,1,1.04,1.208c0,.647-.415,1.177-1.093,1.988a6.774,6.774,0,0,0-2,4.613v.3a1.545,1.545,0,0,0,1.543,1.543h.354a1.545,1.545,0,0,0,1.543-1.543v-.1a3.85,3.85,0,0,1,1.339-2.8,5.814,5.814,0,0,0,1.854-4.159A4.489,4.489,0,0,0,68.2,108.5Zm-.336,13.609a1.7,1.7,0,1,0,1.72,1.7,1.71,1.71,0,0,0-1.72-1.7Z" fill="#344952"/>
            </g>
          </g>
        </g>
      </g>
    </g>
  </g>
</svg>