<?xml version="1.0" encoding="utf-8"?>
<!-- Uploaded to: SVG Repo, www.svgrepo.com, Generator: SVG Repo Mixer Tools -->
<svg width="800px" height="800px" viewBox="0 0 1024 1024" class="icon"  version="1.1" xmlns="http://www.w3.org/2000/svg"><path d="M685.810688 599.834624c-9.61024 0-17.399808-7.790592-17.399808-17.399808 0-9.61024 7.789568-17.399808 17.399808-17.399808 9.61024 0 17.399808 7.789568 17.399808 17.399808 0 9.609216-7.789568 17.399808-17.399808 17.399808z m0 174.001152c-9.61024 0-17.399808-7.790592-17.399808-17.400832 0-9.609216 7.789568-17.399808 17.399808-17.399808 9.61024 0 17.399808 7.790592 17.399808 17.399808 0 9.61024-7.789568 17.400832-17.399808 17.400832zM511.809536 599.834624c-9.609216 0-17.399808-7.790592-17.399808-17.399808 0-9.61024 7.790592-17.399808 17.399808-17.399808 9.61024 0 17.399808 7.789568 17.399808 17.399808 0 9.609216-7.789568 17.399808-17.399808 17.399808z m0 174.001152c-9.609216 0-17.399808-7.790592-17.399808-17.400832 0-9.609216 7.790592-17.399808 17.399808-17.399808 9.61024 0 17.399808 7.790592 17.399808 17.399808 0 9.61024-7.789568 17.400832-17.399808 17.400832zM337.809408 599.834624c-9.61024 0-17.400832-7.790592-17.400832-17.399808 0-9.61024 7.790592-17.399808 17.400832-17.399808 9.609216 0 17.399808 7.789568 17.399808 17.399808 0 9.609216-7.790592 17.399808-17.399808 17.399808z m0 174.001152c-9.61024 0-17.400832-7.790592-17.400832-17.400832 0-9.609216 7.790592-17.399808 17.400832-17.399808 9.609216 0 17.399808 7.790592 17.399808 17.399808 0 9.61024-7.790592 17.400832-17.399808 17.400832zM94.208 424.13568v332.131328c0 96.330752 77.933568 174.169088 174.06976 174.169088h487.0656c96.24576 0 174.06976-77.9776 174.06976-174.169088V424.13568H94.208z" fill="#FFF200" /><path d="M511.81056 565.033984c9.61024 0 17.399808 7.790592 17.399808 17.399808 0 9.61024-7.789568 17.400832-17.399808 17.400832-9.61024 0-17.399808-7.790592-17.399808-17.400832 0-9.609216 7.789568-17.399808 17.399808-17.399808z m0 75.76064c32.180224 0 58.359808-26.180608 58.359808-58.360832 0-32.1792-26.179584-58.359808-58.359808-58.359808s-58.359808 26.180608-58.359808 58.359808c0 32.180224 26.179584 58.360832 58.359808 58.360832z m-174.001152 98.240512c9.61024 0 17.400832 7.790592 17.400832 17.399808 0 9.61024-7.790592 17.399808-17.400832 17.399808-9.609216 0-17.399808-7.789568-17.399808-17.399808 0-9.609216 7.790592-17.399808 17.399808-17.399808z m0 75.759616c32.180224 0 58.360832-26.179584 58.360832-58.359808 0-32.1792-26.180608-58.359808-58.360832-58.359808-32.1792 0-58.359808 26.180608-58.359808 58.359808 0 32.180224 26.180608 58.359808 58.359808 58.359808z m174.001152-75.759616c9.61024 0 17.399808 7.790592 17.399808 17.399808 0 9.61024-7.789568 17.399808-17.399808 17.399808-9.61024 0-17.399808-7.789568-17.399808-17.399808 0-9.609216 7.789568-17.399808 17.399808-17.399808z m0 75.759616c32.180224 0 58.359808-26.179584 58.359808-58.359808 0-32.1792-26.179584-58.359808-58.359808-58.359808s-58.359808 26.180608-58.359808 58.359808c0 32.180224 26.179584 58.359808 58.359808 58.359808z m174.001152-75.759616c9.609216 0 17.399808 7.790592 17.399808 17.399808 0 9.61024-7.790592 17.399808-17.399808 17.399808-9.61024 0-17.399808-7.789568-17.399808-17.399808 0-9.609216 7.789568-17.399808 17.399808-17.399808z m0 75.759616c32.1792 0 58.359808-26.179584 58.359808-58.359808 0-32.1792-26.180608-58.359808-58.359808-58.359808-32.180224 0-58.359808 26.180608-58.359808 58.359808 0 32.180224 26.179584 58.359808 58.359808 58.359808zM337.809408 565.033984c9.61024 0 17.400832 7.790592 17.400832 17.399808 0 9.61024-7.790592 17.400832-17.400832 17.400832-9.609216 0-17.399808-7.790592-17.399808-17.400832 0-9.609216 7.790592-17.399808 17.399808-17.399808z m0 75.76064c32.180224 0 58.360832-26.180608 58.360832-58.360832 0-32.1792-26.180608-58.359808-58.360832-58.359808-32.1792 0-58.359808 26.180608-58.359808 58.359808 0 32.180224 26.180608 58.360832 58.359808 58.360832z m348.002304-75.76064c9.609216 0 17.399808 7.790592 17.399808 17.399808 0 9.61024-7.790592 17.400832-17.399808 17.400832-9.61024 0-17.399808-7.790592-17.399808-17.400832 0-9.609216 7.789568-17.399808 17.399808-17.399808z m0 75.76064c32.1792 0 58.359808-26.180608 58.359808-58.360832 0-32.1792-26.180608-58.359808-58.359808-58.359808-32.180224 0-58.359808 26.180608-58.359808 58.359808 0 32.180224 26.179584 58.360832 58.359808 58.360832zM135.168 465.096704h753.28512v291.170304c0 35.601408-13.837312 69.05856-38.961152 94.208-25.124864 25.150464-58.560512 39.001088-94.148608 39.001088H268.27776c-35.569664 0-68.99712-13.837312-94.121984-38.9632C149.014528 825.370624 135.168 791.90016 135.168 756.267008V465.09568zM94.208 756.265984c0 96.330752 77.933568 174.169088 174.06976 174.169088h487.0656c96.24576 0 174.06976-77.9776 174.06976-174.169088V424.13568H94.208v332.131328z m794.24512-413.833216H135.168v-38.233088c0-35.601408 13.837312-69.057536 38.961152-94.206976 25.124864-25.14944 58.560512-39.002112 94.148608-39.002112H755.34336c35.569664 0 68.99712 13.838336 94.121984 38.9632 25.141248 25.142272 38.987776 58.61376 38.987776 94.245888v38.233088z m40.96-38.233088c0-96.330752-77.933568-174.169088-174.06976-174.169088h-69.531648v-17.424384c0-9.735168-7.790592-17.375232-17.399808-17.375232a17.345536 17.345536 0 0 0-17.400832 17.375232v17.424384H355.21024v-17.321984c0-9.628672-7.790592-17.477632-17.400832-17.477632-9.6768 0-17.399808 7.824384-17.399808 17.477632v17.321984h-52.13184C172.032 130.031616 94.208 208.01024 94.208 304.200704v79.193088h835.20512v-79.193088z" fill="#000000" /></svg>