<?xml version="1.0" encoding="iso-8859-1"?>
<!-- Uploaded to: SVG Repo, www.svgrepo.com, Generator: SVG Repo Mixer Tools -->
<!DOCTYPE svg PUBLIC "-//W3C//DTD SVG 1.1//EN" "http://www.w3.org/Graphics/SVG/1.1/DTD/svg11.dtd">
<svg fill="#000000" version="1.1" id="Capa_1" xmlns="http://www.w3.org/2000/svg" xmlns:xlink="http://www.w3.org/1999/xlink" 
	 width="800px" height="800px" viewBox="0 0 39.536 39.537"
	 xml:space="preserve">
<g>
	<path d="M6.457,35.78h26.557v3.487h3.26c1.802,0,3.263-1.947,3.263-4.348V0.269h-3.263c-1.799,0-3.26,1.946-3.26,4.347v0.188H6.522
		V0.269h-3.26C1.461,0.269,0,2.215,0,4.616v34.65h3.262C4.84,39.267,6.157,37.769,6.457,35.78z M34.711,6.118
		c0-0.863,0.701-1.562,1.562-1.562h1.562c0,0,0,0.7,0,1.562c0,0.863-0.698,1.562-1.562,1.562h-1.562
		C34.711,7.68,34.711,6.98,34.711,6.118z M34.711,11.756c0-0.863,0.701-1.562,1.562-1.562h1.562c0,0,0,0.699,0,1.562
		c0,0.863-0.698,1.562-1.562,1.562h-1.562C34.711,13.318,34.711,12.619,34.711,11.756z M34.711,17.394
		c0-0.863,0.701-1.562,1.562-1.562h1.562c0,0,0,0.7,0,1.562c0,0.863-0.698,1.562-1.562,1.562h-1.562
		C34.711,18.956,34.711,18.257,34.711,17.394z M34.711,23.033c0-0.863,0.701-1.562,1.562-1.562h1.562c0,0,0,0.699,0,1.562
		c0,0.861-0.698,1.561-1.562,1.561h-1.562C34.711,24.593,34.711,23.895,34.711,23.033z M34.711,28.669
		c0-0.862,0.701-1.562,1.562-1.562h1.562c0,0,0,0.699,0,1.562c0,0.863-0.698,1.562-1.562,1.562h-1.562
		C34.711,30.232,34.711,29.533,34.711,28.669z M34.711,34.308c0-0.863,0.701-1.562,1.562-1.562h1.562c0,0,0,0.699,0,1.562
		s-0.698,1.562-1.562,1.562h-1.562C34.711,35.871,34.711,35.171,34.711,34.308z M6.522,10.608c0-1.105,0.896-2,2-2h24.492v21.368
		c0,1.104-0.896,2-2,2H6.522V10.608z M1.7,6.118c0-0.863,0.699-1.562,1.562-1.562h1.562c0,0,0,0.7,0,1.562
		c0,0.863-0.701,1.562-1.562,1.562H1.7C1.7,7.68,1.7,6.98,1.7,6.118z M1.7,11.756c0-0.863,0.699-1.562,1.562-1.562h1.562
		c0,0,0,0.699,0,1.562c0,0.863-0.701,1.562-1.562,1.562H1.7C1.7,13.318,1.7,12.619,1.7,11.756z M1.7,17.394
		c0-0.863,0.699-1.562,1.562-1.562h1.562c0,0,0,0.7,0,1.562c0,0.863-0.701,1.562-1.562,1.562H1.7C1.7,18.956,1.7,18.257,1.7,17.394z
		 M1.7,23.033c0-0.863,0.699-1.562,1.562-1.562h1.562c0,0,0,0.699,0,1.562c0,0.861-0.701,1.561-1.562,1.561H1.7
		C1.7,24.593,1.7,23.895,1.7,23.033z M1.7,28.669c0-0.862,0.699-1.562,1.562-1.562h1.562c0,0,0,0.699,0,1.562
		c0,0.863-0.701,1.562-1.562,1.562H1.7C1.7,30.232,1.7,29.533,1.7,28.669z M1.7,34.308c0-0.863,0.699-1.562,1.562-1.562h1.562
		c0,0,0,0.699,0,1.562s-0.701,1.562-1.562,1.562H1.7C1.7,35.871,1.7,35.171,1.7,34.308z"/>
</g>
</svg>