<?xml version="1.0" encoding="iso-8859-1"?>
<!-- Uploaded to: SVG Repo, www.svgrepo.com, Generator: SVG Repo Mixer Tools -->
<!DOCTYPE svg PUBLIC "-//W3C//DTD SVG 1.1//EN" "http://www.w3.org/Graphics/SVG/1.1/DTD/svg11.dtd">
<svg fill="#000000" version="1.1" id="Capa_1" xmlns="http://www.w3.org/2000/svg" xmlns:xlink="http://www.w3.org/1999/xlink" 
	 width="800px" height="800px" viewBox="0 0 135.955 135.955"
	 xml:space="preserve">
<g>
	<path d="M119.077,41.87c-0.456-0.84-1.27-1.483-2.189-1.749c-15.202-4.289-30.522-6.375-45.8-6.64L91.512,11.73
		c1.343-1.445,1.286-3.737-0.175-5.1c-1.443-1.376-3.661-1.294-5.111,0.165L65.232,29.128L50.259,1.87
		c-0.985-1.732-3.238-2.383-4.897-1.431c-1.764,0.971-2.402,3.149-1.443,4.922l15.627,28.492
		c-13.517,0.648-27.027,2.465-40.479,6.263c-0.92,0.267-1.732,0.897-2.18,1.749c-13.067,24.061-13.067,48.484,0,72.544
		c0.448,0.838,1.26,1.483,2.18,1.746c3.25,0.919,6.49,1.324,9.738,2.053v14.123c0,1.991,1.587,3.624,3.602,3.624
		c2.02,0,3.604-1.628,3.604-3.624v-12.613c10.65,1.965,21.354,3.322,31.966,3.322c10.615,0,21.319-1.357,31.967-3.322v12.613
		c0,1.991,1.587,3.624,3.612,3.624c2.003,0,3.601-1.628,3.601-3.624v-14.123c3.239-0.723,6.49-1.134,9.73-2.053
		c0.92-0.263,1.738-0.892,2.194-1.746C132.131,90.355,132.131,65.93,119.077,41.87z M113.427,109.617
		c-30.205,8.224-60.687,8.224-90.892,0c-10.86-20.887-10.86-42.053,0-62.937c30.21-8.221,60.687-8.221,90.892,0
		C124.306,67.564,124.306,88.73,113.427,109.617z M67.983,46.297c-25.333,0-45.929,14.607-45.929,32.555
		c0,17.938,20.608,32.554,45.929,32.554c25.33,0,45.943-14.61,45.943-32.554C113.926,60.91,93.313,46.297,67.983,46.297z
		 M67.983,104.167c-21.354,0-38.742-11.359-38.742-25.319c0-13.956,17.393-25.321,38.742-25.321
		c21.347,0,38.749,11.365,38.749,25.321C106.732,92.802,89.33,104.167,67.983,104.167z"/>
</g>
</svg>